<svg xmlns="http://www.w3.org/2000/svg" xmlns:xlink="http://www.w3.org/1999/xlink" width="500" zoomAndPan="magnify" viewBox="0 0 375 374.999991" height="500" preserveAspectRatio="xMidYMid meet" version="1.0"><defs><clipPath id="83c015a720"><path d="M 187.5 0 C 83.945312 0 0 83.945312 0 187.5 C 0 291.054688 83.945312 375 187.5 375 C 291.054688 375 375 291.054688 375 187.5 C 375 83.945312 291.054688 0 187.5 0 Z M 187.5 0 " clip-rule="nonzero"/></clipPath><linearGradient x1="-0" gradientTransform="matrix(1.464844, 0, 0, 1.464844, 0.0000045, 0)" y1="128" x2="255.999988" gradientUnits="userSpaceOnUse" y2="128" id="6c151386a5"><stop stop-opacity="1" stop-color="rgb(54.899597%, 32.199097%, 100%)" offset="0"/><stop stop-opacity="1" stop-color="rgb(54.826355%, 32.417297%, 99.960327%)" offset="0.00390625"/><stop stop-opacity="1" stop-color="rgb(54.753113%, 32.637024%, 99.92218%)" offset="0.0078125"/><stop stop-opacity="1" stop-color="rgb(54.678345%, 32.855225%, 99.884033%)" offset="0.0117188"/><stop stop-opacity="1" stop-color="rgb(54.605103%, 33.074951%, 99.845886%)" offset="0.015625"/><stop stop-opacity="1" stop-color="rgb(54.53186%, 33.293152%, 99.807739%)" offset="0.0195313"/><stop stop-opacity="1" stop-color="rgb(54.458618%, 33.511353%, 99.769592%)" offset="0.0234375"/><stop stop-opacity="1" stop-color="rgb(54.385376%, 33.729553%, 99.731445%)" offset="0.0273438"/><stop stop-opacity="1" stop-color="rgb(54.312134%, 33.94928%, 99.693298%)" offset="0.03125"/><stop stop-opacity="1" stop-color="rgb(54.237366%, 34.16748%, 99.655151%)" offset="0.0351562"/><stop stop-opacity="1" stop-color="rgb(54.164124%, 34.387207%, 99.617004%)" offset="0.0390625"/><stop stop-opacity="1" stop-color="rgb(54.090881%, 34.605408%, 99.577332%)" offset="0.0429688"/><stop stop-opacity="1" stop-color="rgb(54.017639%, 34.823608%, 99.539185%)" offset="0.046875"/><stop stop-opacity="1" stop-color="rgb(53.944397%, 35.041809%, 99.501038%)" offset="0.0507812"/><stop stop-opacity="1" stop-color="rgb(53.871155%, 35.261536%, 99.462891%)" offset="0.0546875"/><stop stop-opacity="1" stop-color="rgb(53.797913%, 35.479736%, 99.424744%)" offset="0.0585938"/><stop stop-opacity="1" stop-color="rgb(53.72467%, 35.699463%, 99.386597%)" offset="0.0625"/><stop stop-opacity="1" stop-color="rgb(53.649902%, 35.917664%, 99.34845%)" offset="0.0664062"/><stop stop-opacity="1" stop-color="rgb(53.57666%, 36.13739%, 99.310303%)" offset="0.0703125"/><stop stop-opacity="1" stop-color="rgb(53.503418%, 36.355591%, 99.272156%)" offset="0.0742188"/><stop stop-opacity="1" stop-color="rgb(53.430176%, 36.573792%, 99.234009%)" offset="0.078125"/><stop stop-opacity="1" stop-color="rgb(53.356934%, 36.791992%, 99.195862%)" offset="0.0820312"/><stop stop-opacity="1" stop-color="rgb(53.283691%, 37.011719%, 99.157715%)" offset="0.0859375"/><stop stop-opacity="1" stop-color="rgb(53.210449%, 37.229919%, 99.118042%)" offset="0.0898438"/><stop stop-opacity="1" stop-color="rgb(53.137207%, 37.449646%, 99.079895%)" offset="0.09375"/><stop stop-opacity="1" stop-color="rgb(53.062439%, 37.667847%, 99.041748%)" offset="0.0976562"/><stop stop-opacity="1" stop-color="rgb(52.989197%, 37.886047%, 99.003601%)" offset="0.101562"/><stop stop-opacity="1" stop-color="rgb(52.915955%, 38.104248%, 98.965454%)" offset="0.105469"/><stop stop-opacity="1" stop-color="rgb(52.842712%, 38.323975%, 98.927307%)" offset="0.109375"/><stop stop-opacity="1" stop-color="rgb(52.76947%, 38.542175%, 98.88916%)" offset="0.113281"/><stop stop-opacity="1" stop-color="rgb(52.696228%, 38.761902%, 98.851013%)" offset="0.117188"/><stop stop-opacity="1" stop-color="rgb(52.622986%, 38.980103%, 98.812866%)" offset="0.121094"/><stop stop-opacity="1" stop-color="rgb(52.549744%, 39.199829%, 98.774719%)" offset="0.125"/><stop stop-opacity="1" stop-color="rgb(52.474976%, 39.41803%, 98.736572%)" offset="0.128906"/><stop stop-opacity="1" stop-color="rgb(52.401733%, 39.63623%, 98.698425%)" offset="0.132812"/><stop stop-opacity="1" stop-color="rgb(52.328491%, 39.854431%, 98.658752%)" offset="0.136719"/><stop stop-opacity="1" stop-color="rgb(52.255249%, 40.074158%, 98.620605%)" offset="0.140625"/><stop stop-opacity="1" stop-color="rgb(52.182007%, 40.292358%, 98.582458%)" offset="0.144531"/><stop stop-opacity="1" stop-color="rgb(52.108765%, 40.512085%, 98.544312%)" offset="0.148438"/><stop stop-opacity="1" stop-color="rgb(52.035522%, 40.730286%, 98.506165%)" offset="0.152344"/><stop stop-opacity="1" stop-color="rgb(51.96228%, 40.948486%, 98.468018%)" offset="0.15625"/><stop stop-opacity="1" stop-color="rgb(51.887512%, 41.166687%, 98.429871%)" offset="0.160156"/><stop stop-opacity="1" stop-color="rgb(51.81427%, 41.386414%, 98.391724%)" offset="0.164062"/><stop stop-opacity="1" stop-color="rgb(51.741028%, 41.604614%, 98.353577%)" offset="0.167969"/><stop stop-opacity="1" stop-color="rgb(51.667786%, 41.824341%, 98.31543%)" offset="0.171875"/><stop stop-opacity="1" stop-color="rgb(51.594543%, 42.042542%, 98.275757%)" offset="0.175781"/><stop stop-opacity="1" stop-color="rgb(51.521301%, 42.262268%, 98.23761%)" offset="0.179688"/><stop stop-opacity="1" stop-color="rgb(51.448059%, 42.480469%, 98.199463%)" offset="0.183594"/><stop stop-opacity="1" stop-color="rgb(51.374817%, 42.698669%, 98.161316%)" offset="0.1875"/><stop stop-opacity="1" stop-color="rgb(51.300049%, 42.91687%, 98.123169%)" offset="0.191406"/><stop stop-opacity="1" stop-color="rgb(51.226807%, 43.136597%, 98.085022%)" offset="0.195312"/><stop stop-opacity="1" stop-color="rgb(51.153564%, 43.354797%, 98.046875%)" offset="0.199219"/><stop stop-opacity="1" stop-color="rgb(51.080322%, 43.574524%, 98.008728%)" offset="0.203125"/><stop stop-opacity="1" stop-color="rgb(51.00708%, 43.792725%, 97.970581%)" offset="0.207031"/><stop stop-opacity="1" stop-color="rgb(50.933838%, 44.012451%, 97.932434%)" offset="0.210938"/><stop stop-opacity="1" stop-color="rgb(50.860596%, 44.230652%, 97.894287%)" offset="0.214844"/><stop stop-opacity="1" stop-color="rgb(50.787354%, 44.448853%, 97.85614%)" offset="0.21875"/><stop stop-opacity="1" stop-color="rgb(50.712585%, 44.667053%, 97.816467%)" offset="0.222656"/><stop stop-opacity="1" stop-color="rgb(50.639343%, 44.88678%, 97.77832%)" offset="0.226562"/><stop stop-opacity="1" stop-color="rgb(50.566101%, 45.10498%, 97.740173%)" offset="0.230469"/><stop stop-opacity="1" stop-color="rgb(50.492859%, 45.324707%, 97.702026%)" offset="0.234375"/><stop stop-opacity="1" stop-color="rgb(50.419617%, 45.542908%, 97.663879%)" offset="0.238281"/><stop stop-opacity="1" stop-color="rgb(50.346375%, 45.761108%, 97.625732%)" offset="0.242188"/><stop stop-opacity="1" stop-color="rgb(50.273132%, 45.979309%, 97.587585%)" offset="0.246094"/><stop stop-opacity="1" stop-color="rgb(50.19989%, 46.199036%, 97.549438%)" offset="0.25"/><stop stop-opacity="1" stop-color="rgb(50.125122%, 46.417236%, 97.511292%)" offset="0.253906"/><stop stop-opacity="1" stop-color="rgb(50.05188%, 46.636963%, 97.473145%)" offset="0.257812"/><stop stop-opacity="1" stop-color="rgb(49.978638%, 46.855164%, 97.434998%)" offset="0.261719"/><stop stop-opacity="1" stop-color="rgb(49.905396%, 47.07489%, 97.396851%)" offset="0.265625"/><stop stop-opacity="1" stop-color="rgb(49.832153%, 47.293091%, 97.357178%)" offset="0.269531"/><stop stop-opacity="1" stop-color="rgb(49.758911%, 47.511292%, 97.319031%)" offset="0.273438"/><stop stop-opacity="1" stop-color="rgb(49.685669%, 47.729492%, 97.280884%)" offset="0.277344"/><stop stop-opacity="1" stop-color="rgb(49.612427%, 47.949219%, 97.242737%)" offset="0.28125"/><stop stop-opacity="1" stop-color="rgb(49.537659%, 48.167419%, 97.20459%)" offset="0.285156"/><stop stop-opacity="1" stop-color="rgb(49.464417%, 48.387146%, 97.166443%)" offset="0.289063"/><stop stop-opacity="1" stop-color="rgb(49.391174%, 48.605347%, 97.128296%)" offset="0.292969"/><stop stop-opacity="1" stop-color="rgb(49.317932%, 48.823547%, 97.090149%)" offset="0.296875"/><stop stop-opacity="1" stop-color="rgb(49.24469%, 49.041748%, 97.052002%)" offset="0.300781"/><stop stop-opacity="1" stop-color="rgb(49.171448%, 49.261475%, 97.013855%)" offset="0.304688"/><stop stop-opacity="1" stop-color="rgb(49.098206%, 49.479675%, 96.974182%)" offset="0.308594"/><stop stop-opacity="1" stop-color="rgb(49.024963%, 49.699402%, 96.936035%)" offset="0.3125"/><stop stop-opacity="1" stop-color="rgb(48.950195%, 49.917603%, 96.897888%)" offset="0.316406"/><stop stop-opacity="1" stop-color="rgb(48.876953%, 50.137329%, 96.859741%)" offset="0.320312"/><stop stop-opacity="1" stop-color="rgb(48.803711%, 50.35553%, 96.821594%)" offset="0.324219"/><stop stop-opacity="1" stop-color="rgb(48.730469%, 50.57373%, 96.783447%)" offset="0.328125"/><stop stop-opacity="1" stop-color="rgb(48.657227%, 50.791931%, 96.7453%)" offset="0.332031"/><stop stop-opacity="1" stop-color="rgb(48.583984%, 51.011658%, 96.707153%)" offset="0.335938"/><stop stop-opacity="1" stop-color="rgb(48.510742%, 51.229858%, 96.669006%)" offset="0.339844"/><stop stop-opacity="1" stop-color="rgb(48.4375%, 51.449585%, 96.630859%)" offset="0.34375"/><stop stop-opacity="1" stop-color="rgb(48.362732%, 51.667786%, 96.592712%)" offset="0.347656"/><stop stop-opacity="1" stop-color="rgb(48.28949%, 51.885986%, 96.554565%)" offset="0.351562"/><stop stop-opacity="1" stop-color="rgb(48.216248%, 52.104187%, 96.514893%)" offset="0.355469"/><stop stop-opacity="1" stop-color="rgb(48.143005%, 52.323914%, 96.476746%)" offset="0.359375"/><stop stop-opacity="1" stop-color="rgb(48.069763%, 52.542114%, 96.438599%)" offset="0.363281"/><stop stop-opacity="1" stop-color="rgb(47.996521%, 52.761841%, 96.400452%)" offset="0.367188"/><stop stop-opacity="1" stop-color="rgb(47.921753%, 52.980042%, 96.362305%)" offset="0.371094"/><stop stop-opacity="1" stop-color="rgb(47.848511%, 53.199768%, 96.324158%)" offset="0.375"/><stop stop-opacity="1" stop-color="rgb(47.775269%, 53.417969%, 96.286011%)" offset="0.378906"/><stop stop-opacity="1" stop-color="rgb(47.702026%, 53.636169%, 96.247864%)" offset="0.382812"/><stop stop-opacity="1" stop-color="rgb(47.628784%, 53.85437%, 96.209717%)" offset="0.386719"/><stop stop-opacity="1" stop-color="rgb(47.555542%, 54.074097%, 96.17157%)" offset="0.390625"/><stop stop-opacity="1" stop-color="rgb(47.4823%, 54.292297%, 96.133423%)" offset="0.394531"/><stop stop-opacity="1" stop-color="rgb(47.409058%, 54.512024%, 96.095276%)" offset="0.398438"/><stop stop-opacity="1" stop-color="rgb(47.33429%, 54.730225%, 96.055603%)" offset="0.402344"/><stop stop-opacity="1" stop-color="rgb(47.261047%, 54.949951%, 96.017456%)" offset="0.40625"/><stop stop-opacity="1" stop-color="rgb(47.187805%, 55.168152%, 95.979309%)" offset="0.410156"/><stop stop-opacity="1" stop-color="rgb(47.114563%, 55.386353%, 95.941162%)" offset="0.414062"/><stop stop-opacity="1" stop-color="rgb(47.041321%, 55.604553%, 95.903015%)" offset="0.417969"/><stop stop-opacity="1" stop-color="rgb(46.968079%, 55.82428%, 95.864868%)" offset="0.421875"/><stop stop-opacity="1" stop-color="rgb(46.894836%, 56.04248%, 95.826721%)" offset="0.425781"/><stop stop-opacity="1" stop-color="rgb(46.821594%, 56.262207%, 95.788574%)" offset="0.429688"/><stop stop-opacity="1" stop-color="rgb(46.746826%, 56.480408%, 95.750427%)" offset="0.433594"/><stop stop-opacity="1" stop-color="rgb(46.673584%, 56.698608%, 95.71228%)" offset="0.4375"/><stop stop-opacity="1" stop-color="rgb(46.600342%, 56.916809%, 95.672607%)" offset="0.441406"/><stop stop-opacity="1" stop-color="rgb(46.5271%, 57.136536%, 95.63446%)" offset="0.445312"/><stop stop-opacity="1" stop-color="rgb(46.453857%, 57.354736%, 95.596313%)" offset="0.449219"/><stop stop-opacity="1" stop-color="rgb(46.380615%, 57.574463%, 95.558167%)" offset="0.453125"/><stop stop-opacity="1" stop-color="rgb(46.307373%, 57.792664%, 95.52002%)" offset="0.457031"/><stop stop-opacity="1" stop-color="rgb(46.234131%, 58.01239%, 95.481873%)" offset="0.460938"/><stop stop-opacity="1" stop-color="rgb(46.159363%, 58.230591%, 95.443726%)" offset="0.464844"/><stop stop-opacity="1" stop-color="rgb(46.086121%, 58.448792%, 95.405579%)" offset="0.46875"/><stop stop-opacity="1" stop-color="rgb(46.012878%, 58.666992%, 95.367432%)" offset="0.472656"/><stop stop-opacity="1" stop-color="rgb(45.939636%, 58.886719%, 95.329285%)" offset="0.476562"/><stop stop-opacity="1" stop-color="rgb(45.866394%, 59.104919%, 95.291138%)" offset="0.480469"/><stop stop-opacity="1" stop-color="rgb(45.793152%, 59.324646%, 95.252991%)" offset="0.484375"/><stop stop-opacity="1" stop-color="rgb(45.71991%, 59.542847%, 95.213318%)" offset="0.488281"/><stop stop-opacity="1" stop-color="rgb(45.646667%, 59.761047%, 95.175171%)" offset="0.492188"/><stop stop-opacity="1" stop-color="rgb(45.571899%, 59.979248%, 95.137024%)" offset="0.496094"/><stop stop-opacity="1" stop-color="rgb(45.498657%, 60.198975%, 95.098877%)" offset="0.5"/><stop stop-opacity="1" stop-color="rgb(45.425415%, 60.417175%, 95.06073%)" offset="0.503906"/><stop stop-opacity="1" stop-color="rgb(45.352173%, 60.636902%, 95.022583%)" offset="0.507812"/><stop stop-opacity="1" stop-color="rgb(45.278931%, 60.855103%, 94.984436%)" offset="0.511719"/><stop stop-opacity="1" stop-color="rgb(45.205688%, 61.074829%, 94.946289%)" offset="0.515625"/><stop stop-opacity="1" stop-color="rgb(45.132446%, 61.29303%, 94.908142%)" offset="0.519531"/><stop stop-opacity="1" stop-color="rgb(45.059204%, 61.51123%, 94.869995%)" offset="0.523438"/><stop stop-opacity="1" stop-color="rgb(44.984436%, 61.729431%, 94.831848%)" offset="0.527344"/><stop stop-opacity="1" stop-color="rgb(44.911194%, 61.949158%, 94.793701%)" offset="0.53125"/><stop stop-opacity="1" stop-color="rgb(44.837952%, 62.167358%, 94.754028%)" offset="0.535156"/><stop stop-opacity="1" stop-color="rgb(44.764709%, 62.387085%, 94.715881%)" offset="0.539062"/><stop stop-opacity="1" stop-color="rgb(44.691467%, 62.605286%, 94.677734%)" offset="0.542969"/><stop stop-opacity="1" stop-color="rgb(44.618225%, 62.823486%, 94.639587%)" offset="0.546875"/><stop stop-opacity="1" stop-color="rgb(44.544983%, 63.041687%, 94.60144%)" offset="0.550781"/><stop stop-opacity="1" stop-color="rgb(44.471741%, 63.261414%, 94.563293%)" offset="0.554688"/><stop stop-opacity="1" stop-color="rgb(44.396973%, 63.479614%, 94.525146%)" offset="0.558594"/><stop stop-opacity="1" stop-color="rgb(44.32373%, 63.699341%, 94.487%)" offset="0.5625"/><stop stop-opacity="1" stop-color="rgb(44.250488%, 63.917542%, 94.448853%)" offset="0.566406"/><stop stop-opacity="1" stop-color="rgb(44.177246%, 64.137268%, 94.410706%)" offset="0.570312"/><stop stop-opacity="1" stop-color="rgb(44.104004%, 64.355469%, 94.371033%)" offset="0.574219"/><stop stop-opacity="1" stop-color="rgb(44.030762%, 64.573669%, 94.332886%)" offset="0.578125"/><stop stop-opacity="1" stop-color="rgb(43.95752%, 64.79187%, 94.294739%)" offset="0.582031"/><stop stop-opacity="1" stop-color="rgb(43.884277%, 65.011597%, 94.256592%)" offset="0.585938"/><stop stop-opacity="1" stop-color="rgb(43.809509%, 65.229797%, 94.218445%)" offset="0.589844"/><stop stop-opacity="1" stop-color="rgb(43.736267%, 65.449524%, 94.180298%)" offset="0.59375"/><stop stop-opacity="1" stop-color="rgb(43.663025%, 65.667725%, 94.142151%)" offset="0.597656"/><stop stop-opacity="1" stop-color="rgb(43.589783%, 65.887451%, 94.104004%)" offset="0.601563"/><stop stop-opacity="1" stop-color="rgb(43.516541%, 66.105652%, 94.065857%)" offset="0.605469"/><stop stop-opacity="1" stop-color="rgb(43.443298%, 66.323853%, 94.02771%)" offset="0.609375"/><stop stop-opacity="1" stop-color="rgb(43.370056%, 66.542053%, 93.989563%)" offset="0.613281"/><stop stop-opacity="1" stop-color="rgb(43.296814%, 66.76178%, 93.951416%)" offset="0.617188"/><stop stop-opacity="1" stop-color="rgb(43.222046%, 66.97998%, 93.911743%)" offset="0.621094"/><stop stop-opacity="1" stop-color="rgb(43.148804%, 67.199707%, 93.873596%)" offset="0.625"/><stop stop-opacity="1" stop-color="rgb(43.075562%, 67.417908%, 93.835449%)" offset="0.628906"/><stop stop-opacity="1" stop-color="rgb(43.002319%, 67.636108%, 93.797302%)" offset="0.632812"/><stop stop-opacity="1" stop-color="rgb(42.929077%, 67.854309%, 93.759155%)" offset="0.636719"/><stop stop-opacity="1" stop-color="rgb(42.855835%, 68.074036%, 93.721008%)" offset="0.640625"/><stop stop-opacity="1" stop-color="rgb(42.782593%, 68.292236%, 93.682861%)" offset="0.644531"/><stop stop-opacity="1" stop-color="rgb(42.709351%, 68.511963%, 93.644714%)" offset="0.648438"/><stop stop-opacity="1" stop-color="rgb(42.634583%, 68.730164%, 93.606567%)" offset="0.652344"/><stop stop-opacity="1" stop-color="rgb(42.56134%, 68.94989%, 93.56842%)" offset="0.65625"/><stop stop-opacity="1" stop-color="rgb(42.488098%, 69.168091%, 93.530273%)" offset="0.660156"/><stop stop-opacity="1" stop-color="rgb(42.414856%, 69.386292%, 93.492126%)" offset="0.664063"/><stop stop-opacity="1" stop-color="rgb(42.341614%, 69.604492%, 93.452454%)" offset="0.667969"/><stop stop-opacity="1" stop-color="rgb(42.268372%, 69.824219%, 93.414307%)" offset="0.671875"/><stop stop-opacity="1" stop-color="rgb(42.193604%, 70.042419%, 93.37616%)" offset="0.675781"/><stop stop-opacity="1" stop-color="rgb(42.120361%, 70.262146%, 93.338013%)" offset="0.679688"/><stop stop-opacity="1" stop-color="rgb(42.047119%, 70.480347%, 93.299866%)" offset="0.683594"/><stop stop-opacity="1" stop-color="rgb(41.973877%, 70.698547%, 93.261719%)" offset="0.6875"/><stop stop-opacity="1" stop-color="rgb(41.900635%, 70.916748%, 93.223572%)" offset="0.691406"/><stop stop-opacity="1" stop-color="rgb(41.827393%, 71.136475%, 93.185425%)" offset="0.695313"/><stop stop-opacity="1" stop-color="rgb(41.75415%, 71.354675%, 93.147278%)" offset="0.699219"/><stop stop-opacity="1" stop-color="rgb(41.680908%, 71.574402%, 93.109131%)" offset="0.703125"/><stop stop-opacity="1" stop-color="rgb(41.60614%, 71.792603%, 93.069458%)" offset="0.707031"/><stop stop-opacity="1" stop-color="rgb(41.532898%, 72.012329%, 93.031311%)" offset="0.710938"/><stop stop-opacity="1" stop-color="rgb(41.459656%, 72.23053%, 92.993164%)" offset="0.714844"/><stop stop-opacity="1" stop-color="rgb(41.386414%, 72.44873%, 92.955017%)" offset="0.71875"/><stop stop-opacity="1" stop-color="rgb(41.313171%, 72.666931%, 92.91687%)" offset="0.722656"/><stop stop-opacity="1" stop-color="rgb(41.239929%, 72.886658%, 92.878723%)" offset="0.726562"/><stop stop-opacity="1" stop-color="rgb(41.166687%, 73.104858%, 92.840576%)" offset="0.730469"/><stop stop-opacity="1" stop-color="rgb(41.093445%, 73.324585%, 92.802429%)" offset="0.734375"/><stop stop-opacity="1" stop-color="rgb(41.018677%, 73.542786%, 92.764282%)" offset="0.738281"/><stop stop-opacity="1" stop-color="rgb(40.945435%, 73.760986%, 92.726135%)" offset="0.742188"/><stop stop-opacity="1" stop-color="rgb(40.872192%, 73.979187%, 92.687988%)" offset="0.746094"/><stop stop-opacity="1" stop-color="rgb(40.79895%, 74.198914%, 92.649841%)" offset="0.75"/><stop stop-opacity="1" stop-color="rgb(40.725708%, 74.417114%, 92.610168%)" offset="0.753906"/><stop stop-opacity="1" stop-color="rgb(40.652466%, 74.636841%, 92.572021%)" offset="0.757812"/><stop stop-opacity="1" stop-color="rgb(40.579224%, 74.855042%, 92.533875%)" offset="0.761719"/><stop stop-opacity="1" stop-color="rgb(40.505981%, 75.074768%, 92.495728%)" offset="0.765625"/><stop stop-opacity="1" stop-color="rgb(40.431213%, 75.292969%, 92.457581%)" offset="0.769531"/><stop stop-opacity="1" stop-color="rgb(40.357971%, 75.511169%, 92.419434%)" offset="0.773438"/><stop stop-opacity="1" stop-color="rgb(40.284729%, 75.72937%, 92.381287%)" offset="0.777344"/><stop stop-opacity="1" stop-color="rgb(40.211487%, 75.949097%, 92.34314%)" offset="0.78125"/><stop stop-opacity="1" stop-color="rgb(40.138245%, 76.167297%, 92.304993%)" offset="0.785156"/><stop stop-opacity="1" stop-color="rgb(40.065002%, 76.387024%, 92.266846%)" offset="0.789062"/><stop stop-opacity="1" stop-color="rgb(39.99176%, 76.605225%, 92.228699%)" offset="0.792969"/><stop stop-opacity="1" stop-color="rgb(39.918518%, 76.824951%, 92.190552%)" offset="0.796875"/><stop stop-opacity="1" stop-color="rgb(39.84375%, 77.043152%, 92.150879%)" offset="0.800781"/><stop stop-opacity="1" stop-color="rgb(39.770508%, 77.261353%, 92.112732%)" offset="0.804688"/><stop stop-opacity="1" stop-color="rgb(39.697266%, 77.479553%, 92.074585%)" offset="0.808594"/><stop stop-opacity="1" stop-color="rgb(39.624023%, 77.69928%, 92.036438%)" offset="0.8125"/><stop stop-opacity="1" stop-color="rgb(39.550781%, 77.91748%, 91.998291%)" offset="0.816406"/><stop stop-opacity="1" stop-color="rgb(39.477539%, 78.137207%, 91.960144%)" offset="0.820313"/><stop stop-opacity="1" stop-color="rgb(39.404297%, 78.355408%, 91.921997%)" offset="0.824219"/><stop stop-opacity="1" stop-color="rgb(39.331055%, 78.573608%, 91.88385%)" offset="0.828125"/><stop stop-opacity="1" stop-color="rgb(39.256287%, 78.791809%, 91.845703%)" offset="0.832031"/><stop stop-opacity="1" stop-color="rgb(39.183044%, 79.011536%, 91.807556%)" offset="0.835938"/><stop stop-opacity="1" stop-color="rgb(39.109802%, 79.229736%, 91.767883%)" offset="0.839844"/><stop stop-opacity="1" stop-color="rgb(39.03656%, 79.449463%, 91.729736%)" offset="0.84375"/><stop stop-opacity="1" stop-color="rgb(38.963318%, 79.667664%, 91.691589%)" offset="0.847656"/><stop stop-opacity="1" stop-color="rgb(38.890076%, 79.88739%, 91.653442%)" offset="0.851562"/><stop stop-opacity="1" stop-color="rgb(38.816833%, 80.105591%, 91.615295%)" offset="0.855469"/><stop stop-opacity="1" stop-color="rgb(38.743591%, 80.323792%, 91.577148%)" offset="0.859375"/><stop stop-opacity="1" stop-color="rgb(38.668823%, 80.541992%, 91.539001%)" offset="0.863281"/><stop stop-opacity="1" stop-color="rgb(38.595581%, 80.761719%, 91.500854%)" offset="0.867188"/><stop stop-opacity="1" stop-color="rgb(38.522339%, 80.979919%, 91.462708%)" offset="0.871094"/><stop stop-opacity="1" stop-color="rgb(38.449097%, 81.199646%, 91.424561%)" offset="0.875"/><stop stop-opacity="1" stop-color="rgb(38.375854%, 81.417847%, 91.386414%)" offset="0.878906"/><stop stop-opacity="1" stop-color="rgb(38.302612%, 81.636047%, 91.348267%)" offset="0.882812"/><stop stop-opacity="1" stop-color="rgb(38.22937%, 81.854248%, 91.308594%)" offset="0.886719"/><stop stop-opacity="1" stop-color="rgb(38.156128%, 82.073975%, 91.270447%)" offset="0.890625"/><stop stop-opacity="1" stop-color="rgb(38.08136%, 82.292175%, 91.2323%)" offset="0.894531"/><stop stop-opacity="1" stop-color="rgb(38.008118%, 82.511902%, 91.194153%)" offset="0.898438"/><stop stop-opacity="1" stop-color="rgb(37.934875%, 82.730103%, 91.156006%)" offset="0.902344"/><stop stop-opacity="1" stop-color="rgb(37.861633%, 82.949829%, 91.117859%)" offset="0.90625"/><stop stop-opacity="1" stop-color="rgb(37.788391%, 83.16803%, 91.079712%)" offset="0.910156"/><stop stop-opacity="1" stop-color="rgb(37.715149%, 83.38623%, 91.041565%)" offset="0.914062"/><stop stop-opacity="1" stop-color="rgb(37.641907%, 83.604431%, 91.003418%)" offset="0.917969"/><stop stop-opacity="1" stop-color="rgb(37.568665%, 83.824158%, 90.965271%)" offset="0.921875"/><stop stop-opacity="1" stop-color="rgb(37.493896%, 84.042358%, 90.927124%)" offset="0.925781"/><stop stop-opacity="1" stop-color="rgb(37.420654%, 84.262085%, 90.888977%)" offset="0.929688"/><stop stop-opacity="1" stop-color="rgb(37.347412%, 84.480286%, 90.849304%)" offset="0.933594"/><stop stop-opacity="1" stop-color="rgb(37.27417%, 84.698486%, 90.811157%)" offset="0.9375"/><stop stop-opacity="1" stop-color="rgb(37.200928%, 84.916687%, 90.77301%)" offset="0.941406"/><stop stop-opacity="1" stop-color="rgb(37.127686%, 85.136414%, 90.734863%)" offset="0.945312"/><stop stop-opacity="1" stop-color="rgb(37.054443%, 85.354614%, 90.696716%)" offset="0.949219"/><stop stop-opacity="1" stop-color="rgb(36.981201%, 85.574341%, 90.658569%)" offset="0.953125"/><stop stop-opacity="1" stop-color="rgb(36.906433%, 85.792542%, 90.620422%)" offset="0.957031"/><stop stop-opacity="1" stop-color="rgb(36.833191%, 86.012268%, 90.582275%)" offset="0.960938"/><stop stop-opacity="1" stop-color="rgb(36.759949%, 86.230469%, 90.544128%)" offset="0.964844"/><stop stop-opacity="1" stop-color="rgb(36.686707%, 86.448669%, 90.505981%)" offset="0.96875"/><stop stop-opacity="1" stop-color="rgb(36.613464%, 86.66687%, 90.467834%)" offset="0.972656"/><stop stop-opacity="1" stop-color="rgb(36.540222%, 86.886597%, 90.429688%)" offset="0.976562"/><stop stop-opacity="1" stop-color="rgb(36.46698%, 87.104797%, 90.390015%)" offset="0.980469"/><stop stop-opacity="1" stop-color="rgb(36.393738%, 87.324524%, 90.351868%)" offset="0.984375"/><stop stop-opacity="1" stop-color="rgb(36.31897%, 87.542725%, 90.313721%)" offset="0.988281"/><stop stop-opacity="1" stop-color="rgb(36.245728%, 87.762451%, 90.275574%)" offset="0.992188"/><stop stop-opacity="1" stop-color="rgb(36.172485%, 87.980652%, 90.237427%)" offset="0.996094"/><stop stop-opacity="1" stop-color="rgb(36.099243%, 88.198853%, 90.19928%)" offset="1"/></linearGradient><clipPath id="6798ec936c"><path d="M 233 62.207031 L 250 62.207031 L 250 89 L 233 89 Z M 233 62.207031 " clip-rule="nonzero"/></clipPath><clipPath id="282c9c3f15"><path d="M 286 124 L 312.703125 124 L 312.703125 142 L 286 142 Z M 286 124 " clip-rule="nonzero"/></clipPath><clipPath id="44a71a9f72"><path d="M 83.203125 260 L 115 260 L 115 291.707031 L 83.203125 291.707031 Z M 83.203125 260 " clip-rule="nonzero"/></clipPath></defs><g clip-path="url(#83c015a720)"><rect x="-37.5" fill="url(#6c151386a5)" width="450" y="-37.499999" height="449.999989"/></g><path fill="#000000" d="M 187.539062 375 C 137.476562 375 90.332031 355.5 54.917969 320.082031 C 19.5 284.667969 0 237.597656 0 187.539062 C 0 137.476562 19.5 90.332031 54.917969 54.917969 C 90.332031 19.5 137.402344 0 187.539062 0 C 237.671875 0 284.667969 19.5 320.082031 54.917969 C 355.5 90.332031 375 137.402344 375 187.539062 C 375 237.671875 355.5 284.667969 320.082031 320.082031 C 284.667969 355.5 237.597656 375 187.539062 375 Z M 187.539062 11.207031 C 140.464844 11.207031 96.160156 29.511719 62.835938 62.835938 C 29.511719 96.160156 11.207031 140.390625 11.207031 187.539062 C 11.207031 234.683594 29.511719 278.914062 62.835938 312.238281 C 96.160156 345.5625 140.390625 363.867188 187.539062 363.867188 C 234.683594 363.867188 278.914062 345.5625 312.238281 312.238281 C 345.5625 278.914062 363.867188 234.683594 363.867188 187.539062 C 363.867188 140.390625 345.5625 96.160156 312.238281 62.835938 C 278.839844 29.511719 234.609375 11.207031 187.539062 11.207031 Z M 187.539062 11.207031 " fill-opacity="1" fill-rule="nonzero"/><path fill="#000000" d="M 183.800781 351.613281 L 183.351562 351.613281 C 181.710938 351.539062 180.4375 350.195312 180.515625 348.625 C 180.589844 347.054688 181.859375 345.785156 183.429688 345.785156 C 183.429688 345.785156 183.503906 345.785156 183.503906 345.785156 L 183.875 345.785156 C 185.519531 345.859375 186.789062 347.207031 186.714844 348.773438 C 186.714844 350.34375 185.445312 351.613281 183.800781 351.613281 Z M 198.59375 351.242188 C 197.027344 351.242188 195.757812 350.042969 195.679688 348.476562 C 195.605469 346.832031 196.800781 345.488281 198.445312 345.335938 L 198.746094 345.335938 C 200.386719 345.1875 201.808594 346.457031 201.882812 348.027344 C 202.03125 349.671875 200.761719 351.089844 199.191406 351.164062 L 198.820312 351.164062 C 198.671875 351.242188 198.59375 351.242188 198.59375 351.242188 Z M 168.785156 350.566406 C 168.707031 350.566406 168.558594 350.566406 168.410156 350.566406 L 168.035156 350.492188 C 166.394531 350.269531 165.273438 348.847656 165.496094 347.207031 C 165.71875 345.5625 167.140625 344.441406 168.785156 344.664062 L 169.15625 344.738281 C 170.800781 344.890625 171.921875 346.382812 171.773438 348.027344 C 171.472656 349.445312 170.203125 350.566406 168.785156 350.566406 Z M 213.539062 349.523438 C 212.117188 349.523438 210.847656 348.476562 210.625 347.054688 C 210.324219 345.488281 211.445312 343.917969 213.089844 343.695312 L 213.464844 343.621094 C 215.03125 343.394531 216.601562 344.441406 216.824219 346.085938 C 217.050781 347.730469 216.003906 349.222656 214.359375 349.445312 L 213.988281 349.523438 C 213.914062 349.523438 213.761719 349.523438 213.539062 349.523438 Z M 153.839844 348.101562 C 153.617188 348.101562 153.46875 348.101562 153.242188 348.027344 L 152.867188 347.953125 C 151.300781 347.578125 150.253906 346.011719 150.628906 344.441406 C 151 342.871094 152.570312 341.824219 154.140625 342.199219 L 154.511719 342.273438 C 156.082031 342.648438 157.128906 344.140625 156.753906 345.785156 C 156.457031 347.207031 155.183594 348.101562 153.839844 348.101562 Z M 228.332031 346.457031 C 226.988281 346.457031 225.792969 345.5625 225.492188 344.21875 C 225.121094 342.648438 226.015625 341.003906 227.660156 340.628906 L 227.957031 340.554688 C 229.527344 340.109375 231.171875 341.078125 231.546875 342.648438 C 231.992188 344.21875 231.023438 345.859375 229.453125 346.234375 L 229.078125 346.308594 C 228.855469 346.382812 228.554688 346.457031 228.332031 346.457031 Z M 139.269531 344.292969 C 138.972656 344.292969 138.671875 344.21875 138.375 344.140625 L 138.074219 344.066406 C 136.507812 343.542969 135.609375 341.902344 136.132812 340.332031 C 136.65625 338.761719 138.226562 337.941406 139.792969 338.390625 L 140.167969 338.464844 C 141.738281 338.910156 142.558594 340.628906 142.109375 342.125 C 141.660156 343.46875 140.464844 344.292969 139.269531 344.292969 Z M 242.753906 341.902344 C 241.558594 341.902344 240.4375 341.152344 239.988281 339.957031 C 239.464844 338.464844 240.210938 336.746094 241.78125 336.222656 L 242.078125 336.074219 C 243.574219 335.550781 245.292969 336.296875 245.890625 337.792969 C 246.414062 339.285156 245.667969 341.003906 244.171875 341.601562 L 243.796875 341.75 C 243.425781 341.902344 243.125 341.902344 242.753906 341.902344 Z M 125.074219 339.136719 C 124.699219 339.136719 124.328125 339.0625 123.953125 338.914062 L 123.582031 338.761719 C 122.085938 338.089844 121.414062 336.371094 122.011719 334.878906 C 122.683594 333.382812 124.402344 332.710938 125.898438 333.308594 L 126.195312 333.457031 C 127.691406 334.054688 128.4375 335.773438 127.765625 337.34375 C 127.316406 338.390625 126.195312 339.136719 125.074219 339.136719 Z M 256.722656 336.074219 C 255.605469 336.074219 254.558594 335.476562 254.109375 334.429688 C 253.4375 332.933594 254.035156 331.214844 255.453125 330.46875 L 255.828125 330.320312 C 257.320312 329.648438 259.039062 330.246094 259.789062 331.738281 C 260.460938 333.234375 259.863281 334.953125 258.367188 335.625 L 258.070312 335.773438 C 257.546875 336 257.097656 336.074219 256.722656 336.074219 Z M 111.402344 332.5625 C 110.953125 332.5625 110.429688 332.410156 109.980469 332.1875 L 109.683594 332.039062 C 108.261719 331.292969 107.742188 329.496094 108.488281 328.078125 C 109.234375 326.660156 111.027344 326.136719 112.449219 326.882812 L 112.746094 327.03125 C 114.167969 327.78125 114.6875 329.574219 113.941406 330.992188 C 113.492188 332.039062 112.449219 332.5625 111.402344 332.5625 Z M 270.023438 328.976562 C 269.050781 328.976562 268.082031 328.453125 267.484375 327.554688 C 266.660156 326.136719 267.109375 324.34375 268.453125 323.519531 L 268.753906 323.296875 C 270.171875 322.472656 271.964844 322.921875 272.789062 324.34375 C 273.609375 325.761719 273.160156 327.554688 271.742188 328.378906 L 271.445312 328.527344 C 271.070312 328.824219 270.546875 328.976562 270.023438 328.976562 Z M 98.402344 324.789062 C 97.878906 324.789062 97.28125 324.640625 96.757812 324.269531 L 96.457031 324.042969 C 95.113281 323.148438 94.738281 321.355469 95.636719 319.933594 C 96.53125 318.589844 98.328125 318.214844 99.746094 319.113281 L 100.042969 319.335938 C 101.390625 320.234375 101.761719 322.027344 100.867188 323.445312 C 100.34375 324.34375 99.371094 324.789062 98.402344 324.789062 Z M 282.652344 320.605469 C 281.753906 320.605469 280.859375 320.160156 280.261719 319.410156 C 279.289062 318.140625 279.585938 316.273438 280.859375 315.300781 L 281.15625 315.078125 C 282.5 314.105469 284.292969 314.40625 285.265625 315.675781 C 286.238281 317.019531 285.9375 318.8125 284.667969 319.785156 L 284.371094 320.007812 C 283.847656 320.457031 283.25 320.605469 282.652344 320.605469 Z M 86.222656 315.898438 C 85.550781 315.898438 84.878906 315.675781 84.355469 315.226562 L 84.054688 315.003906 C 82.785156 313.957031 82.5625 312.164062 83.605469 310.894531 C 84.652344 309.625 86.445312 309.398438 87.714844 310.445312 L 88.015625 310.667969 C 89.285156 311.714844 89.433594 313.582031 88.464844 314.777344 C 87.941406 315.527344 87.117188 315.898438 86.222656 315.898438 Z M 294.382812 311.117188 C 293.558594 311.117188 292.738281 310.820312 292.214844 310.144531 C 291.167969 308.949219 291.242188 307.082031 292.4375 306.035156 L 292.738281 305.8125 C 293.933594 304.691406 295.800781 304.839844 296.921875 306.035156 C 298.042969 307.234375 297.894531 309.101562 296.699219 310.222656 L 296.472656 310.445312 C 295.800781 310.894531 295.054688 311.117188 294.382812 311.117188 Z M 74.941406 305.8125 C 74.191406 305.8125 73.445312 305.515625 72.921875 304.992188 L 72.625 304.691406 C 71.429688 303.570312 71.429688 301.703125 72.625 300.507812 C 73.746094 299.3125 75.613281 299.3125 76.808594 300.507812 L 77.03125 300.730469 C 78.226562 301.851562 78.226562 303.722656 77.105469 304.917969 C 76.507812 305.589844 75.6875 305.8125 74.941406 305.8125 Z M 305.214844 300.582031 C 304.46875 300.582031 303.796875 300.359375 303.199219 299.761719 C 302.003906 298.640625 301.925781 296.773438 303.046875 295.578125 L 303.273438 295.277344 C 304.394531 294.082031 306.261719 294.007812 307.457031 295.128906 C 308.652344 296.25 308.726562 298.117188 307.605469 299.3125 L 307.382812 299.535156 C 306.785156 300.285156 305.960938 300.582031 305.214844 300.582031 Z M 64.628906 294.828125 C 63.808594 294.828125 62.984375 294.457031 62.386719 293.785156 L 62.164062 293.484375 C 61.117188 292.214844 61.265625 290.421875 62.539062 289.300781 C 63.808594 288.253906 65.601562 288.402344 66.722656 289.675781 L 66.945312 289.972656 C 67.992188 291.242188 67.84375 293.035156 66.570312 294.15625 C 65.972656 294.605469 65.300781 294.828125 64.628906 294.828125 Z M 315.003906 289.078125 C 314.40625 289.078125 313.734375 288.851562 313.210938 288.480469 C 311.941406 287.507812 311.640625 285.640625 312.6875 284.371094 L 312.910156 284.070312 C 313.882812 282.800781 315.75 282.578125 317.019531 283.546875 C 318.289062 284.519531 318.515625 286.386719 317.542969 287.65625 L 317.320312 287.957031 C 316.796875 288.703125 315.898438 289.078125 315.003906 289.078125 Z M 55.4375 282.875 C 54.542969 282.875 53.570312 282.425781 53.046875 281.605469 L 52.824219 281.304688 C 51.925781 279.960938 52.226562 278.167969 53.570312 277.195312 C 54.917969 276.300781 56.710938 276.597656 57.679688 277.945312 L 57.90625 278.242188 C 58.800781 279.585938 58.503906 281.378906 57.15625 282.351562 C 56.558594 282.652344 55.960938 282.875 55.4375 282.875 Z M 323.671875 276.75 C 323.148438 276.75 322.625 276.597656 322.101562 276.300781 C 320.757812 275.402344 320.308594 273.609375 321.203125 272.265625 L 321.429688 271.964844 C 322.324219 270.621094 324.117188 270.171875 325.464844 271.070312 C 326.808594 271.964844 327.257812 273.757812 326.359375 275.105469 L 326.136719 275.402344 C 325.613281 276.226562 324.640625 276.75 323.671875 276.75 Z M 47.296875 270.097656 C 46.25 270.097656 45.277344 269.574219 44.753906 268.605469 L 44.605469 268.304688 C 43.785156 266.886719 44.304688 265.09375 45.726562 264.269531 C 47.144531 263.449219 48.9375 263.972656 49.761719 265.390625 L 49.910156 265.691406 C 50.730469 267.109375 50.210938 268.902344 48.789062 269.726562 C 48.339844 269.949219 47.816406 270.097656 47.296875 270.097656 Z M 331.214844 263.597656 C 330.769531 263.597656 330.320312 263.523438 329.871094 263.300781 C 328.453125 262.550781 327.855469 260.757812 328.601562 259.339844 L 328.75 259.039062 C 329.496094 257.621094 331.292969 257.023438 332.710938 257.769531 C 334.128906 258.519531 334.726562 260.3125 333.980469 261.730469 L 333.832031 262.027344 C 333.308594 263 332.261719 263.597656 331.214844 263.597656 Z M 40.496094 256.648438 C 39.375 256.648438 38.328125 255.976562 37.804688 254.929688 L 37.65625 254.632812 C 36.984375 253.136719 37.65625 251.417969 39.152344 250.746094 C 40.644531 250.074219 42.363281 250.746094 43.035156 252.242188 L 43.1875 252.539062 C 43.859375 254.035156 43.1875 255.753906 41.691406 256.425781 C 41.316406 256.574219 40.871094 256.648438 40.496094 256.648438 Z M 337.417969 249.851562 C 337.042969 249.851562 336.671875 249.777344 336.371094 249.625 C 334.878906 249.027344 334.128906 247.308594 334.726562 245.816406 L 334.878906 245.441406 C 335.476562 243.949219 337.195312 243.199219 338.6875 243.796875 C 340.183594 244.394531 340.929688 246.113281 340.332031 247.609375 L 340.183594 247.984375 C 339.660156 249.101562 338.613281 249.851562 337.417969 249.851562 Z M 34.890625 242.601562 C 33.695312 242.601562 32.5 241.855469 32.128906 240.585938 L 31.976562 240.210938 C 31.457031 238.644531 32.277344 237 33.847656 236.476562 C 35.414062 235.953125 37.058594 236.773438 37.582031 238.34375 L 37.730469 238.71875 C 38.253906 240.285156 37.433594 241.929688 35.9375 242.453125 C 35.566406 242.527344 35.265625 242.601562 34.890625 242.601562 Z M 342.347656 235.578125 C 342.050781 235.578125 341.824219 235.503906 341.527344 235.429688 C 339.957031 234.980469 339.0625 233.339844 339.511719 231.769531 L 339.585938 231.394531 C 340.03125 229.828125 341.675781 228.929688 343.246094 229.378906 C 344.816406 229.828125 345.710938 231.46875 345.261719 233.039062 L 345.1875 233.414062 C 344.738281 234.683594 343.621094 235.578125 342.347656 235.578125 Z M 30.707031 228.035156 C 29.363281 228.035156 28.167969 227.136719 27.867188 225.792969 L 27.792969 225.417969 C 27.421875 223.847656 28.390625 222.28125 29.960938 221.90625 C 31.53125 221.53125 33.097656 222.503906 33.472656 224.074219 L 33.546875 224.445312 C 33.921875 226.015625 32.949219 227.585938 31.378906 227.957031 C 31.15625 228.035156 30.933594 228.035156 30.707031 228.035156 Z M 345.859375 220.859375 C 345.710938 220.859375 345.488281 220.859375 345.261719 220.785156 C 343.695312 220.488281 342.648438 218.917969 342.945312 217.347656 L 343.023438 216.976562 C 343.320312 215.40625 344.890625 214.359375 346.457031 214.660156 C 348.027344 214.957031 349.074219 216.527344 348.773438 218.097656 L 348.699219 218.46875 C 348.476562 219.890625 347.207031 220.859375 345.859375 220.859375 Z M 27.867188 213.238281 C 26.449219 213.238281 25.179688 212.195312 24.957031 210.699219 L 24.878906 210.324219 C 24.65625 208.683594 25.777344 207.261719 27.421875 207.039062 C 29.066406 206.8125 30.484375 207.933594 30.707031 209.578125 L 30.78125 209.953125 C 31.007812 211.597656 29.886719 213.015625 28.316406 213.3125 C 28.167969 213.238281 28.019531 213.238281 27.867188 213.238281 Z M 347.953125 205.917969 C 347.878906 205.917969 347.730469 205.917969 347.652344 205.917969 C 346.011719 205.769531 344.816406 204.347656 345.039062 202.703125 L 345.039062 202.332031 C 345.1875 200.6875 346.609375 199.492188 348.25 199.714844 C 349.894531 199.867188 351.089844 201.285156 350.867188 202.929688 L 350.867188 203.300781 C 350.792969 204.796875 349.445312 205.917969 347.953125 205.917969 Z M 26.523438 198.222656 C 24.957031 198.222656 23.683594 197.027344 23.609375 195.382812 L 23.609375 195.007812 C 23.535156 193.363281 24.804688 192.019531 26.375 191.945312 C 28.019531 191.871094 29.363281 193.140625 29.4375 194.710938 L 29.4375 195.082031 C 29.511719 196.726562 28.242188 198.074219 26.671875 198.148438 C 26.597656 198.222656 26.523438 198.222656 26.523438 198.222656 Z M 348.699219 190.453125 C 347.054688 190.453125 345.636719 189.480469 345.636719 187.835938 L 345.636719 187.539062 C 345.636719 187.539062 345.636719 187.460938 345.636719 187.460938 L 345.636719 187.089844 C 345.636719 185.445312 346.980469 184.175781 348.625 184.175781 C 350.269531 184.175781 351.613281 185.519531 351.613281 187.089844 L 351.613281 187.386719 C 351.613281 187.386719 351.613281 187.460938 351.613281 187.460938 L 351.613281 187.835938 C 351.613281 189.480469 350.34375 190.453125 348.699219 190.453125 Z M 26.449219 183.054688 C 26.375 183.054688 26.375 183.054688 26.300781 183.054688 C 24.65625 182.980469 23.386719 181.636719 23.460938 179.992188 L 23.460938 179.617188 C 23.535156 177.972656 24.957031 176.777344 26.523438 176.851562 C 28.167969 176.925781 29.4375 178.273438 29.289062 179.917969 L 29.289062 180.289062 C 29.363281 181.859375 28.019531 183.054688 26.449219 183.054688 Z M 348.027344 175.359375 C 346.53125 175.359375 345.261719 174.238281 345.113281 172.667969 L 345.113281 172.296875 C 344.964844 170.652344 346.160156 169.230469 347.730469 169.082031 C 349.371094 168.933594 350.792969 170.128906 350.941406 171.699219 L 350.941406 172.070312 C 351.089844 173.714844 349.894531 175.132812 348.25 175.285156 C 348.175781 175.359375 348.101562 175.359375 348.027344 175.359375 Z M 27.867188 168.035156 C 27.71875 168.035156 27.570312 168.035156 27.496094 168.035156 C 25.851562 167.8125 24.730469 166.316406 24.957031 164.75 L 25.03125 164.375 C 25.253906 162.730469 26.75 161.609375 28.390625 161.910156 C 30.035156 162.132812 31.15625 163.628906 30.859375 165.273438 L 30.78125 165.644531 C 30.558594 166.992188 29.289062 168.035156 27.867188 168.035156 Z M 345.933594 160.414062 C 344.515625 160.414062 343.320312 159.445312 343.023438 158.023438 L 342.945312 157.652344 C 342.648438 156.082031 343.695312 154.511719 345.261719 154.214844 C 346.832031 153.914062 348.402344 154.960938 348.699219 156.53125 L 348.773438 156.902344 C 349.074219 158.472656 348.027344 160.042969 346.457031 160.339844 C 346.234375 160.414062 346.085938 160.414062 345.933594 160.414062 Z M 30.632812 153.167969 C 30.410156 153.167969 30.183594 153.167969 29.960938 153.09375 C 28.390625 152.71875 27.421875 151.152344 27.792969 149.582031 L 27.867188 149.207031 C 28.242188 147.640625 29.8125 146.667969 31.378906 147.042969 C 32.949219 147.414062 33.921875 148.984375 33.546875 150.554688 L 33.472656 150.925781 C 33.175781 152.269531 31.976562 153.167969 30.632812 153.167969 Z M 342.421875 145.695312 C 341.152344 145.695312 339.957031 144.875 339.585938 143.53125 L 339.511719 143.15625 C 339.0625 141.585938 339.957031 139.941406 341.527344 139.496094 C 343.097656 139.046875 344.738281 139.941406 345.1875 141.511719 L 345.261719 141.886719 C 345.710938 143.453125 344.816406 145.097656 343.246094 145.546875 C 342.945312 145.695312 342.648438 145.695312 342.421875 145.695312 Z M 34.816406 138.671875 C 34.519531 138.671875 34.21875 138.597656 33.847656 138.523438 C 32.277344 138 31.457031 136.355469 31.976562 134.789062 L 32.128906 134.488281 C 32.652344 132.917969 34.371094 132.097656 35.863281 132.621094 C 37.433594 133.144531 38.253906 134.789062 37.730469 136.355469 L 37.582031 136.730469 C 37.207031 137.925781 36.011719 138.671875 34.816406 138.671875 Z M 337.566406 131.425781 C 336.371094 131.425781 335.25 130.679688 334.800781 129.558594 L 334.652344 129.257812 C 334.054688 127.765625 334.800781 126.046875 336.296875 125.449219 C 337.792969 124.851562 339.511719 125.597656 340.109375 127.09375 L 340.257812 127.464844 C 340.855469 128.960938 340.109375 130.679688 338.613281 131.277344 C 338.238281 131.351562 337.941406 131.425781 337.566406 131.425781 Z M 40.347656 124.625 C 39.972656 124.625 39.523438 124.550781 39.152344 124.402344 C 37.65625 123.730469 36.984375 122.011719 37.65625 120.515625 L 37.804688 120.144531 C 38.480469 118.648438 40.195312 117.976562 41.691406 118.648438 C 43.1875 119.320312 43.859375 121.039062 43.1875 122.535156 L 43.035156 122.832031 C 42.511719 123.953125 41.46875 124.625 40.347656 124.625 Z M 331.367188 117.601562 C 330.320312 117.601562 329.273438 117.003906 328.75 115.960938 L 328.601562 115.660156 C 327.855469 114.242188 328.453125 112.449219 329.871094 111.699219 C 331.292969 110.953125 333.085938 111.550781 333.832031 112.96875 L 333.980469 113.269531 C 334.726562 114.6875 334.128906 116.480469 332.710938 117.230469 C 332.261719 117.527344 331.8125 117.601562 331.367188 117.601562 Z M 47.144531 111.101562 C 46.621094 111.101562 46.175781 110.953125 45.726562 110.730469 C 44.304688 109.90625 43.785156 108.113281 44.605469 106.695312 L 44.753906 106.394531 C 45.578125 104.976562 47.371094 104.527344 48.789062 105.273438 C 50.210938 106.097656 50.65625 107.890625 49.910156 109.308594 L 49.761719 109.609375 C 49.164062 110.578125 48.191406 111.101562 47.144531 111.101562 Z M 323.894531 104.453125 C 322.921875 104.453125 321.953125 103.929688 321.429688 103.109375 L 321.277344 102.808594 C 320.382812 101.464844 320.832031 99.597656 322.175781 98.773438 C 323.519531 97.878906 325.386719 98.328125 326.210938 99.671875 L 326.433594 99.96875 C 327.332031 101.316406 326.882812 103.183594 325.539062 104.003906 C 324.941406 104.378906 324.417969 104.453125 323.894531 104.453125 Z M 55.214844 98.328125 C 54.617188 98.328125 54.019531 98.175781 53.570312 97.804688 C 52.226562 96.90625 51.925781 95.039062 52.824219 93.695312 L 53.046875 93.394531 C 53.945312 92.050781 55.8125 91.75 57.15625 92.648438 C 58.503906 93.621094 58.800781 95.414062 57.90625 96.757812 L 57.679688 97.054688 C 57.082031 97.878906 56.113281 98.328125 55.214844 98.328125 Z M 315.226562 92.125 C 314.332031 92.125 313.433594 91.75 312.910156 91.003906 L 312.6875 90.707031 C 311.714844 89.433594 311.941406 87.566406 313.210938 86.597656 C 314.480469 85.625 316.347656 85.847656 317.320312 87.117188 L 317.542969 87.417969 C 318.515625 88.6875 318.289062 90.554688 317.019531 91.527344 C 316.496094 91.902344 315.898438 92.125 315.226562 92.125 Z M 64.40625 86.371094 C 63.734375 86.371094 63.058594 86.148438 62.539062 85.699219 C 61.265625 84.652344 61.117188 82.785156 62.164062 81.589844 L 62.386719 81.292969 C 63.433594 80.019531 65.300781 79.945312 66.570312 80.992188 C 67.84375 82.039062 67.917969 83.90625 66.871094 85.175781 L 66.648438 85.476562 C 66.125 86 65.226562 86.371094 64.40625 86.371094 Z M 305.4375 80.617188 C 304.617188 80.617188 303.871094 80.320312 303.273438 79.648438 L 303.046875 79.421875 C 301.925781 78.226562 302.003906 76.359375 303.199219 75.238281 C 304.394531 74.117188 306.261719 74.191406 307.382812 75.386719 L 307.679688 75.6875 C 308.800781 76.882812 308.726562 78.75 307.53125 79.871094 C 306.933594 80.320312 306.1875 80.617188 305.4375 80.617188 Z M 74.714844 75.3125 C 73.96875 75.3125 73.222656 75.015625 72.625 74.417969 C 71.503906 73.222656 71.503906 71.429688 72.699219 70.234375 L 72.996094 69.933594 C 74.191406 68.8125 76.0625 68.8125 77.183594 70.007812 C 78.300781 71.203125 78.300781 73.074219 77.105469 74.191406 L 76.882812 74.417969 C 76.210938 75.015625 75.464844 75.3125 74.714844 75.3125 Z M 294.679688 70.007812 C 294.007812 70.007812 293.261719 69.785156 292.738281 69.261719 L 292.511719 69.039062 C 291.316406 67.992188 291.167969 66.125 292.289062 64.855469 C 293.335938 63.65625 295.203125 63.507812 296.472656 64.628906 L 296.773438 64.855469 C 297.96875 65.972656 298.117188 67.765625 296.996094 69.039062 C 296.25 69.710938 295.503906 70.007812 294.679688 70.007812 Z M 86 65.226562 C 85.175781 65.226562 84.28125 64.855469 83.683594 64.105469 C 82.636719 62.835938 82.859375 60.96875 84.128906 59.996094 L 84.429688 59.773438 C 85.699219 58.726562 87.566406 58.949219 88.539062 60.222656 C 89.585938 61.492188 89.359375 63.359375 88.089844 64.332031 L 87.792969 64.554688 C 87.269531 65.003906 86.671875 65.226562 86 65.226562 Z M 282.949219 60.519531 C 282.351562 60.519531 281.753906 60.371094 281.230469 59.921875 L 280.933594 59.699219 C 279.585938 58.726562 279.363281 56.933594 280.261719 55.589844 C 281.230469 54.242188 283.097656 54.019531 284.371094 54.917969 L 284.667969 55.140625 C 286.011719 56.113281 286.238281 57.980469 285.265625 59.25 C 284.742188 60.070312 283.847656 60.519531 282.949219 60.519531 Z M 98.175781 56.261719 C 97.207031 56.261719 96.308594 55.8125 95.710938 54.917969 C 94.816406 53.570312 95.1875 51.703125 96.53125 50.808594 L 96.832031 50.582031 C 98.175781 49.6875 100.042969 50.058594 100.941406 51.40625 C 101.839844 52.75 101.464844 54.617188 100.121094 55.515625 L 99.820312 55.738281 C 99.296875 56.113281 98.699219 56.261719 98.175781 56.261719 Z M 270.324219 52.152344 C 269.800781 52.152344 269.277344 52.003906 268.828125 51.703125 L 268.53125 51.480469 C 267.109375 50.65625 266.660156 48.863281 267.484375 47.445312 C 268.304688 46.023438 270.097656 45.578125 271.519531 46.398438 L 271.816406 46.621094 C 273.238281 47.445312 273.683594 49.238281 272.863281 50.65625 C 272.339844 51.628906 271.367188 52.152344 270.324219 52.152344 Z M 111.101562 48.492188 C 110.058594 48.492188 109.011719 47.894531 108.488281 46.921875 C 107.742188 45.503906 108.261719 43.707031 109.683594 42.960938 L 109.980469 42.8125 C 111.402344 42.066406 113.195312 42.589844 113.941406 44.007812 C 114.6875 45.425781 114.167969 47.21875 112.746094 47.96875 L 112.449219 48.117188 C 112.074219 48.339844 111.550781 48.492188 111.101562 48.492188 Z M 257.023438 44.980469 C 256.574219 44.980469 256.203125 44.90625 255.753906 44.679688 L 255.453125 44.53125 C 253.960938 43.859375 253.363281 42.066406 254.035156 40.570312 C 254.707031 39.078125 256.5 38.480469 257.996094 39.152344 L 258.292969 39.300781 C 259.789062 39.972656 260.386719 41.765625 259.714844 43.261719 C 259.191406 44.382812 258.144531 44.980469 257.023438 44.980469 Z M 124.699219 41.914062 C 123.582031 41.914062 122.460938 41.242188 122.011719 40.121094 C 121.414062 38.628906 122.085938 36.910156 123.582031 36.238281 L 123.953125 36.085938 C 125.449219 35.488281 127.167969 36.164062 127.839844 37.65625 C 128.4375 39.152344 127.765625 40.871094 126.269531 41.542969 L 125.972656 41.691406 C 125.449219 41.839844 125.074219 41.914062 124.699219 41.914062 Z M 243.125 39.078125 C 242.828125 39.078125 242.453125 39 242.15625 38.925781 L 241.78125 38.777344 C 240.285156 38.253906 239.464844 36.535156 240.0625 34.96875 C 240.585938 33.472656 242.304688 32.652344 243.875 33.25 L 244.246094 33.398438 C 245.742188 33.921875 246.5625 35.640625 246.039062 37.207031 C 245.441406 38.328125 244.320312 39.078125 243.125 39.078125 Z M 138.898438 36.6875 C 137.628906 36.6875 136.507812 35.863281 136.058594 34.59375 C 135.535156 33.023438 136.429688 31.378906 138 30.933594 L 138.375 30.859375 C 139.941406 30.335938 141.585938 31.230469 142.035156 32.800781 C 142.558594 34.371094 141.660156 36.011719 140.09375 36.460938 L 139.71875 36.535156 C 139.496094 36.6875 139.195312 36.6875 138.898438 36.6875 Z M 228.707031 34.59375 C 228.480469 34.59375 228.183594 34.59375 227.957031 34.519531 L 227.585938 34.445312 C 226.015625 34.070312 225.042969 32.425781 225.492188 30.859375 C 225.867188 29.289062 227.511719 28.316406 229.078125 28.765625 L 229.453125 28.839844 C 231.023438 29.289062 231.992188 30.859375 231.546875 32.425781 C 231.171875 33.695312 229.976562 34.59375 228.707031 34.59375 Z M 153.46875 32.875 C 152.121094 32.875 150.925781 31.902344 150.628906 30.558594 C 150.253906 28.988281 151.300781 27.421875 152.867188 27.046875 L 153.167969 26.972656 C 154.738281 26.597656 156.378906 27.644531 156.679688 29.214844 C 157.054688 30.78125 156.007812 32.351562 154.4375 32.726562 L 154.066406 32.800781 C 153.914062 32.800781 153.691406 32.875 153.46875 32.875 Z M 213.914062 31.378906 C 213.761719 31.378906 213.613281 31.378906 213.464844 31.304688 L 213.089844 31.230469 C 211.519531 31.007812 210.402344 29.4375 210.625 27.867188 C 210.921875 26.300781 212.417969 25.179688 213.988281 25.402344 L 214.359375 25.476562 C 215.929688 25.777344 217.050781 27.269531 216.75 28.839844 C 216.601562 30.410156 215.332031 31.378906 213.914062 31.378906 Z M 168.410156 30.410156 C 166.914062 30.410156 165.644531 29.289062 165.496094 27.792969 C 165.273438 26.152344 166.46875 24.730469 168.109375 24.507812 L 168.484375 24.433594 C 170.128906 24.207031 171.546875 25.402344 171.773438 27.046875 C 171.996094 28.691406 170.800781 30.109375 169.15625 30.335938 L 168.785156 30.410156 C 168.632812 30.335938 168.484375 30.410156 168.410156 30.410156 Z M 198.894531 29.664062 C 198.820312 29.664062 198.746094 29.664062 198.671875 29.664062 L 198.296875 29.664062 C 196.652344 29.585938 195.457031 28.167969 195.53125 26.523438 C 195.605469 24.878906 197.027344 23.683594 198.671875 23.757812 L 199.042969 23.757812 C 200.6875 23.835938 201.882812 25.253906 201.808594 26.898438 C 201.734375 28.46875 200.464844 29.664062 198.894531 29.664062 Z M 183.429688 29.363281 C 181.859375 29.363281 180.515625 28.09375 180.515625 26.449219 C 180.4375 24.804688 181.785156 23.460938 183.351562 23.386719 L 183.726562 23.386719 C 185.296875 23.3125 186.714844 24.65625 186.714844 26.226562 C 186.789062 27.867188 185.445312 29.214844 183.875 29.289062 L 183.429688 29.363281 C 183.503906 29.363281 183.503906 29.363281 183.429688 29.363281 Z M 183.429688 29.363281 " fill-opacity="1" fill-rule="nonzero"/><path fill="#000000" d="M 177.597656 215.820312 C 179.109375 214.984375 179.570312 213.054688 178.597656 211.625 C 174.863281 206.136719 168.769531 200.042969 163.28125 196.308594 C 161.851562 195.335938 159.921875 195.796875 159.085938 197.308594 C 155.242188 204.269531 148.746094 210.765625 141.785156 214.613281 C 140.273438 215.449219 139.8125 217.375 140.785156 218.804688 C 144.519531 224.292969 150.613281 230.386719 156.101562 234.121094 C 157.53125 235.09375 159.457031 234.632812 160.292969 233.121094 C 164.140625 226.160156 170.636719 219.664062 177.597656 215.820312 Z M 177.597656 215.820312 " fill-opacity="1" fill-rule="evenodd"/><path fill="#000000" d="M 296.5625 174.898438 L 274.492188 177.3125 C 266.019531 178.238281 271.78125 156.734375 278.65625 161.773438 Z M 296.5625 174.898438 " fill-opacity="1" fill-rule="evenodd"/><g clip-path="url(#6798ec936c)"><path fill="#000000" d="M 247.5 62.203125 L 234.375 80.113281 C 229.335938 86.988281 250.839844 92.75 249.914062 84.277344 Z M 247.5 62.203125 " fill-opacity="1" fill-rule="evenodd"/></g><g clip-path="url(#282c9c3f15)"><path fill="#000000" d="M 312.703125 127.402344 L 294.792969 140.53125 C 287.917969 145.570312 282.15625 124.066406 290.628906 124.992188 Z M 312.703125 127.402344 " fill-opacity="1" fill-rule="evenodd"/></g><path fill="#000000" d="M 169.882812 135.585938 L 187.792969 122.460938 C 194.667969 117.421875 200.429688 138.925781 191.957031 138 Z M 169.882812 135.585938 " fill-opacity="1" fill-rule="evenodd"/><path fill="#000000" d="M 239.320312 205.023438 L 252.445312 187.113281 C 257.484375 180.238281 235.980469 174.476562 236.90625 182.949219 Z M 239.320312 205.023438 " fill-opacity="1" fill-rule="evenodd"/><path fill="#000000" d="M 200.007812 78.34375 L 197.59375 100.414062 C 196.667969 108.886719 218.171875 103.125 213.132812 96.25 Z M 200.007812 78.34375 " fill-opacity="1" fill-rule="evenodd"/><path fill="#000000" d="M 288.828125 86.078125 L 268.503906 95.027344 C 260.703125 98.460938 276.445312 114.203125 279.882812 106.402344 Z M 288.828125 86.078125 " fill-opacity="1" fill-rule="evenodd"/><path fill="#000000" d="M 153.238281 238.332031 C 147.125 234.175781 140.730469 227.78125 136.574219 221.667969 C 136.351562 221.34375 136.160156 221.011719 135.992188 220.671875 C 126.441406 233.082031 113.390625 246.058594 101.007812 255.421875 C 99.652344 256.449219 98.570312 257.683594 97.824219 259.054688 C 94.621094 264.949219 109.957031 280.285156 115.851562 277.082031 C 117.222656 276.335938 118.457031 275.253906 119.484375 273.894531 C 128.847656 261.515625 141.824219 248.460938 154.234375 238.910156 C 153.894531 238.746094 153.5625 238.550781 153.238281 238.332031 Z M 153.238281 238.332031 " fill-opacity="1" fill-rule="evenodd"/><path fill="#000000" d="M 180.78125 178.808594 L 166.9375 192.648438 C 172.539062 196.621094 178.285156 202.367188 182.257812 207.96875 L 196.097656 194.125 C 193.203125 191.949219 190.464844 189.566406 187.902344 187.003906 C 185.339844 184.441406 182.957031 181.703125 180.78125 178.808594 Z M 180.78125 178.808594 " fill-opacity="1" fill-rule="evenodd"/><path fill="#000000" d="M 187.972656 166.765625 L 182.425781 172.3125 C 183.0625 173.277344 183.730469 174.230469 184.421875 175.167969 C 186.539062 178.042969 188.898438 180.800781 191.503906 183.402344 C 194.105469 186.007812 196.863281 188.367188 199.738281 190.484375 C 200.675781 191.175781 201.628906 191.839844 202.59375 192.480469 L 208.136719 186.933594 C 204.066406 184.472656 200.269531 181.503906 196.835938 178.070312 C 193.402344 174.636719 190.433594 170.839844 187.972656 166.765625 Z M 187.972656 166.765625 " fill-opacity="1" fill-rule="evenodd"/><g clip-path="url(#44a71a9f72)"><path fill="#000000" d="M 92.285156 260.746094 C 86.835938 263.5625 83.261719 269.347656 83.515625 275.808594 C 83.847656 284.273438 90.632812 291.058594 99.09375 291.390625 C 105.558594 291.644531 111.34375 288.070312 114.160156 282.621094 C 108.847656 282.699219 103.25 278.503906 99.824219 275.082031 C 96.402344 271.65625 92.207031 266.058594 92.285156 260.746094 Z M 92.285156 260.746094 " fill-opacity="1" fill-rule="evenodd"/></g><path fill="#000000" d="M 284.910156 107.613281 C 287.316406 111.5 289.1875 115.621094 290.519531 119.878906 C 288.519531 119.792969 286.578125 120.332031 284.960938 121.582031 C 280.785156 124.8125 280.789062 130.976562 282.035156 135.621094 C 283.277344 140.265625 286.355469 145.605469 291.589844 146.316406 C 291.742188 146.335938 291.890625 146.351562 292.039062 146.363281 C 291.046875 151.558594 289.296875 156.632812 286.777344 161.414062 L 281.664062 157.664062 C 279.851562 156.335938 277.699219 155.683594 275.453125 155.988281 C 270.21875 156.695312 267.140625 162.039062 265.898438 166.683594 C 264.652344 171.324219 264.648438 177.492188 268.824219 180.722656 C 268.960938 180.828125 269.097656 180.925781 269.238281 181.023438 C 265.714844 183.421875 261.972656 185.359375 258.09375 186.835938 C 258.3125 185.894531 258.367188 184.914062 258.230469 183.914062 C 257.523438 178.679688 252.179688 175.601562 247.539062 174.355469 C 242.894531 173.113281 236.730469 173.105469 233.496094 177.285156 C 232.109375 179.078125 231.601562 181.269531 231.84375 183.503906 L 232.558594 190.027344 C 220.8125 188.683594 209.417969 183.507812 200.410156 174.496094 C 191.398438 165.488281 186.222656 154.09375 184.878906 142.347656 L 191.402344 143.0625 C 193.636719 143.304688 195.828125 142.796875 197.621094 141.410156 C 201.796875 138.175781 201.792969 132.011719 200.550781 127.367188 C 199.304688 122.726562 196.226562 117.382812 190.992188 116.671875 C 189.992188 116.539062 189.011719 116.59375 188.070312 116.8125 C 189.546875 112.933594 191.484375 109.191406 193.882812 105.667969 C 193.976562 105.808594 194.078125 105.945312 194.183594 106.082031 C 197.414062 110.257812 203.582031 110.253906 208.222656 109.007812 C 212.867188 107.765625 218.207031 104.6875 218.917969 99.453125 C 219.222656 97.207031 218.570312 95.054688 217.242188 93.242188 L 213.492188 88.128906 C 218.273438 85.609375 223.347656 83.855469 228.542969 82.867188 C 228.554688 83.015625 228.570312 83.164062 228.589844 83.316406 C 229.300781 88.550781 234.640625 91.628906 239.285156 92.871094 C 243.925781 94.117188 250.09375 94.121094 253.324219 89.945312 C 254.574219 88.328125 255.113281 86.386719 255.027344 84.382812 C 259.285156 85.71875 263.40625 87.585938 267.292969 89.992188 L 266.453125 90.363281 C 264.394531 91.269531 262.753906 92.808594 261.894531 94.90625 C 259.890625 99.792969 262.980469 105.128906 266.378906 108.527344 C 269.777344 111.925781 275.113281 115.015625 280 113.011719 C 282.097656 112.152344 283.636719 110.511719 284.542969 108.453125 Z M 284.910156 107.613281 " fill-opacity="1" fill-rule="evenodd"/></svg>