<svg xmlns="http://www.w3.org/2000/svg" xmlns:xlink="http://www.w3.org/1999/xlink" width="500" zoomAndPan="magnify" viewBox="0 0 375 374.999991" height="500" preserveAspectRatio="xMidYMid meet" version="1.0"><defs><clipPath id="f354fc48e5"><path d="M 187.5 0 C 83.945312 0 0 83.945312 0 187.5 C 0 291.054688 83.945312 375 187.5 375 C 291.054688 375 375 291.054688 375 187.5 C 375 83.945312 291.054688 0 187.5 0 Z M 187.5 0 " clip-rule="nonzero"/></clipPath><clipPath id="0223468ee2"><path d="M 69 83.425781 L 305.957031 83.425781 L 305.957031 291.925781 L 69 291.925781 Z M 69 83.425781 " clip-rule="nonzero"/></clipPath></defs><g clip-path="url(#f354fc48e5)"><rect x="-37.5" width="450" fill="#0cc0df" y="-37.499999" height="449.999989" fill-opacity="1"/></g><path fill="#000000" d="M 187.539062 375 C 137.476562 375 90.332031 355.5 54.917969 320.082031 C 19.5 284.667969 0 237.597656 0 187.539062 C 0 137.476562 19.5 90.332031 54.917969 54.917969 C 90.332031 19.5 137.402344 0 187.539062 0 C 237.671875 0 284.667969 19.5 320.082031 54.917969 C 355.5 90.332031 375 137.402344 375 187.539062 C 375 237.671875 355.5 284.667969 320.082031 320.082031 C 284.667969 355.5 237.597656 375 187.539062 375 Z M 187.539062 11.207031 C 140.464844 11.207031 96.160156 29.511719 62.835938 62.835938 C 29.511719 96.160156 11.207031 140.390625 11.207031 187.539062 C 11.207031 234.683594 29.511719 278.914062 62.835938 312.238281 C 96.160156 345.5625 140.390625 363.867188 187.539062 363.867188 C 234.683594 363.867188 278.914062 345.5625 312.238281 312.238281 C 345.5625 278.914062 363.867188 234.683594 363.867188 187.539062 C 363.867188 140.390625 345.5625 96.160156 312.238281 62.835938 C 278.839844 29.511719 234.609375 11.207031 187.539062 11.207031 Z M 187.539062 11.207031 " fill-opacity="1" fill-rule="nonzero"/><path fill="#000000" d="M 183.800781 351.613281 L 183.351562 351.613281 C 181.710938 351.539062 180.4375 350.195312 180.515625 348.625 C 180.589844 347.054688 181.859375 345.785156 183.429688 345.785156 C 183.429688 345.785156 183.503906 345.785156 183.503906 345.785156 L 183.875 345.785156 C 185.519531 345.859375 186.789062 347.207031 186.714844 348.773438 C 186.714844 350.34375 185.445312 351.613281 183.800781 351.613281 Z M 198.59375 351.242188 C 197.027344 351.242188 195.757812 350.042969 195.679688 348.476562 C 195.605469 346.832031 196.800781 345.488281 198.445312 345.335938 L 198.746094 345.335938 C 200.386719 345.1875 201.808594 346.457031 201.882812 348.027344 C 202.03125 349.671875 200.761719 351.089844 199.191406 351.164062 L 198.820312 351.164062 C 198.671875 351.242188 198.59375 351.242188 198.59375 351.242188 Z M 168.785156 350.566406 C 168.707031 350.566406 168.558594 350.566406 168.410156 350.566406 L 168.035156 350.492188 C 166.394531 350.269531 165.273438 348.847656 165.496094 347.207031 C 165.71875 345.5625 167.140625 344.441406 168.785156 344.664062 L 169.15625 344.738281 C 170.800781 344.890625 171.921875 346.382812 171.773438 348.027344 C 171.472656 349.445312 170.203125 350.566406 168.785156 350.566406 Z M 213.539062 349.523438 C 212.117188 349.523438 210.847656 348.476562 210.625 347.054688 C 210.324219 345.488281 211.445312 343.917969 213.089844 343.695312 L 213.464844 343.621094 C 215.03125 343.394531 216.601562 344.441406 216.824219 346.085938 C 217.050781 347.730469 216.003906 349.222656 214.359375 349.445312 L 213.988281 349.523438 C 213.914062 349.523438 213.761719 349.523438 213.539062 349.523438 Z M 153.839844 348.101562 C 153.617188 348.101562 153.46875 348.101562 153.242188 348.027344 L 152.867188 347.953125 C 151.300781 347.578125 150.253906 346.011719 150.628906 344.441406 C 151 342.871094 152.570312 341.824219 154.140625 342.199219 L 154.511719 342.273438 C 156.082031 342.648438 157.128906 344.140625 156.753906 345.785156 C 156.457031 347.207031 155.183594 348.101562 153.839844 348.101562 Z M 228.332031 346.457031 C 226.988281 346.457031 225.792969 345.5625 225.492188 344.21875 C 225.121094 342.648438 226.015625 341.003906 227.660156 340.628906 L 227.957031 340.554688 C 229.527344 340.109375 231.171875 341.078125 231.546875 342.648438 C 231.992188 344.21875 231.023438 345.859375 229.453125 346.234375 L 229.078125 346.308594 C 228.855469 346.382812 228.554688 346.457031 228.332031 346.457031 Z M 139.269531 344.292969 C 138.972656 344.292969 138.671875 344.21875 138.375 344.140625 L 138.074219 344.066406 C 136.507812 343.542969 135.609375 341.902344 136.132812 340.332031 C 136.65625 338.761719 138.226562 337.941406 139.792969 338.390625 L 140.167969 338.464844 C 141.738281 338.910156 142.558594 340.628906 142.109375 342.125 C 141.660156 343.46875 140.464844 344.292969 139.269531 344.292969 Z M 242.753906 341.902344 C 241.558594 341.902344 240.4375 341.152344 239.988281 339.957031 C 239.464844 338.464844 240.210938 336.746094 241.78125 336.222656 L 242.078125 336.074219 C 243.574219 335.550781 245.292969 336.296875 245.890625 337.792969 C 246.414062 339.285156 245.667969 341.003906 244.171875 341.601562 L 243.796875 341.75 C 243.425781 341.902344 243.125 341.902344 242.753906 341.902344 Z M 125.074219 339.136719 C 124.699219 339.136719 124.328125 339.0625 123.953125 338.914062 L 123.582031 338.761719 C 122.085938 338.089844 121.414062 336.371094 122.011719 334.878906 C 122.683594 333.382812 124.402344 332.710938 125.898438 333.308594 L 126.195312 333.457031 C 127.691406 334.054688 128.4375 335.773438 127.765625 337.34375 C 127.316406 338.390625 126.195312 339.136719 125.074219 339.136719 Z M 256.722656 336.074219 C 255.605469 336.074219 254.558594 335.476562 254.109375 334.429688 C 253.4375 332.933594 254.035156 331.214844 255.453125 330.46875 L 255.828125 330.320312 C 257.320312 329.648438 259.039062 330.246094 259.789062 331.738281 C 260.460938 333.234375 259.863281 334.953125 258.367188 335.625 L 258.070312 335.773438 C 257.546875 336 257.097656 336.074219 256.722656 336.074219 Z M 111.402344 332.5625 C 110.953125 332.5625 110.429688 332.410156 109.980469 332.1875 L 109.683594 332.039062 C 108.261719 331.292969 107.742188 329.496094 108.488281 328.078125 C 109.234375 326.660156 111.027344 326.136719 112.449219 326.882812 L 112.746094 327.03125 C 114.167969 327.78125 114.6875 329.574219 113.941406 330.992188 C 113.492188 332.039062 112.449219 332.5625 111.402344 332.5625 Z M 270.023438 328.976562 C 269.050781 328.976562 268.082031 328.453125 267.484375 327.554688 C 266.660156 326.136719 267.109375 324.34375 268.453125 323.519531 L 268.753906 323.296875 C 270.171875 322.472656 271.964844 322.921875 272.789062 324.34375 C 273.609375 325.761719 273.160156 327.554688 271.742188 328.378906 L 271.445312 328.527344 C 271.070312 328.824219 270.546875 328.976562 270.023438 328.976562 Z M 98.402344 324.789062 C 97.878906 324.789062 97.28125 324.640625 96.757812 324.269531 L 96.457031 324.042969 C 95.113281 323.148438 94.738281 321.355469 95.636719 319.933594 C 96.53125 318.589844 98.328125 318.214844 99.746094 319.113281 L 100.042969 319.335938 C 101.390625 320.234375 101.761719 322.027344 100.867188 323.445312 C 100.34375 324.34375 99.371094 324.789062 98.402344 324.789062 Z M 282.652344 320.605469 C 281.753906 320.605469 280.859375 320.160156 280.261719 319.410156 C 279.289062 318.140625 279.585938 316.273438 280.859375 315.300781 L 281.15625 315.078125 C 282.5 314.105469 284.292969 314.40625 285.265625 315.675781 C 286.238281 317.019531 285.9375 318.8125 284.667969 319.785156 L 284.371094 320.007812 C 283.847656 320.457031 283.25 320.605469 282.652344 320.605469 Z M 86.222656 315.898438 C 85.550781 315.898438 84.878906 315.675781 84.355469 315.226562 L 84.054688 315.003906 C 82.785156 313.957031 82.5625 312.164062 83.605469 310.894531 C 84.652344 309.625 86.445312 309.398438 87.714844 310.445312 L 88.015625 310.667969 C 89.285156 311.714844 89.433594 313.582031 88.464844 314.777344 C 87.941406 315.527344 87.117188 315.898438 86.222656 315.898438 Z M 294.382812 311.117188 C 293.558594 311.117188 292.738281 310.820312 292.214844 310.144531 C 291.167969 308.949219 291.242188 307.082031 292.4375 306.035156 L 292.738281 305.8125 C 293.933594 304.691406 295.800781 304.839844 296.921875 306.035156 C 298.042969 307.234375 297.894531 309.101562 296.699219 310.222656 L 296.472656 310.445312 C 295.800781 310.894531 295.054688 311.117188 294.382812 311.117188 Z M 74.941406 305.8125 C 74.191406 305.8125 73.445312 305.515625 72.921875 304.992188 L 72.625 304.691406 C 71.429688 303.570312 71.429688 301.703125 72.625 300.507812 C 73.746094 299.3125 75.613281 299.3125 76.808594 300.507812 L 77.03125 300.730469 C 78.226562 301.851562 78.226562 303.722656 77.105469 304.917969 C 76.507812 305.589844 75.6875 305.8125 74.941406 305.8125 Z M 305.214844 300.582031 C 304.46875 300.582031 303.796875 300.359375 303.199219 299.761719 C 302.003906 298.640625 301.925781 296.773438 303.046875 295.578125 L 303.273438 295.277344 C 304.394531 294.082031 306.261719 294.007812 307.457031 295.128906 C 308.652344 296.25 308.726562 298.117188 307.605469 299.3125 L 307.382812 299.535156 C 306.785156 300.285156 305.960938 300.582031 305.214844 300.582031 Z M 64.628906 294.828125 C 63.808594 294.828125 62.984375 294.457031 62.386719 293.785156 L 62.164062 293.484375 C 61.117188 292.214844 61.265625 290.421875 62.539062 289.300781 C 63.808594 288.253906 65.601562 288.402344 66.722656 289.675781 L 66.945312 289.972656 C 67.992188 291.242188 67.84375 293.035156 66.570312 294.15625 C 65.972656 294.605469 65.300781 294.828125 64.628906 294.828125 Z M 315.003906 289.078125 C 314.40625 289.078125 313.734375 288.851562 313.210938 288.480469 C 311.941406 287.507812 311.640625 285.640625 312.6875 284.371094 L 312.910156 284.070312 C 313.882812 282.800781 315.75 282.578125 317.019531 283.546875 C 318.289062 284.519531 318.515625 286.386719 317.542969 287.65625 L 317.320312 287.957031 C 316.796875 288.703125 315.898438 289.078125 315.003906 289.078125 Z M 55.4375 282.875 C 54.542969 282.875 53.570312 282.425781 53.046875 281.605469 L 52.824219 281.304688 C 51.925781 279.960938 52.226562 278.167969 53.570312 277.195312 C 54.917969 276.300781 56.710938 276.597656 57.679688 277.945312 L 57.90625 278.242188 C 58.800781 279.585938 58.503906 281.378906 57.15625 282.351562 C 56.558594 282.652344 55.960938 282.875 55.4375 282.875 Z M 323.671875 276.75 C 323.148438 276.75 322.625 276.597656 322.101562 276.300781 C 320.757812 275.402344 320.308594 273.609375 321.203125 272.265625 L 321.429688 271.964844 C 322.324219 270.621094 324.117188 270.171875 325.464844 271.070312 C 326.808594 271.964844 327.257812 273.757812 326.359375 275.105469 L 326.136719 275.402344 C 325.613281 276.226562 324.640625 276.75 323.671875 276.75 Z M 47.296875 270.097656 C 46.25 270.097656 45.277344 269.574219 44.753906 268.605469 L 44.605469 268.304688 C 43.785156 266.886719 44.304688 265.09375 45.726562 264.269531 C 47.144531 263.449219 48.9375 263.972656 49.761719 265.390625 L 49.910156 265.691406 C 50.730469 267.109375 50.210938 268.902344 48.789062 269.726562 C 48.339844 269.949219 47.816406 270.097656 47.296875 270.097656 Z M 331.214844 263.597656 C 330.769531 263.597656 330.320312 263.523438 329.871094 263.300781 C 328.453125 262.550781 327.855469 260.757812 328.601562 259.339844 L 328.75 259.039062 C 329.496094 257.621094 331.292969 257.023438 332.710938 257.769531 C 334.128906 258.519531 334.726562 260.3125 333.980469 261.730469 L 333.832031 262.027344 C 333.308594 263 332.261719 263.597656 331.214844 263.597656 Z M 40.496094 256.648438 C 39.375 256.648438 38.328125 255.976562 37.804688 254.929688 L 37.65625 254.632812 C 36.984375 253.136719 37.65625 251.417969 39.152344 250.746094 C 40.644531 250.074219 42.363281 250.746094 43.035156 252.242188 L 43.1875 252.539062 C 43.859375 254.035156 43.1875 255.753906 41.691406 256.425781 C 41.316406 256.574219 40.871094 256.648438 40.496094 256.648438 Z M 337.417969 249.851562 C 337.042969 249.851562 336.671875 249.777344 336.371094 249.625 C 334.878906 249.027344 334.128906 247.308594 334.726562 245.816406 L 334.878906 245.441406 C 335.476562 243.949219 337.195312 243.199219 338.6875 243.796875 C 340.183594 244.394531 340.929688 246.113281 340.332031 247.609375 L 340.183594 247.984375 C 339.660156 249.101562 338.613281 249.851562 337.417969 249.851562 Z M 34.890625 242.601562 C 33.695312 242.601562 32.5 241.855469 32.128906 240.585938 L 31.976562 240.210938 C 31.457031 238.644531 32.277344 237 33.847656 236.476562 C 35.414062 235.953125 37.058594 236.773438 37.582031 238.34375 L 37.730469 238.71875 C 38.253906 240.285156 37.433594 241.929688 35.9375 242.453125 C 35.566406 242.527344 35.265625 242.601562 34.890625 242.601562 Z M 342.347656 235.578125 C 342.050781 235.578125 341.824219 235.503906 341.527344 235.429688 C 339.957031 234.980469 339.0625 233.339844 339.511719 231.769531 L 339.585938 231.394531 C 340.03125 229.828125 341.675781 228.929688 343.246094 229.378906 C 344.816406 229.828125 345.710938 231.46875 345.261719 233.039062 L 345.1875 233.414062 C 344.738281 234.683594 343.621094 235.578125 342.347656 235.578125 Z M 30.707031 228.035156 C 29.363281 228.035156 28.167969 227.136719 27.867188 225.792969 L 27.792969 225.417969 C 27.421875 223.847656 28.390625 222.28125 29.960938 221.90625 C 31.53125 221.53125 33.097656 222.503906 33.472656 224.074219 L 33.546875 224.445312 C 33.921875 226.015625 32.949219 227.585938 31.378906 227.957031 C 31.15625 228.035156 30.933594 228.035156 30.707031 228.035156 Z M 345.859375 220.859375 C 345.710938 220.859375 345.488281 220.859375 345.261719 220.785156 C 343.695312 220.488281 342.648438 218.917969 342.945312 217.347656 L 343.023438 216.976562 C 343.320312 215.40625 344.890625 214.359375 346.457031 214.660156 C 348.027344 214.957031 349.074219 216.527344 348.773438 218.097656 L 348.699219 218.46875 C 348.476562 219.890625 347.207031 220.859375 345.859375 220.859375 Z M 27.867188 213.238281 C 26.449219 213.238281 25.179688 212.195312 24.957031 210.699219 L 24.878906 210.324219 C 24.65625 208.683594 25.777344 207.261719 27.421875 207.039062 C 29.066406 206.8125 30.484375 207.933594 30.707031 209.578125 L 30.78125 209.953125 C 31.007812 211.597656 29.886719 213.015625 28.316406 213.3125 C 28.167969 213.238281 28.019531 213.238281 27.867188 213.238281 Z M 347.953125 205.917969 C 347.878906 205.917969 347.730469 205.917969 347.652344 205.917969 C 346.011719 205.769531 344.816406 204.347656 345.039062 202.703125 L 345.039062 202.332031 C 345.1875 200.6875 346.609375 199.492188 348.25 199.714844 C 349.894531 199.867188 351.089844 201.285156 350.867188 202.929688 L 350.867188 203.300781 C 350.792969 204.796875 349.445312 205.917969 347.953125 205.917969 Z M 26.523438 198.222656 C 24.957031 198.222656 23.683594 197.027344 23.609375 195.382812 L 23.609375 195.007812 C 23.535156 193.363281 24.804688 192.019531 26.375 191.945312 C 28.019531 191.871094 29.363281 193.140625 29.4375 194.710938 L 29.4375 195.082031 C 29.511719 196.726562 28.242188 198.074219 26.671875 198.148438 C 26.597656 198.222656 26.523438 198.222656 26.523438 198.222656 Z M 348.699219 190.453125 C 347.054688 190.453125 345.636719 189.480469 345.636719 187.835938 L 345.636719 187.539062 C 345.636719 187.539062 345.636719 187.460938 345.636719 187.460938 L 345.636719 187.089844 C 345.636719 185.445312 346.980469 184.175781 348.625 184.175781 C 350.269531 184.175781 351.613281 185.519531 351.613281 187.089844 L 351.613281 187.386719 C 351.613281 187.386719 351.613281 187.460938 351.613281 187.460938 L 351.613281 187.835938 C 351.613281 189.480469 350.34375 190.453125 348.699219 190.453125 Z M 26.449219 183.054688 C 26.375 183.054688 26.375 183.054688 26.300781 183.054688 C 24.65625 182.980469 23.386719 181.636719 23.460938 179.992188 L 23.460938 179.617188 C 23.535156 177.972656 24.957031 176.777344 26.523438 176.851562 C 28.167969 176.925781 29.4375 178.273438 29.289062 179.917969 L 29.289062 180.289062 C 29.363281 181.859375 28.019531 183.054688 26.449219 183.054688 Z M 348.027344 175.359375 C 346.53125 175.359375 345.261719 174.238281 345.113281 172.667969 L 345.113281 172.296875 C 344.964844 170.652344 346.160156 169.230469 347.730469 169.082031 C 349.371094 168.933594 350.792969 170.128906 350.941406 171.699219 L 350.941406 172.070312 C 351.089844 173.714844 349.894531 175.132812 348.25 175.285156 C 348.175781 175.359375 348.101562 175.359375 348.027344 175.359375 Z M 27.867188 168.035156 C 27.71875 168.035156 27.570312 168.035156 27.496094 168.035156 C 25.851562 167.8125 24.730469 166.316406 24.957031 164.75 L 25.03125 164.375 C 25.253906 162.730469 26.75 161.609375 28.390625 161.910156 C 30.035156 162.132812 31.15625 163.628906 30.859375 165.273438 L 30.78125 165.644531 C 30.558594 166.992188 29.289062 168.035156 27.867188 168.035156 Z M 345.933594 160.414062 C 344.515625 160.414062 343.320312 159.445312 343.023438 158.023438 L 342.945312 157.652344 C 342.648438 156.082031 343.695312 154.511719 345.261719 154.214844 C 346.832031 153.914062 348.402344 154.960938 348.699219 156.53125 L 348.773438 156.902344 C 349.074219 158.472656 348.027344 160.042969 346.457031 160.339844 C 346.234375 160.414062 346.085938 160.414062 345.933594 160.414062 Z M 30.632812 153.167969 C 30.410156 153.167969 30.183594 153.167969 29.960938 153.09375 C 28.390625 152.71875 27.421875 151.152344 27.792969 149.582031 L 27.867188 149.207031 C 28.242188 147.640625 29.8125 146.667969 31.378906 147.042969 C 32.949219 147.414062 33.921875 148.984375 33.546875 150.554688 L 33.472656 150.925781 C 33.175781 152.269531 31.976562 153.167969 30.632812 153.167969 Z M 342.421875 145.695312 C 341.152344 145.695312 339.957031 144.875 339.585938 143.53125 L 339.511719 143.15625 C 339.0625 141.585938 339.957031 139.941406 341.527344 139.496094 C 343.097656 139.046875 344.738281 139.941406 345.1875 141.511719 L 345.261719 141.886719 C 345.710938 143.453125 344.816406 145.097656 343.246094 145.546875 C 342.945312 145.695312 342.648438 145.695312 342.421875 145.695312 Z M 34.816406 138.671875 C 34.519531 138.671875 34.21875 138.597656 33.847656 138.523438 C 32.277344 138 31.457031 136.355469 31.976562 134.789062 L 32.128906 134.488281 C 32.652344 132.917969 34.371094 132.097656 35.863281 132.621094 C 37.433594 133.144531 38.253906 134.789062 37.730469 136.355469 L 37.582031 136.730469 C 37.207031 137.925781 36.011719 138.671875 34.816406 138.671875 Z M 337.566406 131.425781 C 336.371094 131.425781 335.25 130.679688 334.800781 129.558594 L 334.652344 129.257812 C 334.054688 127.765625 334.800781 126.046875 336.296875 125.449219 C 337.792969 124.851562 339.511719 125.597656 340.109375 127.09375 L 340.257812 127.464844 C 340.855469 128.960938 340.109375 130.679688 338.613281 131.277344 C 338.238281 131.351562 337.941406 131.425781 337.566406 131.425781 Z M 40.347656 124.625 C 39.972656 124.625 39.523438 124.550781 39.152344 124.402344 C 37.65625 123.730469 36.984375 122.011719 37.65625 120.515625 L 37.804688 120.144531 C 38.480469 118.648438 40.195312 117.976562 41.691406 118.648438 C 43.1875 119.320312 43.859375 121.039062 43.1875 122.535156 L 43.035156 122.832031 C 42.511719 123.953125 41.46875 124.625 40.347656 124.625 Z M 331.367188 117.601562 C 330.320312 117.601562 329.273438 117.003906 328.75 115.960938 L 328.601562 115.660156 C 327.855469 114.242188 328.453125 112.449219 329.871094 111.699219 C 331.292969 110.953125 333.085938 111.550781 333.832031 112.96875 L 333.980469 113.269531 C 334.726562 114.6875 334.128906 116.480469 332.710938 117.230469 C 332.261719 117.527344 331.8125 117.601562 331.367188 117.601562 Z M 47.144531 111.101562 C 46.621094 111.101562 46.175781 110.953125 45.726562 110.730469 C 44.304688 109.90625 43.785156 108.113281 44.605469 106.695312 L 44.753906 106.394531 C 45.578125 104.976562 47.371094 104.527344 48.789062 105.273438 C 50.210938 106.097656 50.65625 107.890625 49.910156 109.308594 L 49.761719 109.609375 C 49.164062 110.578125 48.191406 111.101562 47.144531 111.101562 Z M 323.894531 104.453125 C 322.921875 104.453125 321.953125 103.929688 321.429688 103.109375 L 321.277344 102.808594 C 320.382812 101.464844 320.832031 99.597656 322.175781 98.773438 C 323.519531 97.878906 325.386719 98.328125 326.210938 99.671875 L 326.433594 99.96875 C 327.332031 101.316406 326.882812 103.183594 325.539062 104.003906 C 324.941406 104.378906 324.417969 104.453125 323.894531 104.453125 Z M 55.214844 98.328125 C 54.617188 98.328125 54.019531 98.175781 53.570312 97.804688 C 52.226562 96.90625 51.925781 95.039062 52.824219 93.695312 L 53.046875 93.394531 C 53.945312 92.050781 55.8125 91.75 57.15625 92.648438 C 58.503906 93.621094 58.800781 95.414062 57.90625 96.757812 L 57.679688 97.054688 C 57.082031 97.878906 56.113281 98.328125 55.214844 98.328125 Z M 315.226562 92.125 C 314.332031 92.125 313.433594 91.75 312.910156 91.003906 L 312.6875 90.707031 C 311.714844 89.433594 311.941406 87.566406 313.210938 86.597656 C 314.480469 85.625 316.347656 85.847656 317.320312 87.117188 L 317.542969 87.417969 C 318.515625 88.6875 318.289062 90.554688 317.019531 91.527344 C 316.496094 91.902344 315.898438 92.125 315.226562 92.125 Z M 64.40625 86.371094 C 63.734375 86.371094 63.058594 86.148438 62.539062 85.699219 C 61.265625 84.652344 61.117188 82.785156 62.164062 81.589844 L 62.386719 81.292969 C 63.433594 80.019531 65.300781 79.945312 66.570312 80.992188 C 67.84375 82.039062 67.917969 83.90625 66.871094 85.175781 L 66.648438 85.476562 C 66.125 86 65.226562 86.371094 64.40625 86.371094 Z M 305.4375 80.617188 C 304.617188 80.617188 303.871094 80.320312 303.273438 79.648438 L 303.046875 79.421875 C 301.925781 78.226562 302.003906 76.359375 303.199219 75.238281 C 304.394531 74.117188 306.261719 74.191406 307.382812 75.386719 L 307.679688 75.6875 C 308.800781 76.882812 308.726562 78.75 307.53125 79.871094 C 306.933594 80.320312 306.1875 80.617188 305.4375 80.617188 Z M 74.714844 75.3125 C 73.96875 75.3125 73.222656 75.015625 72.625 74.417969 C 71.503906 73.222656 71.503906 71.429688 72.699219 70.234375 L 72.996094 69.933594 C 74.191406 68.8125 76.0625 68.8125 77.183594 70.007812 C 78.300781 71.203125 78.300781 73.074219 77.105469 74.191406 L 76.882812 74.417969 C 76.210938 75.015625 75.464844 75.3125 74.714844 75.3125 Z M 294.679688 70.007812 C 294.007812 70.007812 293.261719 69.785156 292.738281 69.261719 L 292.511719 69.039062 C 291.316406 67.992188 291.167969 66.125 292.289062 64.855469 C 293.335938 63.65625 295.203125 63.507812 296.472656 64.628906 L 296.773438 64.855469 C 297.96875 65.972656 298.117188 67.765625 296.996094 69.039062 C 296.25 69.710938 295.503906 70.007812 294.679688 70.007812 Z M 86 65.226562 C 85.175781 65.226562 84.28125 64.855469 83.683594 64.105469 C 82.636719 62.835938 82.859375 60.96875 84.128906 59.996094 L 84.429688 59.773438 C 85.699219 58.726562 87.566406 58.949219 88.539062 60.222656 C 89.585938 61.492188 89.359375 63.359375 88.089844 64.332031 L 87.792969 64.554688 C 87.269531 65.003906 86.671875 65.226562 86 65.226562 Z M 282.949219 60.519531 C 282.351562 60.519531 281.753906 60.371094 281.230469 59.921875 L 280.933594 59.699219 C 279.585938 58.726562 279.363281 56.933594 280.261719 55.589844 C 281.230469 54.242188 283.097656 54.019531 284.371094 54.917969 L 284.667969 55.140625 C 286.011719 56.113281 286.238281 57.980469 285.265625 59.25 C 284.742188 60.070312 283.847656 60.519531 282.949219 60.519531 Z M 98.175781 56.261719 C 97.207031 56.261719 96.308594 55.8125 95.710938 54.917969 C 94.816406 53.570312 95.1875 51.703125 96.53125 50.808594 L 96.832031 50.582031 C 98.175781 49.6875 100.042969 50.058594 100.941406 51.40625 C 101.839844 52.75 101.464844 54.617188 100.121094 55.515625 L 99.820312 55.738281 C 99.296875 56.113281 98.699219 56.261719 98.175781 56.261719 Z M 270.324219 52.152344 C 269.800781 52.152344 269.277344 52.003906 268.828125 51.703125 L 268.53125 51.480469 C 267.109375 50.65625 266.660156 48.863281 267.484375 47.445312 C 268.304688 46.023438 270.097656 45.578125 271.519531 46.398438 L 271.816406 46.621094 C 273.238281 47.445312 273.683594 49.238281 272.863281 50.65625 C 272.339844 51.628906 271.367188 52.152344 270.324219 52.152344 Z M 111.101562 48.492188 C 110.058594 48.492188 109.011719 47.894531 108.488281 46.921875 C 107.742188 45.503906 108.261719 43.707031 109.683594 42.960938 L 109.980469 42.8125 C 111.402344 42.066406 113.195312 42.589844 113.941406 44.007812 C 114.6875 45.425781 114.167969 47.21875 112.746094 47.96875 L 112.449219 48.117188 C 112.074219 48.339844 111.550781 48.492188 111.101562 48.492188 Z M 257.023438 44.980469 C 256.574219 44.980469 256.203125 44.90625 255.753906 44.679688 L 255.453125 44.53125 C 253.960938 43.859375 253.363281 42.066406 254.035156 40.570312 C 254.707031 39.078125 256.5 38.480469 257.996094 39.152344 L 258.292969 39.300781 C 259.789062 39.972656 260.386719 41.765625 259.714844 43.261719 C 259.191406 44.382812 258.144531 44.980469 257.023438 44.980469 Z M 124.699219 41.914062 C 123.582031 41.914062 122.460938 41.242188 122.011719 40.121094 C 121.414062 38.628906 122.085938 36.910156 123.582031 36.238281 L 123.953125 36.085938 C 125.449219 35.488281 127.167969 36.164062 127.839844 37.65625 C 128.4375 39.152344 127.765625 40.871094 126.269531 41.542969 L 125.972656 41.691406 C 125.449219 41.839844 125.074219 41.914062 124.699219 41.914062 Z M 243.125 39.078125 C 242.828125 39.078125 242.453125 39 242.15625 38.925781 L 241.78125 38.777344 C 240.285156 38.253906 239.464844 36.535156 240.0625 34.96875 C 240.585938 33.472656 242.304688 32.652344 243.875 33.25 L 244.246094 33.398438 C 245.742188 33.921875 246.5625 35.640625 246.039062 37.207031 C 245.441406 38.328125 244.320312 39.078125 243.125 39.078125 Z M 138.898438 36.6875 C 137.628906 36.6875 136.507812 35.863281 136.058594 34.59375 C 135.535156 33.023438 136.429688 31.378906 138 30.933594 L 138.375 30.859375 C 139.941406 30.335938 141.585938 31.230469 142.035156 32.800781 C 142.558594 34.371094 141.660156 36.011719 140.09375 36.460938 L 139.71875 36.535156 C 139.496094 36.6875 139.195312 36.6875 138.898438 36.6875 Z M 228.707031 34.59375 C 228.480469 34.59375 228.183594 34.59375 227.957031 34.519531 L 227.585938 34.445312 C 226.015625 34.070312 225.042969 32.425781 225.492188 30.859375 C 225.867188 29.289062 227.511719 28.316406 229.078125 28.765625 L 229.453125 28.839844 C 231.023438 29.289062 231.992188 30.859375 231.546875 32.425781 C 231.171875 33.695312 229.976562 34.59375 228.707031 34.59375 Z M 153.46875 32.875 C 152.121094 32.875 150.925781 31.902344 150.628906 30.558594 C 150.253906 28.988281 151.300781 27.421875 152.867188 27.046875 L 153.167969 26.972656 C 154.738281 26.597656 156.378906 27.644531 156.679688 29.214844 C 157.054688 30.78125 156.007812 32.351562 154.4375 32.726562 L 154.066406 32.800781 C 153.914062 32.800781 153.691406 32.875 153.46875 32.875 Z M 213.914062 31.378906 C 213.761719 31.378906 213.613281 31.378906 213.464844 31.304688 L 213.089844 31.230469 C 211.519531 31.007812 210.402344 29.4375 210.625 27.867188 C 210.921875 26.300781 212.417969 25.179688 213.988281 25.402344 L 214.359375 25.476562 C 215.929688 25.777344 217.050781 27.269531 216.75 28.839844 C 216.601562 30.410156 215.332031 31.378906 213.914062 31.378906 Z M 168.410156 30.410156 C 166.914062 30.410156 165.644531 29.289062 165.496094 27.792969 C 165.273438 26.152344 166.46875 24.730469 168.109375 24.507812 L 168.484375 24.433594 C 170.128906 24.207031 171.546875 25.402344 171.773438 27.046875 C 171.996094 28.691406 170.800781 30.109375 169.15625 30.335938 L 168.785156 30.410156 C 168.632812 30.335938 168.484375 30.410156 168.410156 30.410156 Z M 198.894531 29.664062 C 198.820312 29.664062 198.746094 29.664062 198.671875 29.664062 L 198.296875 29.664062 C 196.652344 29.585938 195.457031 28.167969 195.53125 26.523438 C 195.605469 24.878906 197.027344 23.683594 198.671875 23.757812 L 199.042969 23.757812 C 200.6875 23.835938 201.882812 25.253906 201.808594 26.898438 C 201.734375 28.46875 200.464844 29.664062 198.894531 29.664062 Z M 183.429688 29.363281 C 181.859375 29.363281 180.515625 28.09375 180.515625 26.449219 C 180.4375 24.804688 181.785156 23.460938 183.351562 23.386719 L 183.726562 23.386719 C 185.296875 23.3125 186.714844 24.65625 186.714844 26.226562 C 186.789062 27.867188 185.445312 29.214844 183.875 29.289062 L 183.429688 29.363281 C 183.503906 29.363281 183.503906 29.363281 183.429688 29.363281 Z M 183.429688 29.363281 " fill-opacity="1" fill-rule="nonzero"/><g clip-path="url(#0223468ee2)"><path fill="#000000" d="M 270.703125 83.835938 C 270.425781 84.066406 270.398438 84.347656 270.554688 85.484375 C 270.867188 87.78125 270.722656 90.238281 270.136719 92.546875 C 269.234375 96.121094 267.699219 98.828125 264.933594 101.726562 C 263.472656 103.257812 263.21875 103.539062 262.753906 104.140625 C 262.507812 104.464844 262.203125 104.953125 262.074219 105.234375 C 261.949219 105.511719 261.8125 105.800781 261.777344 105.875 C 261.460938 106.535156 261.410156 108.15625 261.640625 110.105469 C 261.664062 110.296875 261.707031 110.730469 261.738281 111.066406 C 261.769531 111.402344 261.808594 111.765625 261.824219 111.875 C 261.855469 112.0625 261.890625 113.234375 261.871094 113.425781 C 261.835938 113.84375 260.664062 110.582031 260.375 109.246094 C 259.945312 107.277344 259.347656 107.148438 257.507812 108.632812 C 252.335938 112.8125 251.214844 114.210938 250.359375 117.574219 C 250.035156 118.847656 249.707031 120.855469 249.609375 122.160156 C 249.542969 123.042969 249.539062 123.042969 249.324219 122.324219 C 248.921875 120.945312 248.773438 119.871094 248.761719 118.222656 C 248.738281 115.394531 248.511719 115.40625 243.125 118.535156 C 238.359375 121.300781 237.554688 121.796875 234.757812 123.652344 C 232.316406 125.277344 229.980469 126.96875 228.207031 128.402344 C 227.9375 128.621094 227.46875 128.996094 227.164062 129.238281 C 226.429688 129.816406 224.679688 131.246094 224.292969 131.585938 C 224.121094 131.734375 223.789062 132.015625 223.554688 132.207031 C 223.320312 132.398438 222.789062 132.847656 222.382812 133.203125 C 221.972656 133.558594 221.40625 134.046875 221.121094 134.292969 C 216.15625 138.589844 208.390625 146.121094 204.082031 150.820312 C 203.777344 151.152344 203.265625 151.703125 202.949219 152.039062 C 202.476562 152.542969 201.269531 153.847656 200.453125 154.738281 C 200.207031 155.011719 199.125 156.222656 198.945312 156.429688 C 198.863281 156.523438 198.480469 156.949219 198.09375 157.378906 C 191.503906 164.628906 186.6875 171.585938 183.585938 178.332031 C 182.320312 181.085938 181.066406 183.402344 179.621094 185.667969 C 179.464844 185.910156 179.222656 186.292969 179.074219 186.523438 L 178.808594 186.941406 L 178.695312 186.609375 C 178.5625 186.21875 178.582031 186.308594 178.492188 185.710938 C 178.359375 184.847656 178.421875 183.617188 178.648438 182.648438 C 178.980469 181.226562 179.078125 180.023438 178.875 179.820312 C 178.570312 179.515625 178.347656 179.804688 178.136719 180.777344 C 177.832031 182.1875 177.636719 182.667969 176.914062 183.789062 C 176.621094 184.246094 176.289062 184.84375 176.179688 185.117188 L 175.976562 185.613281 L 175.824219 185.417969 C 175.363281 184.832031 174.667969 183.128906 174.472656 182.101562 C 174.394531 181.695312 174.332031 181.609375 174.144531 181.640625 C 173.960938 181.667969 173.953125 181.699219 173.972656 182.796875 C 174.015625 185.875 174.136719 186.785156 174.648438 187.929688 C 174.921875 188.542969 174.925781 188.535156 174.433594 188.316406 C 174.21875 188.21875 173.964844 188.109375 173.867188 188.070312 C 172.113281 187.378906 171.59375 187.082031 171.121094 186.511719 C 170.539062 185.804688 170.351562 186.136719 170.828125 187.03125 C 171.40625 188.105469 172.851562 189.292969 173.589844 189.292969 C 173.664062 189.292969 173.746094 189.328125 173.773438 189.371094 C 173.800781 189.414062 173.921875 189.472656 174.042969 189.503906 C 174.324219 189.574219 175.117188 190.085938 175.371094 190.359375 L 175.566406 190.570312 L 174.941406 190.464844 C 174.085938 190.320312 173.5625 190.378906 172.335938 190.773438 C 170.929688 191.222656 170.601562 191.28125 169.378906 191.296875 C 168.164062 191.3125 168.03125 191.34375 168.085938 191.621094 C 168.203125 192.257812 170.488281 192.71875 171.90625 192.394531 C 174.164062 191.878906 176.085938 192.519531 176.511719 193.933594 L 176.691406 194.53125 L 176.144531 195.515625 C 175.84375 196.058594 175.386719 196.949219 175.125 197.5 C 174.625 198.550781 172.699219 202.410156 171.460938 204.84375 C 171.058594 205.636719 170.621094 206.519531 170.492188 206.808594 C 170.042969 207.8125 169.8125 208.359375 169.8125 208.429688 C 169.8125 208.472656 169.703125 208.691406 169.5625 208.921875 C 169.191406 209.554688 168.167969 211.222656 167.949219 211.570312 C 167.058594 212.957031 165.769531 215.496094 165.445312 216.503906 C 165.382812 216.695312 165.304688 216.894531 165.273438 216.941406 C 165.175781 217.082031 165 218.035156 165.046875 218.160156 C 165.175781 218.496094 165.605469 218.378906 165.875 217.933594 C 166.546875 216.824219 168.578125 215.515625 171.425781 214.359375 C 173.425781 213.550781 173.492188 213.453125 174.167969 210.519531 C 174.535156 208.925781 174.558594 208.847656 175.140625 206.9375 C 175.335938 206.289062 175.550781 205.582031 175.613281 205.367188 C 175.722656 204.976562 176.121094 203.824219 176.261719 203.488281 C 176.300781 203.394531 176.382812 203.175781 176.441406 203.007812 C 176.5 202.839844 176.621094 202.535156 176.710938 202.332031 C 176.800781 202.128906 176.875 201.9375 176.875 201.910156 C 176.875 201.878906 176.929688 201.730469 177 201.582031 C 177.066406 201.429688 177.242188 201.035156 177.390625 200.710938 C 177.539062 200.382812 177.660156 200.097656 177.660156 200.082031 C 177.660156 199.828125 179.429688 196.574219 180.019531 195.738281 C 180.144531 195.5625 180.296875 195.300781 180.359375 195.15625 C 180.667969 194.410156 182.066406 194.460938 182.769531 195.246094 C 183.105469 195.621094 183.925781 197.042969 183.933594 197.261719 C 183.933594 197.296875 184.050781 197.582031 184.195312 197.890625 C 184.335938 198.203125 184.511719 198.59375 184.578125 198.761719 C 184.746094 199.164062 185 199.300781 185.1875 199.089844 C 185.265625 199.003906 185.308594 198.90625 185.277344 198.878906 C 185.246094 198.847656 185.234375 198.320312 185.246094 197.707031 C 185.304688 195.15625 185.285156 194.730469 185.113281 194.449219 C 185.046875 194.339844 185.109375 194.335938 185.308594 194.4375 C 186.429688 195.007812 187.636719 194.960938 190.761719 194.230469 C 192.097656 193.917969 192.210938 193.335938 190.929688 193.375 C 190.558594 193.386719 190.15625 193.417969 190.039062 193.445312 C 189.042969 193.667969 187.304688 193.554688 186.484375 193.21875 C 186.378906 193.171875 186.203125 193.101562 186.09375 193.054688 C 185.984375 193.011719 185.808594 192.949219 185.699219 192.917969 C 185.359375 192.824219 185.488281 192.746094 186.015625 192.730469 C 186.851562 192.703125 188.144531 192.242188 188.703125 191.769531 C 188.808594 191.679688 189.023438 191.511719 189.183594 191.390625 C 189.339844 191.269531 189.785156 190.855469 190.171875 190.472656 C 190.554688 190.089844 191.117188 189.5625 191.417969 189.300781 C 192.320312 188.511719 191.984375 188.0625 191.03125 188.785156 C 189.292969 190.113281 188.34375 190.628906 187.230469 190.859375 C 186.664062 190.980469 185.585938 191.003906 185.164062 190.914062 L 184.871094 190.847656 L 185.164062 190.570312 C 185.328125 190.417969 185.621094 190.117188 185.816406 189.902344 C 187.589844 187.964844 190.054688 186.023438 193.246094 184.050781 C 194.59375 183.21875 197.664062 181.195312 199.800781 179.730469 C 203.507812 177.1875 205.921875 175.632812 209.300781 173.617188 C 211.808594 172.121094 213.609375 171.101562 216.015625 169.816406 C 217.039062 169.269531 223.863281 165.867188 224.734375 165.472656 C 224.996094 165.351562 225.742188 165.003906 226.386719 164.703125 C 233.753906 161.261719 238.363281 159.453125 243.34375 158.054688 C 246.613281 157.140625 246.855469 157.050781 247.15625 156.679688 C 247.683594 156.019531 247.023438 155.382812 244.914062 154.515625 C 244.324219 154.273438 243.285156 153.878906 242.949219 153.773438 C 242.734375 153.703125 242.480469 153.609375 242.386719 153.570312 C 242.289062 153.53125 242.074219 153.449219 241.90625 153.390625 C 241.738281 153.332031 241.523438 153.253906 241.425781 153.210938 C 241.09375 153.070312 239.414062 152.527344 238.347656 152.214844 C 236.742188 151.746094 235.074219 151.371094 232.535156 150.902344 C 232.390625 150.878906 231.992188 150.816406 231.648438 150.765625 C 231.304688 150.714844 230.929688 150.65625 230.820312 150.636719 C 230.554688 150.582031 229.28125 150.4375 228.375 150.355469 C 227.976562 150.320312 226.757812 150.292969 225.660156 150.296875 C 224.34375 150.304688 223.71875 150.277344 223.816406 150.222656 C 225.027344 149.542969 228.46875 148.539062 230.179688 148.363281 C 230.515625 148.328125 230.890625 148.289062 231.007812 148.273438 C 231.378906 148.222656 234.414062 148.230469 234.882812 148.285156 C 237.578125 148.585938 239.9375 149.0625 241.773438 149.675781 C 241.964844 149.742188 242.457031 149.898438 242.863281 150.023438 C 243.523438 150.230469 244.230469 150.476562 244.738281 150.683594 C 246.242188 151.292969 247.050781 151.640625 247.742188 151.96875 C 249.960938 153.019531 250.519531 153.214844 251.324219 153.214844 C 252.457031 153.21875 252.949219 152.929688 256.007812 150.480469 C 260.863281 146.589844 264.007812 144.683594 268.085938 143.160156 C 270.96875 142.082031 270.152344 140.726562 265.617188 139.070312 C 263.21875 138.195312 262.503906 137.921875 261.300781 137.429688 C 259.71875 136.78125 258.273438 136.042969 257.1875 135.320312 C 255.800781 134.398438 255.558594 134.140625 254.53125 132.542969 L 254.296875 132.179688 L 254.53125 132.25 C 254.660156 132.289062 254.949219 132.402344 255.171875 132.5 C 255.398438 132.597656 255.75 132.738281 255.957031 132.808594 C 256.164062 132.878906 256.664062 133.0625 257.074219 133.210938 C 258.132812 133.605469 261.0625 134.585938 261.476562 134.6875 C 261.667969 134.734375 262.492188 134.949219 263.304688 135.167969 C 267.230469 136.222656 270.710938 136.632812 272.363281 136.234375 C 273.730469 135.90625 274.363281 135.308594 275.246094 133.503906 C 276.816406 130.300781 276.945312 130.054688 277.773438 128.757812 C 278.277344 127.96875 278.765625 127.324219 279.660156 126.25 C 280.992188 124.652344 280.730469 124.265625 278.253906 124.171875 C 275.214844 124.058594 272.804688 123.679688 269.582031 122.804688 C 267.378906 122.203125 267.363281 122.199219 268.164062 122.15625 C 269.5 122.082031 270.4375 122.015625 270.527344 121.988281 C 270.582031 121.96875 270.863281 121.933594 271.152344 121.90625 C 271.605469 121.863281 272.203125 121.777344 273.679688 121.546875 C 274.425781 121.433594 277.230469 120.867188 278.472656 120.578125 C 282.410156 119.675781 282.457031 119.578125 281.621094 114.082031 C 281.488281 113.222656 281.089844 110.035156 281.007812 109.1875 C 280.886719 107.933594 280.785156 106.820312 280.742188 106.261719 C 280.601562 104.492188 280.222656 101.714844 279.964844 100.585938 C 279.941406 100.488281 279.863281 100.132812 279.792969 99.789062 C 278.574219 94.109375 276.570312 89.894531 272.953125 85.386719 C 271.746094 83.878906 271.152344 83.472656 270.703125 83.835938 M 250.125 128.207031 C 250.066406 128.226562 249.671875 128.503906 249.253906 128.820312 C 248.03125 129.742188 247.890625 129.84375 247.625 130.027344 C 247.484375 130.121094 247.25 130.285156 247.101562 130.394531 C 246.953125 130.503906 246.695312 130.6875 246.527344 130.804688 C 246.355469 130.925781 245.886719 131.257812 245.480469 131.546875 C 245.070312 131.839844 244.484375 132.25 244.171875 132.464844 C 243.859375 132.679688 243.230469 133.113281 242.777344 133.429688 C 241.5 134.316406 241.308594 134.445312 240.4375 135.050781 C 239.988281 135.359375 239.5 135.703125 239.347656 135.8125 C 239.195312 135.917969 238.914062 136.113281 238.722656 136.238281 C 238.53125 136.367188 238.355469 136.496094 238.332031 136.53125 C 238.308594 136.566406 238.128906 136.695312 237.9375 136.824219 C 237.746094 136.949219 237.464844 137.144531 237.3125 137.25 C 237.160156 137.359375 236.515625 137.820312 235.875 138.277344 C 235.238281 138.734375 234.359375 139.371094 233.929688 139.691406 C 233.496094 140.015625 233.027344 140.363281 232.882812 140.464844 C 232.738281 140.5625 232.03125 141.078125 231.3125 141.609375 C 230.59375 142.136719 229.867188 142.664062 229.703125 142.78125 C 229.535156 142.898438 229.273438 143.082031 229.125 143.191406 C 228.972656 143.300781 228.660156 143.523438 228.425781 143.691406 C 228.191406 143.855469 227.957031 144.035156 227.902344 144.082031 C 227.84375 144.132812 227.578125 144.332031 227.300781 144.523438 C 227.027344 144.714844 226.675781 144.972656 226.515625 145.09375 C 226.355469 145.210938 225.980469 145.488281 225.679688 145.703125 C 225.09375 146.125 224.363281 146.664062 224.078125 146.882812 C 223.902344 147.023438 223.773438 147.117188 222.589844 147.976562 C 222.226562 148.238281 221.539062 148.75 221.066406 149.109375 C 220.589844 149.46875 219.957031 149.941406 219.65625 150.15625 C 219.355469 150.371094 219.070312 150.578125 219.023438 150.617188 C 218.808594 150.78125 217.925781 151.441406 217.707031 151.601562 C 217.101562 152.035156 216.574219 152.429688 216.476562 152.511719 C 216.421875 152.5625 216.21875 152.710938 216.027344 152.84375 C 215.652344 153.109375 213.28125 154.917969 213.058594 155.113281 C 212.984375 155.179688 212.757812 155.359375 212.558594 155.511719 C 211.96875 155.96875 210.722656 156.976562 210.054688 157.542969 C 209.714844 157.832031 209.316406 158.160156 209.171875 158.269531 C 209.027344 158.378906 208.773438 158.597656 208.601562 158.75 C 208.433594 158.902344 207.984375 159.296875 207.601562 159.632812 C 206.898438 160.246094 206.679688 160.445312 204.8125 162.171875 C 202.707031 164.113281 198.308594 168.585938 196.4375 170.683594 C 196.199219 170.949219 195.695312 171.5 195.3125 171.910156 C 193.191406 174.1875 190.605469 177.289062 188.746094 179.789062 C 187.183594 181.894531 187.238281 181.816406 185.65625 184.183594 C 183.195312 187.855469 182.671875 188.710938 181.703125 190.636719 C 181.34375 191.351562 180.875 192.203125 180.664062 192.53125 C 180.449219 192.859375 180.273438 193.152344 180.273438 193.183594 C 180.273438 193.214844 180.160156 193.402344 180.023438 193.605469 C 179.882812 193.804688 179.519531 194.371094 179.214844 194.859375 C 177.613281 197.441406 176.957031 198.804688 175.21875 203.140625 C 174.933594 203.851562 174.0625 206.441406 173.8125 207.324219 C 173.710938 207.683594 173.589844 207.839844 173.039062 208.316406 C 171.519531 209.636719 170.535156 210.671875 169.890625 211.628906 C 169.648438 211.988281 169.433594 212.265625 169.410156 212.242188 C 169.351562 212.183594 169.792969 210.6875 170.046875 210.085938 C 170.1875 209.753906 170.257812 209.613281 171.597656 206.9375 C 172.769531 204.613281 174.800781 200.429688 175.613281 198.683594 C 176.464844 196.855469 177.738281 194.398438 178.441406 193.226562 C 178.488281 193.152344 178.890625 192.425781 179.339844 191.609375 C 179.792969 190.792969 180.292969 189.902344 180.457031 189.628906 C 181.03125 188.667969 181.785156 187.410156 182.011719 187.046875 C 182.132812 186.847656 182.324219 186.53125 182.429688 186.351562 C 183.71875 184.167969 184.027344 183.710938 186.914062 179.699219 C 187.628906 178.703125 188.558594 177.382812 189.34375 176.238281 C 189.792969 175.589844 190.484375 174.609375 191.753906 172.828125 C 193.574219 170.265625 196.234375 167.285156 199.265625 164.410156 C 200.9375 162.828125 201.019531 162.75 201.675781 162.171875 C 202 161.882812 202.464844 161.464844 202.710938 161.242188 C 202.957031 161.019531 203.394531 160.628906 203.683594 160.371094 C 204.308594 159.8125 205.5 158.734375 206.773438 157.582031 C 207.277344 157.125 208.082031 156.402344 208.5625 155.976562 C 209.042969 155.550781 209.636719 155.019531 209.882812 154.800781 C 210.125 154.578125 210.421875 154.320312 210.535156 154.226562 C 210.648438 154.136719 211.230469 153.632812 211.832031 153.105469 C 212.429688 152.582031 213.078125 152.019531 213.269531 151.859375 C 213.460938 151.699219 213.816406 151.398438 214.0625 151.191406 C 214.304688 150.984375 214.652344 150.695312 214.832031 150.550781 C 215.015625 150.40625 215.332031 150.152344 215.535156 149.984375 C 216.144531 149.484375 217.421875 148.507812 217.84375 148.21875 C 217.964844 148.136719 218.457031 147.792969 218.933594 147.457031 C 219.414062 147.121094 220.101562 146.667969 220.460938 146.445312 C 220.820312 146.222656 221.449219 145.832031 221.855469 145.574219 C 222.929688 144.894531 225.464844 143.453125 227.609375 142.296875 C 229.496094 141.28125 230.929688 140.476562 232.402344 139.605469 C 233.097656 139.191406 233.765625 138.800781 233.886719 138.738281 C 234.003906 138.671875 234.476562 138.386719 234.933594 138.105469 C 235.386719 137.824219 236.054688 137.410156 236.414062 137.1875 C 236.773438 136.964844 237.300781 136.628906 237.589844 136.445312 C 237.878906 136.257812 238.40625 135.921875 238.765625 135.699219 C 240.542969 134.605469 241.953125 133.699219 243.722656 132.519531 C 244.414062 132.058594 245.1875 131.546875 245.445312 131.378906 C 245.699219 131.210938 246.214844 130.855469 246.589844 130.59375 C 247.261719 130.117188 247.949219 129.640625 248.53125 129.238281 C 248.699219 129.121094 249.128906 128.8125 249.488281 128.550781 C 249.847656 128.292969 250.164062 128.097656 250.1875 128.125 C 250.210938 128.148438 250.183594 128.1875 250.125 128.207031 M 237.523438 192.703125 C 237.398438 192.796875 236.980469 193.347656 236.589844 193.925781 C 234.699219 196.71875 232.691406 198.617188 221.507812 208.15625 C 210.082031 217.902344 206.621094 221.050781 203.339844 224.671875 C 197.847656 230.734375 194.535156 236.847656 191.597656 246.335938 C 189.613281 252.746094 189.144531 255.996094 189.132812 263.488281 L 189.121094 268.015625 L 189.382812 268.226562 C 189.695312 268.476562 190.082031 268.503906 190.164062 268.285156 C 190.21875 268.152344 190.242188 268.164062 190.347656 268.367188 C 190.589844 268.824219 191.015625 268.789062 191.398438 268.285156 C 191.535156 268.105469 191.707031 267.898438 191.789062 267.820312 C 191.867188 267.738281 192.324219 267.011719 192.808594 266.199219 C 194.597656 263.1875 195.914062 261.511719 198.460938 259 C 202.820312 254.710938 206.675781 252.519531 214.445312 249.914062 C 226.597656 245.839844 232.492188 245.40625 250.144531 247.296875 C 267.0625 249.113281 271.164062 248.84375 283.5625 245.105469 C 287.960938 243.777344 289.640625 243.316406 291.332031 242.972656 C 294.609375 242.308594 294.539062 241.730469 290.816406 238.621094 C 285.351562 234.054688 280.265625 227.8125 279.128906 224.28125 C 278.53125 222.417969 278.105469 222.308594 276.226562 223.550781 C 272.199219 226.203125 266.765625 227.652344 258.425781 228.292969 C 246.265625 229.226562 241.449219 229.828125 233.363281 231.433594 C 219.644531 234.152344 214.558594 236.726562 205.738281 245.417969 C 201.601562 249.492188 199.824219 251.71875 195.402344 258.347656 C 192.878906 262.132812 192.6875 262.261719 194.769531 258.785156 C 199.898438 250.207031 206.476562 242.179688 212.300781 237.390625 C 216.570312 233.878906 220.101562 231.816406 237.851562 222.464844 C 246.691406 217.808594 249.859375 215.835938 256.8125 210.664062 C 263.011719 206.050781 263.492188 205.335938 260.648438 205.023438 C 254.507812 204.339844 246.578125 200.058594 239.894531 193.816406 C 238.421875 192.445312 238.0625 192.273438 237.523438 192.703125 M 119.996094 199.234375 C 119.546875 199.445312 118.675781 200.375 117.46875 201.917969 C 112.941406 207.714844 112.023438 208.726562 107.054688 213.394531 C 105.640625 214.71875 103.71875 216.527344 102.78125 217.410156 C 99.113281 220.871094 97.277344 222.363281 94.929688 223.789062 C 92.957031 224.992188 93.023438 225.644531 95.367188 227.996094 C 96.964844 229.601562 98.402344 230.703125 100.382812 231.839844 C 100.90625 232.140625 101.710938 232.652344 102.167969 232.972656 C 109.824219 238.390625 119.640625 241.808594 132.023438 243.363281 C 133.289062 243.523438 134.5 243.65625 141.132812 244.375 C 154.617188 245.835938 163.269531 248.523438 171.164062 253.714844 C 178.050781 258.242188 182.914062 263.445312 186.25 269.851562 C 187.167969 271.617188 187.433594 271.960938 187.859375 271.949219 C 188.625 271.929688 188.695312 271.558594 188.378906 269.265625 C 188.136719 267.496094 187.976562 266.011719 187.730469 263.152344 C 187.089844 255.757812 186.21875 252.152344 184.128906 248.257812 C 179.863281 240.316406 172.769531 235.046875 153.207031 225.285156 C 142.847656 220.117188 139.59375 218.257812 135.378906 215.09375 C 130.195312 211.199219 126.726562 207.355469 122.953125 201.320312 C 121.660156 199.257812 120.976562 198.773438 119.996094 199.234375 M 142.09375 245.953125 C 134.4375 246.617188 131.296875 247.648438 123.785156 251.972656 C 117.464844 255.613281 115.160156 256.789062 111.238281 258.367188 C 106.433594 260.296875 102.058594 261.542969 97.355469 262.320312 C 95.175781 262.679688 94.941406 262.777344 93.710938 263.8125 C 92.425781 264.898438 90.496094 265.988281 87.390625 267.390625 C 83.175781 269.292969 80.289062 270.9375 80.289062 271.4375 C 80.289062 271.859375 80.472656 271.898438 81.539062 271.691406 C 82.074219 271.585938 82.882812 271.476562 83.339844 271.449219 C 84.804688 271.355469 87.132812 271.058594 90.921875 270.488281 C 92.960938 270.183594 96.234375 269.710938 98.203125 269.441406 C 109.421875 267.90625 113.800781 266.46875 125.964844 260.332031 C 136.996094 254.769531 139.707031 253.902344 147.324219 253.492188 C 160.027344 252.808594 172.039062 256.601562 178.75 263.421875 C 180.042969 264.734375 180.371094 264.996094 180.796875 265.03125 C 181.179688 265.0625 181.222656 265.035156 181.316406 264.703125 C 181.539062 263.910156 180.273438 262.289062 177.628906 259.980469 C 174.894531 257.585938 174.023438 256.953125 171.035156 255.15625 C 170.292969 254.707031 169.308594 254.101562 168.855469 253.804688 C 163.894531 250.589844 155.976562 247.421875 150.546875 246.472656 C 147.914062 246.015625 144.105469 245.777344 142.09375 245.953125 M 234.886719 247.386719 C 218.925781 248.121094 208.074219 251.71875 200.199219 258.878906 C 197.296875 261.523438 192.5625 266.867188 192.730469 267.316406 C 193.105469 268.332031 193.449219 268.175781 195.941406 265.847656 C 199.28125 262.726562 206.367188 257.882812 209.476562 256.597656 C 215.691406 254.023438 224.15625 252.753906 229.570312 253.582031 C 234.820312 254.386719 241.769531 256.554688 251.144531 260.3125 C 261.980469 264.65625 272.101562 268.050781 276.511719 268.820312 C 279.085938 269.269531 281.652344 269.511719 287.191406 269.835938 C 288.054688 269.886719 289.585938 270.03125 290.589844 270.152344 C 293.035156 270.449219 293.496094 270.363281 293.398438 269.628906 C 293.339844 269.222656 293.296875 269.175781 292.152344 268.375 C 290.277344 267.066406 286.980469 263.546875 285.03125 260.777344 C 284.238281 259.648438 284.550781 259.746094 281.667969 259.742188 C 275.4375 259.738281 269.929688 258.023438 256.984375 252.058594 C 247.335938 247.613281 244.238281 246.957031 234.886719 247.386719 M 151.203125 251.1875 C 152.859375 251.359375 154.921875 251.664062 155.082031 251.757812 C 155.285156 251.875 154.730469 251.859375 153.613281 251.710938 C 142.253906 250.210938 132.746094 252.507812 119.644531 259.917969 C 107.957031 266.53125 104.910156 267.578125 94.148438 268.660156 C 91.597656 268.917969 89.414062 269.203125 89.035156 269.328125 C 88.996094 269.34375 88.949219 269.316406 88.933594 269.265625 C 88.859375 269.039062 91.066406 268.652344 94.933594 268.214844 C 104.707031 267.109375 108.171875 265.933594 118.035156 260.359375 C 126.707031 255.460938 131.234375 253.496094 136.898438 252.183594 C 141.410156 251.136719 147.023438 250.746094 151.203125 251.1875 M 147.0625 254.253906 C 144.597656 254.488281 143.472656 254.664062 141.570312 255.121094 C 139.511719 255.613281 137.058594 256.371094 135.164062 257.101562 C 131.113281 258.660156 128.941406 259.601562 124.527344 261.710938 C 118.578125 264.558594 117.976562 264.84375 117.421875 265.074219 C 117.113281 265.203125 116.523438 265.445312 116.117188 265.613281 C 115.390625 265.910156 113.417969 266.585938 111.234375 267.285156 C 110.632812 267.480469 108.988281 268.011719 107.574219 268.46875 C 102.8125 270.015625 99.148438 270.941406 93.058594 272.148438 C 89.046875 272.945312 85.101562 273.15625 79.371094 272.882812 C 76.175781 272.734375 75.703125 272.933594 76.140625 274.25 C 76.183594 274.375 76.125 274.523438 75.933594 274.765625 C 75.671875 275.09375 75.664062 275.136719 75.675781 275.90625 C 75.6875 276.816406 75.582031 277.113281 74.992188 277.785156 C 74.492188 278.355469 74.445312 278.480469 74.445312 279.320312 C 74.445312 280.390625 74.335938 280.6875 73.65625 281.410156 C 73.007812 282.09375 72.878906 282.300781 72.878906 282.628906 C 72.878906 283.003906 72.652344 283.433594 72.128906 284.050781 C 70.777344 285.648438 71.292969 286.535156 73.191406 285.871094 C 74.480469 285.421875 75.464844 285.273438 78.71875 285.039062 C 83.425781 284.699219 89.921875 284.636719 94.148438 284.890625 C 108.683594 285.761719 113.027344 285.65625 127.449219 284.074219 C 134.113281 283.339844 136.988281 283.089844 143.792969 282.632812 C 148.375 282.328125 149.886719 282.207031 155.386719 281.714844 C 168.871094 280.507812 173.605469 280.640625 176.101562 282.292969 C 177.078125 282.9375 177.554688 282.769531 178.574219 281.414062 C 179.222656 280.554688 180.191406 279.578125 180.605469 279.367188 C 180.796875 279.265625 181.039062 279.082031 181.140625 278.953125 C 181.238281 278.824219 181.566406 278.597656 181.867188 278.449219 C 182.320312 278.222656 182.449219 278.101562 182.644531 277.746094 C 182.820312 277.414062 182.976562 277.261719 183.3125 277.089844 C 183.550781 276.96875 183.875 276.753906 184.035156 276.609375 C 184.191406 276.46875 184.574219 276.199219 184.890625 276.007812 C 187.953125 274.152344 188.113281 273.722656 186.453125 271.84375 C 185.96875 271.292969 185.15625 270.328125 184.652344 269.703125 C 181.492188 265.792969 175.632812 260.914062 171.757812 258.964844 C 169.125 257.644531 163.917969 255.875 160.703125 255.207031 C 157.035156 254.449219 150.109375 253.964844 147.0625 254.253906 M 220.28125 254.902344 C 211.636719 255.492188 203.335938 259.222656 196.960938 265.390625 C 195.996094 266.320312 194.664062 267.574219 194 268.175781 C 190.171875 271.632812 189.152344 273.035156 189.710938 274.078125 C 189.785156 274.21875 189.898438 274.464844 189.957031 274.621094 C 190.09375 274.992188 190.53125 275.21875 191.265625 275.300781 C 191.828125 275.363281 192.304688 275.597656 192.304688 275.8125 C 192.304688 276.066406 192.714844 276.417969 193.386719 276.738281 C 194.066406 277.0625 194.117188 277.105469 194.359375 277.585938 C 194.59375 278.046875 194.664062 278.117188 195.234375 278.394531 C 195.976562 278.757812 196.140625 278.886719 196.140625 279.101562 C 196.140625 279.515625 196.421875 279.863281 197 280.15625 C 197.523438 280.421875 197.613281 280.511719 197.972656 281.105469 C 198.332031 281.699219 198.40625 281.769531 198.789062 281.890625 C 199.015625 281.964844 199.246094 282.101562 199.296875 282.199219 C 199.652344 282.867188 200.238281 282.921875 202.601562 282.503906 C 206.050781 281.894531 209.15625 281.921875 213.726562 282.589844 C 214.699219 282.734375 216.285156 282.96875 217.257812 283.109375 C 222.136719 283.828125 228.84375 284.359375 236.542969 284.644531 C 245.335938 284.964844 250.097656 285.21875 256.070312 285.683594 C 262.019531 286.144531 267.089844 286.398438 272.808594 286.519531 C 284.207031 286.753906 285.351562 286.816406 292.859375 287.609375 C 298.613281 288.21875 298.605469 288.21875 301.660156 288.21875 C 305.488281 288.222656 305.976562 288.105469 305.976562 287.183594 C 305.976562 286.683594 305.859375 286.554688 304.582031 285.640625 C 302.953125 284.480469 302.851562 284.355469 303.054688 283.765625 C 303.410156 282.714844 303.21875 282.121094 302.171875 281.003906 C 301.257812 280.03125 301.136719 279.757812 301.320312 279.070312 C 301.773438 277.367188 301.40625 276.378906 300.113281 275.828125 C 299.289062 275.472656 299.132812 275.375 299.164062 275.242188 C 299.460938 274.082031 299.261719 273.859375 297.261719 273.113281 C 295.578125 272.488281 294.609375 271.992188 293.789062 271.328125 C 292.953125 270.660156 292.632812 270.613281 290.972656 270.917969 C 285.886719 271.855469 279.96875 271.117188 270.804688 268.402344 C 265.679688 266.882812 259.347656 264.675781 249.054688 260.820312 C 235.847656 255.867188 228.449219 254.347656 220.28125 254.902344 M 156.214844 258.429688 C 165.738281 259.589844 172.25 263.078125 178.40625 270.316406 C 181.886719 274.402344 181.574219 274.421875 177.574219 270.367188 C 173.71875 266.464844 172.113281 265.097656 169.554688 263.546875 C 161.179688 258.46875 148.871094 257.554688 138.113281 261.214844 C 134.984375 262.28125 132.3125 263.53125 126.375 266.703125 C 115.855469 272.324219 111.625 273.570312 99.074219 274.726562 C 97.492188 274.871094 95.746094 275.050781 95.199219 275.121094 C 94.03125 275.273438 93.886719 275.277344 93.886719 275.171875 C 93.886719 274.941406 96.382812 274.53125 100.816406 274.027344 C 112.246094 272.730469 116.1875 271.496094 126.097656 266.117188 C 135.089844 261.238281 139.457031 259.554688 145.484375 258.648438 C 148.511719 258.195312 153.457031 258.09375 156.214844 258.429688 M 236.90625 259.175781 C 240.421875 259.75 245.765625 261.621094 255.765625 265.773438 C 271.761719 272.414062 284.050781 274.902344 291.550781 273.015625 C 291.851562 272.941406 291.828125 273.117188 291.519531 273.277344 C 290.261719 273.929688 284.714844 274.144531 280.902344 273.6875 C 273.871094 272.847656 266.054688 270.546875 255.113281 266.097656 C 241.210938 260.445312 237.664062 259.355469 233.167969 259.351562 C 232.011719 259.351562 231.675781 259.230469 232.554688 259.132812 C 232.832031 259.105469 233.117188 259.066406 233.1875 259.050781 C 233.683594 258.945312 235.960938 259.019531 236.90625 259.175781 M 228.394531 260.839844 C 235.511719 261.289062 240.96875 262.921875 253.933594 268.480469 C 267.257812 274.191406 273.875 275.949219 282.070312 275.949219 C 284.648438 275.949219 284.4375 276.148438 281.742188 276.261719 C 274.988281 276.539062 266.875 274.570312 255.765625 269.964844 C 254.304688 269.355469 252.105469 268.445312 250.882812 267.9375 C 236.835938 262.113281 228.671875 260.625 219.457031 262.203125 C 212.226562 263.441406 205.671875 266.628906 198.363281 272.453125 C 196.625 273.835938 196.164062 274.167969 196.078125 274.085938 C 195.839844 273.839844 199.222656 270.625 201.574219 268.863281 C 209.054688 263.257812 219.09375 260.253906 228.394531 260.839844 M 154.558594 264.195312 C 162.019531 265.101562 169.425781 267.558594 175.21875 271.054688 C 176.738281 271.972656 179.316406 273.648438 179.316406 273.71875 C 179.316406 273.859375 178.957031 273.691406 177.828125 273.011719 C 168.371094 267.351562 158.738281 264.304688 150.242188 264.300781 C 145.988281 264.296875 143.546875 264.789062 138.144531 266.726562 C 137.53125 266.945312 136.972656 267.128906 136.902344 267.128906 C 136.511719 267.128906 136.96875 266.902344 138.640625 266.265625 C 142.046875 264.972656 144.421875 264.417969 148.152344 264.035156 C 149 263.949219 153.441406 264.058594 154.558594 264.195312 M 228.710938 267.953125 C 234.941406 268.585938 238.441406 269.625 246.699219 273.308594 C 255.972656 277.441406 259.085938 278.253906 265.59375 278.242188 C 268.683594 278.238281 268.894531 278.3125 266.664062 278.625 C 265.128906 278.839844 261.648438 278.839844 260.082031 278.625 C 256.058594 278.070312 253.417969 277.210938 246.65625 274.246094 C 237.480469 270.21875 233.695312 269.203125 226.597656 268.867188 C 217.671875 268.441406 208.675781 270.96875 202.039062 275.761719 C 199.632812 277.503906 199.707031 276.886719 202.15625 274.796875 C 206.390625 271.183594 213.460938 268.488281 220.199219 267.914062 C 220.796875 267.863281 221.464844 267.808594 221.679688 267.789062 C 222.578125 267.714844 227.476562 267.828125 228.710938 267.953125 M 152.972656 268.875 C 159.375 269.144531 164.941406 270.15625 170.511719 272.066406 C 173.507812 273.09375 179.230469 275.589844 179.230469 275.871094 C 179.230469 276.023438 178.988281 275.9375 175.84375 274.6875 C 165.753906 270.671875 159.027344 269.367188 149.214844 269.511719 C 141.773438 269.621094 137.183594 270.417969 126.925781 273.375 C 116.789062 276.292969 114.300781 276.734375 102.039062 277.785156 C 96.96875 278.21875 94.402344 278.476562 90.703125 278.917969 C 86.375 279.433594 86.027344 279.46875 85.929688 279.367188 C 85.8125 279.25 85.78125 279.253906 89.136719 278.792969 C 92.992188 278.257812 95.773438 277.953125 101.078125 277.480469 C 114.828125 276.257812 116.378906 275.96875 128.582031 272.367188 C 137.050781 269.867188 142.625 268.941406 150.070312 268.804688 C 150.546875 268.796875 151.855469 268.828125 152.972656 268.875 M 160.617188 273.066406 C 166.445312 273.65625 172.613281 275.738281 175.433594 278.066406 C 176.203125 278.703125 175.726562 278.613281 173.960938 277.792969 C 162.832031 272.621094 150.148438 272.496094 132.765625 277.390625 C 121.882812 280.453125 118.859375 280.839844 104.433594 281.015625 C 92.539062 281.160156 87.957031 281.371094 83.425781 281.980469 C 81.425781 282.25 81.175781 282.128906 83.078125 281.816406 C 87.703125 281.050781 92.347656 280.761719 102.953125 280.582031 C 114.195312 280.390625 118.175781 280.097656 123.328125 279.089844 C 125.953125 278.574219 127.578125 278.152344 133.492188 276.4375 C 140.78125 274.324219 145.335938 273.449219 151.027344 273.070312 C 151.796875 273.019531 152.621094 272.960938 152.859375 272.945312 C 153.753906 272.878906 159.695312 272.972656 160.617188 273.066406 M 220.503906 274.203125 C 226.878906 274.53125 232.589844 275.792969 245.042969 279.617188 C 252.835938 282.011719 256.371094 282.847656 261.867188 283.585938 C 269.714844 284.640625 277.679688 284.164062 284.402344 282.238281 C 285.085938 282.042969 285.230469 282.027344 285.230469 282.148438 C 285.230469 282.488281 279.601562 283.894531 276.492188 284.332031 C 267.277344 285.625 258.160156 284.597656 244.957031 280.78125 C 236.042969 278.207031 232.828125 277.359375 229.046875 276.605469 C 219.566406 274.707031 213.992188 275.007812 205.898438 277.859375 C 202.101562 279.195312 202.699219 278.496094 206.929688 276.644531 C 210.25 275.191406 213.453125 274.40625 216.832031 274.210938 C 218.621094 274.109375 218.691406 274.109375 220.503906 274.203125 M 223.6875 277.914062 C 226.175781 278.246094 228.277344 278.738281 233.027344 280.089844 C 237.835938 281.460938 239.8125 281.90625 241.882812 282.089844 C 243.511719 282.230469 243.351562 282.363281 241.621094 282.300781 C 239.402344 282.222656 237.746094 281.886719 232.449219 280.4375 C 226.097656 278.695312 223.722656 278.285156 219.9375 278.289062 C 214.972656 278.292969 212.164062 278.839844 204.792969 281.234375 C 204.511719 281.328125 204.632812 281.085938 204.953125 280.925781 C 207.707031 279.515625 212.570312 278.21875 216.363281 277.878906 C 216.960938 277.824219 217.589844 277.765625 217.757812 277.746094 C 218.539062 277.660156 222.660156 277.773438 223.6875 277.914062 M 172.253906 282.203125 C 172.183594 282.222656 170.730469 282.394531 169.03125 282.59375 C 167.328125 282.789062 164.011719 283.199219 161.664062 283.507812 C 153.464844 284.574219 148.066406 285.082031 138.867188 285.644531 C 128.621094 286.269531 122.652344 286.453125 107.136719 286.617188 C 94.300781 286.753906 87.414062 286.675781 78.894531 286.300781 C 73.992188 286.082031 72.539062 286.160156 70.472656 286.746094 C 68.960938 287.175781 69.097656 288.25 70.726562 288.742188 C 73.539062 289.59375 76.5 289.804688 88.960938 290.023438 C 107.558594 290.355469 126.042969 290 141.875 289.007812 C 153.539062 288.277344 163.445312 287.359375 171.058594 286.300781 C 171.574219 286.230469 172.046875 286.167969 172.109375 286.167969 C 172.171875 286.167969 172.445312 286.441406 172.714844 286.777344 C 174.824219 289.339844 178.832031 290.917969 184.285156 291.332031 C 192.023438 291.917969 199.566406 290.210938 202.675781 287.171875 L 203.332031 286.53125 L 204.726562 286.699219 C 207.992188 287.089844 216.964844 287.902344 222.03125 288.261719 C 229.421875 288.789062 241.441406 289.386719 255.460938 289.925781 C 268.507812 290.429688 272.152344 290.59375 278.429688 290.976562 C 290.539062 291.710938 292.714844 291.804688 296.648438 291.734375 C 302.792969 291.625 305.804688 291.039062 305.804688 289.949219 C 305.804688 289.195312 304.886719 288.996094 301.132812 288.925781 C 294.488281 288.800781 290.703125 288.589844 283.121094 287.914062 C 271.613281 286.894531 266.578125 286.601562 249.359375 285.949219 C 228.300781 285.152344 221.960938 284.753906 205.773438 283.199219 C 201.957031 282.832031 201.886719 282.839844 200.851562 283.894531 C 197.097656 287.722656 184.089844 289.0625 178.425781 286.203125 C 177.046875 285.507812 176.335938 284.902344 175.371094 283.59375 C 174.460938 282.355469 173.460938 281.910156 172.253906 282.203125 " fill-opacity="1" fill-rule="evenodd"/></g></svg>