<svg xmlns="http://www.w3.org/2000/svg" xmlns:xlink="http://www.w3.org/1999/xlink" width="500" zoomAndPan="magnify" viewBox="0 0 375 374.999991" height="500" preserveAspectRatio="xMidYMid meet" version="1.0"><defs><clipPath id="ad4bd953d0"><path d="M 187.5 0 C 83.945312 0 0 83.945312 0 187.5 C 0 291.054688 83.945312 375 187.5 375 C 291.054688 375 375 291.054688 375 187.5 C 375 83.945312 291.054688 0 187.5 0 Z M 187.5 0 " clip-rule="nonzero"/></clipPath><linearGradient x1="-0" gradientTransform="matrix(1.464844, 0, 0, 1.464844, 0.0000045, 0)" y1="128" x2="255.999988" gradientUnits="userSpaceOnUse" y2="128" id="c0c2cbfbc8"><stop stop-opacity="1" stop-color="rgb(0%, 28.999329%, 67.799377%)" offset="0"/><stop stop-opacity="1" stop-color="rgb(0.309753%, 29.051208%, 67.886353%)" offset="0.00390625"/><stop stop-opacity="1" stop-color="rgb(0.621033%, 29.104614%, 67.974854%)" offset="0.0078125"/><stop stop-opacity="1" stop-color="rgb(0.932312%, 29.156494%, 68.061829%)" offset="0.0117188"/><stop stop-opacity="1" stop-color="rgb(1.243591%, 29.208374%, 68.148804%)" offset="0.015625"/><stop stop-opacity="1" stop-color="rgb(1.553345%, 29.260254%, 68.235779%)" offset="0.0195313"/><stop stop-opacity="1" stop-color="rgb(1.864624%, 29.31366%, 68.32428%)" offset="0.0234375"/><stop stop-opacity="1" stop-color="rgb(2.175903%, 29.36554%, 68.411255%)" offset="0.0273438"/><stop stop-opacity="1" stop-color="rgb(2.487183%, 29.417419%, 68.499756%)" offset="0.03125"/><stop stop-opacity="1" stop-color="rgb(2.796936%, 29.469299%, 68.586731%)" offset="0.0351562"/><stop stop-opacity="1" stop-color="rgb(3.108215%, 29.522705%, 68.673706%)" offset="0.0390625"/><stop stop-opacity="1" stop-color="rgb(3.419495%, 29.574585%, 68.760681%)" offset="0.0429688"/><stop stop-opacity="1" stop-color="rgb(3.730774%, 29.627991%, 68.849182%)" offset="0.046875"/><stop stop-opacity="1" stop-color="rgb(4.040527%, 29.679871%, 68.936157%)" offset="0.0507812"/><stop stop-opacity="1" stop-color="rgb(4.351807%, 29.73175%, 69.024658%)" offset="0.0546875"/><stop stop-opacity="1" stop-color="rgb(4.663086%, 29.78363%, 69.111633%)" offset="0.0585938"/><stop stop-opacity="1" stop-color="rgb(4.974365%, 29.837036%, 69.198608%)" offset="0.0625"/><stop stop-opacity="1" stop-color="rgb(5.284119%, 29.888916%, 69.285583%)" offset="0.0664062"/><stop stop-opacity="1" stop-color="rgb(5.595398%, 29.940796%, 69.374084%)" offset="0.0703125"/><stop stop-opacity="1" stop-color="rgb(5.906677%, 29.992676%, 69.46106%)" offset="0.0742188"/><stop stop-opacity="1" stop-color="rgb(6.217957%, 30.046082%, 69.549561%)" offset="0.078125"/><stop stop-opacity="1" stop-color="rgb(6.529236%, 30.097961%, 69.636536%)" offset="0.0820312"/><stop stop-opacity="1" stop-color="rgb(6.840515%, 30.151367%, 69.723511%)" offset="0.0859375"/><stop stop-opacity="1" stop-color="rgb(7.150269%, 30.203247%, 69.810486%)" offset="0.0898438"/><stop stop-opacity="1" stop-color="rgb(7.461548%, 30.255127%, 69.898987%)" offset="0.09375"/><stop stop-opacity="1" stop-color="rgb(7.772827%, 30.307007%, 69.985962%)" offset="0.0976562"/><stop stop-opacity="1" stop-color="rgb(8.084106%, 30.360413%, 70.074463%)" offset="0.101562"/><stop stop-opacity="1" stop-color="rgb(8.39386%, 30.412292%, 70.161438%)" offset="0.105469"/><stop stop-opacity="1" stop-color="rgb(8.705139%, 30.464172%, 70.249939%)" offset="0.109375"/><stop stop-opacity="1" stop-color="rgb(9.016418%, 30.516052%, 70.336914%)" offset="0.113281"/><stop stop-opacity="1" stop-color="rgb(9.327698%, 30.569458%, 70.423889%)" offset="0.117188"/><stop stop-opacity="1" stop-color="rgb(9.637451%, 30.621338%, 70.510864%)" offset="0.121094"/><stop stop-opacity="1" stop-color="rgb(9.94873%, 30.674744%, 70.599365%)" offset="0.125"/><stop stop-opacity="1" stop-color="rgb(10.26001%, 30.726624%, 70.68634%)" offset="0.128906"/><stop stop-opacity="1" stop-color="rgb(10.571289%, 30.778503%, 70.774841%)" offset="0.132812"/><stop stop-opacity="1" stop-color="rgb(10.881042%, 30.830383%, 70.861816%)" offset="0.136719"/><stop stop-opacity="1" stop-color="rgb(11.192322%, 30.883789%, 70.948792%)" offset="0.140625"/><stop stop-opacity="1" stop-color="rgb(11.503601%, 30.935669%, 71.035767%)" offset="0.144531"/><stop stop-opacity="1" stop-color="rgb(11.81488%, 30.987549%, 71.124268%)" offset="0.148438"/><stop stop-opacity="1" stop-color="rgb(12.12616%, 31.039429%, 71.211243%)" offset="0.152344"/><stop stop-opacity="1" stop-color="rgb(12.437439%, 31.092834%, 71.299744%)" offset="0.15625"/><stop stop-opacity="1" stop-color="rgb(12.747192%, 31.144714%, 71.386719%)" offset="0.160156"/><stop stop-opacity="1" stop-color="rgb(13.058472%, 31.19812%, 71.473694%)" offset="0.164062"/><stop stop-opacity="1" stop-color="rgb(13.369751%, 31.25%, 71.560669%)" offset="0.167969"/><stop stop-opacity="1" stop-color="rgb(13.68103%, 31.30188%, 71.64917%)" offset="0.171875"/><stop stop-opacity="1" stop-color="rgb(13.990784%, 31.35376%, 71.736145%)" offset="0.175781"/><stop stop-opacity="1" stop-color="rgb(14.302063%, 31.407166%, 71.824646%)" offset="0.179688"/><stop stop-opacity="1" stop-color="rgb(14.613342%, 31.459045%, 71.911621%)" offset="0.183594"/><stop stop-opacity="1" stop-color="rgb(14.924622%, 31.512451%, 71.998596%)" offset="0.1875"/><stop stop-opacity="1" stop-color="rgb(15.234375%, 31.564331%, 72.085571%)" offset="0.191406"/><stop stop-opacity="1" stop-color="rgb(15.545654%, 31.616211%, 72.174072%)" offset="0.195312"/><stop stop-opacity="1" stop-color="rgb(15.856934%, 31.668091%, 72.261047%)" offset="0.199219"/><stop stop-opacity="1" stop-color="rgb(16.168213%, 31.721497%, 72.349548%)" offset="0.203125"/><stop stop-opacity="1" stop-color="rgb(16.477966%, 31.773376%, 72.436523%)" offset="0.207031"/><stop stop-opacity="1" stop-color="rgb(16.789246%, 31.825256%, 72.523499%)" offset="0.210938"/><stop stop-opacity="1" stop-color="rgb(17.100525%, 31.877136%, 72.610474%)" offset="0.214844"/><stop stop-opacity="1" stop-color="rgb(17.411804%, 31.930542%, 72.698975%)" offset="0.21875"/><stop stop-opacity="1" stop-color="rgb(17.723083%, 31.982422%, 72.78595%)" offset="0.222656"/><stop stop-opacity="1" stop-color="rgb(18.034363%, 32.035828%, 72.874451%)" offset="0.226562"/><stop stop-opacity="1" stop-color="rgb(18.344116%, 32.087708%, 72.961426%)" offset="0.230469"/><stop stop-opacity="1" stop-color="rgb(18.655396%, 32.139587%, 73.049927%)" offset="0.234375"/><stop stop-opacity="1" stop-color="rgb(18.966675%, 32.191467%, 73.136902%)" offset="0.238281"/><stop stop-opacity="1" stop-color="rgb(19.277954%, 32.244873%, 73.223877%)" offset="0.242188"/><stop stop-opacity="1" stop-color="rgb(19.587708%, 32.296753%, 73.310852%)" offset="0.246094"/><stop stop-opacity="1" stop-color="rgb(19.898987%, 32.348633%, 73.399353%)" offset="0.25"/><stop stop-opacity="1" stop-color="rgb(20.210266%, 32.400513%, 73.486328%)" offset="0.253906"/><stop stop-opacity="1" stop-color="rgb(20.521545%, 32.453918%, 73.574829%)" offset="0.257812"/><stop stop-opacity="1" stop-color="rgb(20.831299%, 32.505798%, 73.661804%)" offset="0.261719"/><stop stop-opacity="1" stop-color="rgb(21.142578%, 32.559204%, 73.748779%)" offset="0.265625"/><stop stop-opacity="1" stop-color="rgb(21.453857%, 32.611084%, 73.835754%)" offset="0.269531"/><stop stop-opacity="1" stop-color="rgb(21.765137%, 32.662964%, 73.924255%)" offset="0.273438"/><stop stop-opacity="1" stop-color="rgb(22.07489%, 32.714844%, 74.01123%)" offset="0.277344"/><stop stop-opacity="1" stop-color="rgb(22.386169%, 32.76825%, 74.099731%)" offset="0.28125"/><stop stop-opacity="1" stop-color="rgb(22.697449%, 32.820129%, 74.186707%)" offset="0.285156"/><stop stop-opacity="1" stop-color="rgb(23.008728%, 32.872009%, 74.273682%)" offset="0.289063"/><stop stop-opacity="1" stop-color="rgb(23.318481%, 32.923889%, 74.360657%)" offset="0.292969"/><stop stop-opacity="1" stop-color="rgb(23.629761%, 32.977295%, 74.449158%)" offset="0.296875"/><stop stop-opacity="1" stop-color="rgb(23.94104%, 33.029175%, 74.536133%)" offset="0.300781"/><stop stop-opacity="1" stop-color="rgb(24.252319%, 33.082581%, 74.624634%)" offset="0.304688"/><stop stop-opacity="1" stop-color="rgb(24.563599%, 33.13446%, 74.711609%)" offset="0.308594"/><stop stop-opacity="1" stop-color="rgb(24.874878%, 33.18634%, 74.798584%)" offset="0.3125"/><stop stop-opacity="1" stop-color="rgb(25.184631%, 33.23822%, 74.885559%)" offset="0.316406"/><stop stop-opacity="1" stop-color="rgb(25.495911%, 33.291626%, 74.97406%)" offset="0.320312"/><stop stop-opacity="1" stop-color="rgb(25.80719%, 33.343506%, 75.061035%)" offset="0.324219"/><stop stop-opacity="1" stop-color="rgb(26.118469%, 33.395386%, 75.149536%)" offset="0.328125"/><stop stop-opacity="1" stop-color="rgb(26.428223%, 33.447266%, 75.236511%)" offset="0.332031"/><stop stop-opacity="1" stop-color="rgb(26.739502%, 33.500671%, 75.323486%)" offset="0.335938"/><stop stop-opacity="1" stop-color="rgb(27.050781%, 33.552551%, 75.410461%)" offset="0.339844"/><stop stop-opacity="1" stop-color="rgb(27.362061%, 33.605957%, 75.498962%)" offset="0.34375"/><stop stop-opacity="1" stop-color="rgb(27.671814%, 33.657837%, 75.585938%)" offset="0.347656"/><stop stop-opacity="1" stop-color="rgb(27.983093%, 33.709717%, 75.674438%)" offset="0.351562"/><stop stop-opacity="1" stop-color="rgb(28.294373%, 33.761597%, 75.761414%)" offset="0.355469"/><stop stop-opacity="1" stop-color="rgb(28.605652%, 33.815002%, 75.849915%)" offset="0.359375"/><stop stop-opacity="1" stop-color="rgb(28.915405%, 33.866882%, 75.93689%)" offset="0.363281"/><stop stop-opacity="1" stop-color="rgb(29.226685%, 33.920288%, 76.023865%)" offset="0.367188"/><stop stop-opacity="1" stop-color="rgb(29.537964%, 33.972168%, 76.11084%)" offset="0.371094"/><stop stop-opacity="1" stop-color="rgb(29.849243%, 34.024048%, 76.199341%)" offset="0.375"/><stop stop-opacity="1" stop-color="rgb(30.160522%, 34.075928%, 76.286316%)" offset="0.378906"/><stop stop-opacity="1" stop-color="rgb(30.471802%, 34.129333%, 76.374817%)" offset="0.382812"/><stop stop-opacity="1" stop-color="rgb(30.781555%, 34.181213%, 76.461792%)" offset="0.386719"/><stop stop-opacity="1" stop-color="rgb(31.092834%, 34.233093%, 76.548767%)" offset="0.390625"/><stop stop-opacity="1" stop-color="rgb(31.404114%, 34.284973%, 76.635742%)" offset="0.394531"/><stop stop-opacity="1" stop-color="rgb(31.715393%, 34.338379%, 76.724243%)" offset="0.398438"/><stop stop-opacity="1" stop-color="rgb(32.025146%, 34.390259%, 76.811218%)" offset="0.402344"/><stop stop-opacity="1" stop-color="rgb(32.336426%, 34.443665%, 76.899719%)" offset="0.40625"/><stop stop-opacity="1" stop-color="rgb(32.647705%, 34.495544%, 76.986694%)" offset="0.410156"/><stop stop-opacity="1" stop-color="rgb(32.958984%, 34.547424%, 77.073669%)" offset="0.414062"/><stop stop-opacity="1" stop-color="rgb(33.268738%, 34.599304%, 77.160645%)" offset="0.417969"/><stop stop-opacity="1" stop-color="rgb(33.580017%, 34.65271%, 77.249146%)" offset="0.421875"/><stop stop-opacity="1" stop-color="rgb(33.891296%, 34.70459%, 77.336121%)" offset="0.425781"/><stop stop-opacity="1" stop-color="rgb(34.202576%, 34.75647%, 77.424622%)" offset="0.429688"/><stop stop-opacity="1" stop-color="rgb(34.512329%, 34.80835%, 77.511597%)" offset="0.433594"/><stop stop-opacity="1" stop-color="rgb(34.823608%, 34.861755%, 77.598572%)" offset="0.4375"/><stop stop-opacity="1" stop-color="rgb(35.134888%, 34.913635%, 77.685547%)" offset="0.441406"/><stop stop-opacity="1" stop-color="rgb(35.446167%, 34.967041%, 77.774048%)" offset="0.445312"/><stop stop-opacity="1" stop-color="rgb(35.757446%, 35.018921%, 77.861023%)" offset="0.449219"/><stop stop-opacity="1" stop-color="rgb(36.068726%, 35.070801%, 77.949524%)" offset="0.453125"/><stop stop-opacity="1" stop-color="rgb(36.378479%, 35.122681%, 78.036499%)" offset="0.457031"/><stop stop-opacity="1" stop-color="rgb(36.689758%, 35.176086%, 78.123474%)" offset="0.460938"/><stop stop-opacity="1" stop-color="rgb(37.001038%, 35.227966%, 78.210449%)" offset="0.464844"/><stop stop-opacity="1" stop-color="rgb(37.312317%, 35.279846%, 78.29895%)" offset="0.46875"/><stop stop-opacity="1" stop-color="rgb(37.62207%, 35.331726%, 78.385925%)" offset="0.472656"/><stop stop-opacity="1" stop-color="rgb(37.93335%, 35.385132%, 78.474426%)" offset="0.476562"/><stop stop-opacity="1" stop-color="rgb(38.244629%, 35.437012%, 78.561401%)" offset="0.480469"/><stop stop-opacity="1" stop-color="rgb(38.555908%, 35.490417%, 78.649902%)" offset="0.484375"/><stop stop-opacity="1" stop-color="rgb(38.865662%, 35.542297%, 78.736877%)" offset="0.488281"/><stop stop-opacity="1" stop-color="rgb(39.176941%, 35.594177%, 78.823853%)" offset="0.492188"/><stop stop-opacity="1" stop-color="rgb(39.48822%, 35.646057%, 78.910828%)" offset="0.496094"/><stop stop-opacity="1" stop-color="rgb(39.7995%, 35.699463%, 78.999329%)" offset="0.5"/><stop stop-opacity="1" stop-color="rgb(40.109253%, 35.751343%, 79.086304%)" offset="0.503906"/><stop stop-opacity="1" stop-color="rgb(40.420532%, 35.803223%, 79.174805%)" offset="0.507812"/><stop stop-opacity="1" stop-color="rgb(40.731812%, 35.855103%, 79.26178%)" offset="0.511719"/><stop stop-opacity="1" stop-color="rgb(41.043091%, 35.908508%, 79.348755%)" offset="0.515625"/><stop stop-opacity="1" stop-color="rgb(41.352844%, 35.960388%, 79.43573%)" offset="0.519531"/><stop stop-opacity="1" stop-color="rgb(41.664124%, 36.013794%, 79.524231%)" offset="0.523438"/><stop stop-opacity="1" stop-color="rgb(41.975403%, 36.065674%, 79.611206%)" offset="0.527344"/><stop stop-opacity="1" stop-color="rgb(42.286682%, 36.117554%, 79.699707%)" offset="0.53125"/><stop stop-opacity="1" stop-color="rgb(42.597961%, 36.169434%, 79.786682%)" offset="0.535156"/><stop stop-opacity="1" stop-color="rgb(42.909241%, 36.222839%, 79.873657%)" offset="0.539062"/><stop stop-opacity="1" stop-color="rgb(43.218994%, 36.274719%, 79.960632%)" offset="0.542969"/><stop stop-opacity="1" stop-color="rgb(43.530273%, 36.326599%, 80.049133%)" offset="0.546875"/><stop stop-opacity="1" stop-color="rgb(43.841553%, 36.378479%, 80.136108%)" offset="0.550781"/><stop stop-opacity="1" stop-color="rgb(44.152832%, 36.431885%, 80.224609%)" offset="0.554688"/><stop stop-opacity="1" stop-color="rgb(44.462585%, 36.483765%, 80.311584%)" offset="0.558594"/><stop stop-opacity="1" stop-color="rgb(44.773865%, 36.53717%, 80.39856%)" offset="0.5625"/><stop stop-opacity="1" stop-color="rgb(45.085144%, 36.58905%, 80.485535%)" offset="0.566406"/><stop stop-opacity="1" stop-color="rgb(45.396423%, 36.64093%, 80.574036%)" offset="0.570312"/><stop stop-opacity="1" stop-color="rgb(45.706177%, 36.69281%, 80.661011%)" offset="0.574219"/><stop stop-opacity="1" stop-color="rgb(46.017456%, 36.746216%, 80.749512%)" offset="0.578125"/><stop stop-opacity="1" stop-color="rgb(46.328735%, 36.798096%, 80.836487%)" offset="0.582031"/><stop stop-opacity="1" stop-color="rgb(46.640015%, 36.851501%, 80.924988%)" offset="0.585938"/><stop stop-opacity="1" stop-color="rgb(46.949768%, 36.903381%, 81.011963%)" offset="0.589844"/><stop stop-opacity="1" stop-color="rgb(47.261047%, 36.955261%, 81.098938%)" offset="0.59375"/><stop stop-opacity="1" stop-color="rgb(47.572327%, 37.007141%, 81.185913%)" offset="0.597656"/><stop stop-opacity="1" stop-color="rgb(47.883606%, 37.060547%, 81.274414%)" offset="0.601563"/><stop stop-opacity="1" stop-color="rgb(48.194885%, 37.112427%, 81.361389%)" offset="0.605469"/><stop stop-opacity="1" stop-color="rgb(48.506165%, 37.164307%, 81.44989%)" offset="0.609375"/><stop stop-opacity="1" stop-color="rgb(48.815918%, 37.216187%, 81.536865%)" offset="0.613281"/><stop stop-opacity="1" stop-color="rgb(49.127197%, 37.269592%, 81.62384%)" offset="0.617188"/><stop stop-opacity="1" stop-color="rgb(49.438477%, 37.321472%, 81.710815%)" offset="0.621094"/><stop stop-opacity="1" stop-color="rgb(49.749756%, 37.374878%, 81.799316%)" offset="0.625"/><stop stop-opacity="1" stop-color="rgb(50.059509%, 37.426758%, 81.886292%)" offset="0.628906"/><stop stop-opacity="1" stop-color="rgb(50.370789%, 37.478638%, 81.974792%)" offset="0.632812"/><stop stop-opacity="1" stop-color="rgb(50.682068%, 37.530518%, 82.061768%)" offset="0.636719"/><stop stop-opacity="1" stop-color="rgb(50.993347%, 37.583923%, 82.148743%)" offset="0.640625"/><stop stop-opacity="1" stop-color="rgb(51.303101%, 37.635803%, 82.235718%)" offset="0.644531"/><stop stop-opacity="1" stop-color="rgb(51.61438%, 37.687683%, 82.324219%)" offset="0.648438"/><stop stop-opacity="1" stop-color="rgb(51.925659%, 37.739563%, 82.411194%)" offset="0.652344"/><stop stop-opacity="1" stop-color="rgb(52.236938%, 37.792969%, 82.499695%)" offset="0.65625"/><stop stop-opacity="1" stop-color="rgb(52.546692%, 37.844849%, 82.58667%)" offset="0.660156"/><stop stop-opacity="1" stop-color="rgb(52.857971%, 37.898254%, 82.673645%)" offset="0.664063"/><stop stop-opacity="1" stop-color="rgb(53.16925%, 37.950134%, 82.76062%)" offset="0.667969"/><stop stop-opacity="1" stop-color="rgb(53.48053%, 38.002014%, 82.849121%)" offset="0.671875"/><stop stop-opacity="1" stop-color="rgb(53.791809%, 38.053894%, 82.936096%)" offset="0.675781"/><stop stop-opacity="1" stop-color="rgb(54.103088%, 38.1073%, 83.024597%)" offset="0.679688"/><stop stop-opacity="1" stop-color="rgb(54.412842%, 38.15918%, 83.111572%)" offset="0.683594"/><stop stop-opacity="1" stop-color="rgb(54.724121%, 38.21106%, 83.198547%)" offset="0.6875"/><stop stop-opacity="1" stop-color="rgb(55.0354%, 38.262939%, 83.285522%)" offset="0.691406"/><stop stop-opacity="1" stop-color="rgb(55.34668%, 38.316345%, 83.374023%)" offset="0.695313"/><stop stop-opacity="1" stop-color="rgb(55.656433%, 38.368225%, 83.460999%)" offset="0.699219"/><stop stop-opacity="1" stop-color="rgb(55.967712%, 38.421631%, 83.5495%)" offset="0.703125"/><stop stop-opacity="1" stop-color="rgb(56.278992%, 38.473511%, 83.636475%)" offset="0.707031"/><stop stop-opacity="1" stop-color="rgb(56.590271%, 38.525391%, 83.724976%)" offset="0.710938"/><stop stop-opacity="1" stop-color="rgb(56.900024%, 38.577271%, 83.811951%)" offset="0.714844"/><stop stop-opacity="1" stop-color="rgb(57.211304%, 38.630676%, 83.898926%)" offset="0.71875"/><stop stop-opacity="1" stop-color="rgb(57.522583%, 38.682556%, 83.985901%)" offset="0.722656"/><stop stop-opacity="1" stop-color="rgb(57.833862%, 38.734436%, 84.074402%)" offset="0.726562"/><stop stop-opacity="1" stop-color="rgb(58.143616%, 38.786316%, 84.161377%)" offset="0.730469"/><stop stop-opacity="1" stop-color="rgb(58.454895%, 38.839722%, 84.249878%)" offset="0.734375"/><stop stop-opacity="1" stop-color="rgb(58.766174%, 38.891602%, 84.336853%)" offset="0.738281"/><stop stop-opacity="1" stop-color="rgb(59.077454%, 38.945007%, 84.423828%)" offset="0.742188"/><stop stop-opacity="1" stop-color="rgb(59.387207%, 38.996887%, 84.510803%)" offset="0.746094"/><stop stop-opacity="1" stop-color="rgb(59.698486%, 39.048767%, 84.599304%)" offset="0.75"/><stop stop-opacity="1" stop-color="rgb(60.009766%, 39.100647%, 84.686279%)" offset="0.753906"/><stop stop-opacity="1" stop-color="rgb(60.321045%, 39.154053%, 84.77478%)" offset="0.757812"/><stop stop-opacity="1" stop-color="rgb(60.632324%, 39.205933%, 84.861755%)" offset="0.761719"/><stop stop-opacity="1" stop-color="rgb(60.943604%, 39.259338%, 84.94873%)" offset="0.765625"/><stop stop-opacity="1" stop-color="rgb(61.253357%, 39.311218%, 85.035706%)" offset="0.769531"/><stop stop-opacity="1" stop-color="rgb(61.564636%, 39.363098%, 85.124207%)" offset="0.773438"/><stop stop-opacity="1" stop-color="rgb(61.875916%, 39.414978%, 85.211182%)" offset="0.777344"/><stop stop-opacity="1" stop-color="rgb(62.187195%, 39.468384%, 85.299683%)" offset="0.78125"/><stop stop-opacity="1" stop-color="rgb(62.496948%, 39.520264%, 85.386658%)" offset="0.785156"/><stop stop-opacity="1" stop-color="rgb(62.808228%, 39.572144%, 85.473633%)" offset="0.789062"/><stop stop-opacity="1" stop-color="rgb(63.119507%, 39.624023%, 85.560608%)" offset="0.792969"/><stop stop-opacity="1" stop-color="rgb(63.430786%, 39.677429%, 85.649109%)" offset="0.796875"/><stop stop-opacity="1" stop-color="rgb(63.74054%, 39.729309%, 85.736084%)" offset="0.800781"/><stop stop-opacity="1" stop-color="rgb(64.051819%, 39.782715%, 85.824585%)" offset="0.804688"/><stop stop-opacity="1" stop-color="rgb(64.363098%, 39.834595%, 85.91156%)" offset="0.808594"/><stop stop-opacity="1" stop-color="rgb(64.674377%, 39.886475%, 85.998535%)" offset="0.8125"/><stop stop-opacity="1" stop-color="rgb(64.984131%, 39.938354%, 86.08551%)" offset="0.816406"/><stop stop-opacity="1" stop-color="rgb(65.29541%, 39.99176%, 86.174011%)" offset="0.820313"/><stop stop-opacity="1" stop-color="rgb(65.606689%, 40.04364%, 86.260986%)" offset="0.824219"/><stop stop-opacity="1" stop-color="rgb(65.917969%, 40.09552%, 86.349487%)" offset="0.828125"/><stop stop-opacity="1" stop-color="rgb(66.229248%, 40.1474%, 86.436462%)" offset="0.832031"/><stop stop-opacity="1" stop-color="rgb(66.540527%, 40.200806%, 86.524963%)" offset="0.835938"/><stop stop-opacity="1" stop-color="rgb(66.850281%, 40.252686%, 86.611938%)" offset="0.839844"/><stop stop-opacity="1" stop-color="rgb(67.16156%, 40.306091%, 86.698914%)" offset="0.84375"/><stop stop-opacity="1" stop-color="rgb(67.472839%, 40.357971%, 86.785889%)" offset="0.847656"/><stop stop-opacity="1" stop-color="rgb(67.784119%, 40.409851%, 86.87439%)" offset="0.851562"/><stop stop-opacity="1" stop-color="rgb(68.093872%, 40.461731%, 86.961365%)" offset="0.855469"/><stop stop-opacity="1" stop-color="rgb(68.405151%, 40.515137%, 87.049866%)" offset="0.859375"/><stop stop-opacity="1" stop-color="rgb(68.716431%, 40.567017%, 87.136841%)" offset="0.863281"/><stop stop-opacity="1" stop-color="rgb(69.02771%, 40.618896%, 87.223816%)" offset="0.867188"/><stop stop-opacity="1" stop-color="rgb(69.337463%, 40.670776%, 87.310791%)" offset="0.871094"/><stop stop-opacity="1" stop-color="rgb(69.648743%, 40.724182%, 87.399292%)" offset="0.875"/><stop stop-opacity="1" stop-color="rgb(69.960022%, 40.776062%, 87.486267%)" offset="0.878906"/><stop stop-opacity="1" stop-color="rgb(70.271301%, 40.829468%, 87.574768%)" offset="0.882812"/><stop stop-opacity="1" stop-color="rgb(70.581055%, 40.881348%, 87.661743%)" offset="0.886719"/><stop stop-opacity="1" stop-color="rgb(70.892334%, 40.933228%, 87.748718%)" offset="0.890625"/><stop stop-opacity="1" stop-color="rgb(71.203613%, 40.985107%, 87.835693%)" offset="0.894531"/><stop stop-opacity="1" stop-color="rgb(71.514893%, 41.038513%, 87.924194%)" offset="0.898438"/><stop stop-opacity="1" stop-color="rgb(71.826172%, 41.090393%, 88.011169%)" offset="0.902344"/><stop stop-opacity="1" stop-color="rgb(72.137451%, 41.142273%, 88.09967%)" offset="0.90625"/><stop stop-opacity="1" stop-color="rgb(72.447205%, 41.194153%, 88.186646%)" offset="0.910156"/><stop stop-opacity="1" stop-color="rgb(72.758484%, 41.247559%, 88.273621%)" offset="0.914062"/><stop stop-opacity="1" stop-color="rgb(73.069763%, 41.299438%, 88.360596%)" offset="0.917969"/><stop stop-opacity="1" stop-color="rgb(73.381042%, 41.352844%, 88.449097%)" offset="0.921875"/><stop stop-opacity="1" stop-color="rgb(73.690796%, 41.404724%, 88.536072%)" offset="0.925781"/><stop stop-opacity="1" stop-color="rgb(74.002075%, 41.456604%, 88.624573%)" offset="0.929688"/><stop stop-opacity="1" stop-color="rgb(74.313354%, 41.508484%, 88.711548%)" offset="0.933594"/><stop stop-opacity="1" stop-color="rgb(74.624634%, 41.56189%, 88.798523%)" offset="0.9375"/><stop stop-opacity="1" stop-color="rgb(74.934387%, 41.61377%, 88.885498%)" offset="0.941406"/><stop stop-opacity="1" stop-color="rgb(75.245667%, 41.667175%, 88.973999%)" offset="0.945312"/><stop stop-opacity="1" stop-color="rgb(75.556946%, 41.719055%, 89.060974%)" offset="0.949219"/><stop stop-opacity="1" stop-color="rgb(75.868225%, 41.770935%, 89.149475%)" offset="0.953125"/><stop stop-opacity="1" stop-color="rgb(76.177979%, 41.822815%, 89.23645%)" offset="0.957031"/><stop stop-opacity="1" stop-color="rgb(76.489258%, 41.876221%, 89.324951%)" offset="0.960938"/><stop stop-opacity="1" stop-color="rgb(76.800537%, 41.928101%, 89.411926%)" offset="0.964844"/><stop stop-opacity="1" stop-color="rgb(77.111816%, 41.97998%, 89.498901%)" offset="0.96875"/><stop stop-opacity="1" stop-color="rgb(77.42157%, 42.03186%, 89.585876%)" offset="0.972656"/><stop stop-opacity="1" stop-color="rgb(77.732849%, 42.085266%, 89.674377%)" offset="0.976562"/><stop stop-opacity="1" stop-color="rgb(78.044128%, 42.137146%, 89.761353%)" offset="0.980469"/><stop stop-opacity="1" stop-color="rgb(78.355408%, 42.190552%, 89.849854%)" offset="0.984375"/><stop stop-opacity="1" stop-color="rgb(78.666687%, 42.242432%, 89.936829%)" offset="0.988281"/><stop stop-opacity="1" stop-color="rgb(78.977966%, 42.294312%, 90.023804%)" offset="0.992188"/><stop stop-opacity="1" stop-color="rgb(79.28772%, 42.346191%, 90.110779%)" offset="0.996094"/><stop stop-opacity="1" stop-color="rgb(79.598999%, 42.399597%, 90.19928%)" offset="1"/></linearGradient><clipPath id="462726e5ad"><path d="M 167.726562 88.523438 L 319.851562 88.523438 L 319.851562 256.355469 L 167.726562 256.355469 Z M 167.726562 88.523438 " clip-rule="nonzero"/></clipPath><clipPath id="d1c8053848"><path d="M 45.578125 126.367188 L 199.285156 126.367188 L 199.285156 294.019531 L 45.578125 294.019531 Z M 45.578125 126.367188 " clip-rule="nonzero"/></clipPath></defs><g clip-path="url(#ad4bd953d0)"><rect x="-37.5" fill="url(#c0c2cbfbc8)" width="450" y="-37.499999" height="449.999989"/></g><path fill="#000000" d="M 187.539062 375 C 137.476562 375 90.332031 355.5 54.917969 320.082031 C 19.5 284.667969 0 237.597656 0 187.539062 C 0 137.476562 19.5 90.332031 54.917969 54.917969 C 90.332031 19.5 137.402344 0 187.539062 0 C 237.671875 0 284.667969 19.5 320.082031 54.917969 C 355.5 90.332031 375 137.402344 375 187.539062 C 375 237.671875 355.5 284.667969 320.082031 320.082031 C 284.667969 355.5 237.597656 375 187.539062 375 Z M 187.539062 11.207031 C 140.464844 11.207031 96.160156 29.511719 62.835938 62.835938 C 29.511719 96.160156 11.207031 140.390625 11.207031 187.539062 C 11.207031 234.683594 29.511719 278.914062 62.835938 312.238281 C 96.160156 345.5625 140.390625 363.867188 187.539062 363.867188 C 234.683594 363.867188 278.914062 345.5625 312.238281 312.238281 C 345.5625 278.914062 363.867188 234.683594 363.867188 187.539062 C 363.867188 140.390625 345.5625 96.160156 312.238281 62.835938 C 278.839844 29.511719 234.609375 11.207031 187.539062 11.207031 Z M 187.539062 11.207031 " fill-opacity="1" fill-rule="nonzero"/><path fill="#000000" d="M 183.800781 351.613281 L 183.351562 351.613281 C 181.710938 351.539062 180.4375 350.195312 180.515625 348.625 C 180.589844 347.054688 181.859375 345.785156 183.429688 345.785156 C 183.429688 345.785156 183.503906 345.785156 183.503906 345.785156 L 183.875 345.785156 C 185.519531 345.859375 186.789062 347.207031 186.714844 348.773438 C 186.714844 350.34375 185.445312 351.613281 183.800781 351.613281 Z M 198.59375 351.242188 C 197.027344 351.242188 195.757812 350.042969 195.679688 348.476562 C 195.605469 346.832031 196.800781 345.488281 198.445312 345.335938 L 198.746094 345.335938 C 200.386719 345.1875 201.808594 346.457031 201.882812 348.027344 C 202.03125 349.671875 200.761719 351.089844 199.191406 351.164062 L 198.820312 351.164062 C 198.671875 351.242188 198.59375 351.242188 198.59375 351.242188 Z M 168.785156 350.566406 C 168.707031 350.566406 168.558594 350.566406 168.410156 350.566406 L 168.035156 350.492188 C 166.394531 350.269531 165.273438 348.847656 165.496094 347.207031 C 165.71875 345.5625 167.140625 344.441406 168.785156 344.664062 L 169.15625 344.738281 C 170.800781 344.890625 171.921875 346.382812 171.773438 348.027344 C 171.472656 349.445312 170.203125 350.566406 168.785156 350.566406 Z M 213.539062 349.523438 C 212.117188 349.523438 210.847656 348.476562 210.625 347.054688 C 210.324219 345.488281 211.445312 343.917969 213.089844 343.695312 L 213.464844 343.621094 C 215.03125 343.394531 216.601562 344.441406 216.824219 346.085938 C 217.050781 347.730469 216.003906 349.222656 214.359375 349.445312 L 213.988281 349.523438 C 213.914062 349.523438 213.761719 349.523438 213.539062 349.523438 Z M 153.839844 348.101562 C 153.617188 348.101562 153.46875 348.101562 153.242188 348.027344 L 152.867188 347.953125 C 151.300781 347.578125 150.253906 346.011719 150.628906 344.441406 C 151 342.871094 152.570312 341.824219 154.140625 342.199219 L 154.511719 342.273438 C 156.082031 342.648438 157.128906 344.140625 156.753906 345.785156 C 156.457031 347.207031 155.183594 348.101562 153.839844 348.101562 Z M 228.332031 346.457031 C 226.988281 346.457031 225.792969 345.5625 225.492188 344.21875 C 225.121094 342.648438 226.015625 341.003906 227.660156 340.628906 L 227.957031 340.554688 C 229.527344 340.109375 231.171875 341.078125 231.546875 342.648438 C 231.992188 344.21875 231.023438 345.859375 229.453125 346.234375 L 229.078125 346.308594 C 228.855469 346.382812 228.554688 346.457031 228.332031 346.457031 Z M 139.269531 344.292969 C 138.972656 344.292969 138.671875 344.21875 138.375 344.140625 L 138.074219 344.066406 C 136.507812 343.542969 135.609375 341.902344 136.132812 340.332031 C 136.65625 338.761719 138.226562 337.941406 139.792969 338.390625 L 140.167969 338.464844 C 141.738281 338.910156 142.558594 340.628906 142.109375 342.125 C 141.660156 343.46875 140.464844 344.292969 139.269531 344.292969 Z M 242.753906 341.902344 C 241.558594 341.902344 240.4375 341.152344 239.988281 339.957031 C 239.464844 338.464844 240.210938 336.746094 241.78125 336.222656 L 242.078125 336.074219 C 243.574219 335.550781 245.292969 336.296875 245.890625 337.792969 C 246.414062 339.285156 245.667969 341.003906 244.171875 341.601562 L 243.796875 341.75 C 243.425781 341.902344 243.125 341.902344 242.753906 341.902344 Z M 125.074219 339.136719 C 124.699219 339.136719 124.328125 339.0625 123.953125 338.914062 L 123.582031 338.761719 C 122.085938 338.089844 121.414062 336.371094 122.011719 334.878906 C 122.683594 333.382812 124.402344 332.710938 125.898438 333.308594 L 126.195312 333.457031 C 127.691406 334.054688 128.4375 335.773438 127.765625 337.34375 C 127.316406 338.390625 126.195312 339.136719 125.074219 339.136719 Z M 256.722656 336.074219 C 255.605469 336.074219 254.558594 335.476562 254.109375 334.429688 C 253.4375 332.933594 254.035156 331.214844 255.453125 330.46875 L 255.828125 330.320312 C 257.320312 329.648438 259.039062 330.246094 259.789062 331.738281 C 260.460938 333.234375 259.863281 334.953125 258.367188 335.625 L 258.070312 335.773438 C 257.546875 336 257.097656 336.074219 256.722656 336.074219 Z M 111.402344 332.5625 C 110.953125 332.5625 110.429688 332.410156 109.980469 332.1875 L 109.683594 332.039062 C 108.261719 331.292969 107.742188 329.496094 108.488281 328.078125 C 109.234375 326.660156 111.027344 326.136719 112.449219 326.882812 L 112.746094 327.03125 C 114.167969 327.78125 114.6875 329.574219 113.941406 330.992188 C 113.492188 332.039062 112.449219 332.5625 111.402344 332.5625 Z M 270.023438 328.976562 C 269.050781 328.976562 268.082031 328.453125 267.484375 327.554688 C 266.660156 326.136719 267.109375 324.34375 268.453125 323.519531 L 268.753906 323.296875 C 270.171875 322.472656 271.964844 322.921875 272.789062 324.34375 C 273.609375 325.761719 273.160156 327.554688 271.742188 328.378906 L 271.445312 328.527344 C 271.070312 328.824219 270.546875 328.976562 270.023438 328.976562 Z M 98.402344 324.789062 C 97.878906 324.789062 97.28125 324.640625 96.757812 324.269531 L 96.457031 324.042969 C 95.113281 323.148438 94.738281 321.355469 95.636719 319.933594 C 96.53125 318.589844 98.328125 318.214844 99.746094 319.113281 L 100.042969 319.335938 C 101.390625 320.234375 101.761719 322.027344 100.867188 323.445312 C 100.34375 324.34375 99.371094 324.789062 98.402344 324.789062 Z M 282.652344 320.605469 C 281.753906 320.605469 280.859375 320.160156 280.261719 319.410156 C 279.289062 318.140625 279.585938 316.273438 280.859375 315.300781 L 281.15625 315.078125 C 282.5 314.105469 284.292969 314.40625 285.265625 315.675781 C 286.238281 317.019531 285.9375 318.8125 284.667969 319.785156 L 284.371094 320.007812 C 283.847656 320.457031 283.25 320.605469 282.652344 320.605469 Z M 86.222656 315.898438 C 85.550781 315.898438 84.878906 315.675781 84.355469 315.226562 L 84.054688 315.003906 C 82.785156 313.957031 82.5625 312.164062 83.605469 310.894531 C 84.652344 309.625 86.445312 309.398438 87.714844 310.445312 L 88.015625 310.667969 C 89.285156 311.714844 89.433594 313.582031 88.464844 314.777344 C 87.941406 315.527344 87.117188 315.898438 86.222656 315.898438 Z M 294.382812 311.117188 C 293.558594 311.117188 292.738281 310.820312 292.214844 310.144531 C 291.167969 308.949219 291.242188 307.082031 292.4375 306.035156 L 292.738281 305.8125 C 293.933594 304.691406 295.800781 304.839844 296.921875 306.035156 C 298.042969 307.234375 297.894531 309.101562 296.699219 310.222656 L 296.472656 310.445312 C 295.800781 310.894531 295.054688 311.117188 294.382812 311.117188 Z M 74.941406 305.8125 C 74.191406 305.8125 73.445312 305.515625 72.921875 304.992188 L 72.625 304.691406 C 71.429688 303.570312 71.429688 301.703125 72.625 300.507812 C 73.746094 299.3125 75.613281 299.3125 76.808594 300.507812 L 77.03125 300.730469 C 78.226562 301.851562 78.226562 303.722656 77.105469 304.917969 C 76.507812 305.589844 75.6875 305.8125 74.941406 305.8125 Z M 305.214844 300.582031 C 304.46875 300.582031 303.796875 300.359375 303.199219 299.761719 C 302.003906 298.640625 301.925781 296.773438 303.046875 295.578125 L 303.273438 295.277344 C 304.394531 294.082031 306.261719 294.007812 307.457031 295.128906 C 308.652344 296.25 308.726562 298.117188 307.605469 299.3125 L 307.382812 299.535156 C 306.785156 300.285156 305.960938 300.582031 305.214844 300.582031 Z M 64.628906 294.828125 C 63.808594 294.828125 62.984375 294.457031 62.386719 293.785156 L 62.164062 293.484375 C 61.117188 292.214844 61.265625 290.421875 62.539062 289.300781 C 63.808594 288.253906 65.601562 288.402344 66.722656 289.675781 L 66.945312 289.972656 C 67.992188 291.242188 67.84375 293.035156 66.570312 294.15625 C 65.972656 294.605469 65.300781 294.828125 64.628906 294.828125 Z M 315.003906 289.078125 C 314.40625 289.078125 313.734375 288.851562 313.210938 288.480469 C 311.941406 287.507812 311.640625 285.640625 312.6875 284.371094 L 312.910156 284.070312 C 313.882812 282.800781 315.75 282.578125 317.019531 283.546875 C 318.289062 284.519531 318.515625 286.386719 317.542969 287.65625 L 317.320312 287.957031 C 316.796875 288.703125 315.898438 289.078125 315.003906 289.078125 Z M 55.4375 282.875 C 54.542969 282.875 53.570312 282.425781 53.046875 281.605469 L 52.824219 281.304688 C 51.925781 279.960938 52.226562 278.167969 53.570312 277.195312 C 54.917969 276.300781 56.710938 276.597656 57.679688 277.945312 L 57.90625 278.242188 C 58.800781 279.585938 58.503906 281.378906 57.15625 282.351562 C 56.558594 282.652344 55.960938 282.875 55.4375 282.875 Z M 323.671875 276.75 C 323.148438 276.75 322.625 276.597656 322.101562 276.300781 C 320.757812 275.402344 320.308594 273.609375 321.203125 272.265625 L 321.429688 271.964844 C 322.324219 270.621094 324.117188 270.171875 325.464844 271.070312 C 326.808594 271.964844 327.257812 273.757812 326.359375 275.105469 L 326.136719 275.402344 C 325.613281 276.226562 324.640625 276.75 323.671875 276.75 Z M 47.296875 270.097656 C 46.25 270.097656 45.277344 269.574219 44.753906 268.605469 L 44.605469 268.304688 C 43.785156 266.886719 44.304688 265.09375 45.726562 264.269531 C 47.144531 263.449219 48.9375 263.972656 49.761719 265.390625 L 49.910156 265.691406 C 50.730469 267.109375 50.210938 268.902344 48.789062 269.726562 C 48.339844 269.949219 47.816406 270.097656 47.296875 270.097656 Z M 331.214844 263.597656 C 330.769531 263.597656 330.320312 263.523438 329.871094 263.300781 C 328.453125 262.550781 327.855469 260.757812 328.601562 259.339844 L 328.75 259.039062 C 329.496094 257.621094 331.292969 257.023438 332.710938 257.769531 C 334.128906 258.519531 334.726562 260.3125 333.980469 261.730469 L 333.832031 262.027344 C 333.308594 263 332.261719 263.597656 331.214844 263.597656 Z M 40.496094 256.648438 C 39.375 256.648438 38.328125 255.976562 37.804688 254.929688 L 37.65625 254.632812 C 36.984375 253.136719 37.65625 251.417969 39.152344 250.746094 C 40.644531 250.074219 42.363281 250.746094 43.035156 252.242188 L 43.1875 252.539062 C 43.859375 254.035156 43.1875 255.753906 41.691406 256.425781 C 41.316406 256.574219 40.871094 256.648438 40.496094 256.648438 Z M 337.417969 249.851562 C 337.042969 249.851562 336.671875 249.777344 336.371094 249.625 C 334.878906 249.027344 334.128906 247.308594 334.726562 245.816406 L 334.878906 245.441406 C 335.476562 243.949219 337.195312 243.199219 338.6875 243.796875 C 340.183594 244.394531 340.929688 246.113281 340.332031 247.609375 L 340.183594 247.984375 C 339.660156 249.101562 338.613281 249.851562 337.417969 249.851562 Z M 34.890625 242.601562 C 33.695312 242.601562 32.5 241.855469 32.128906 240.585938 L 31.976562 240.210938 C 31.457031 238.644531 32.277344 237 33.847656 236.476562 C 35.414062 235.953125 37.058594 236.773438 37.582031 238.34375 L 37.730469 238.71875 C 38.253906 240.285156 37.433594 241.929688 35.9375 242.453125 C 35.566406 242.527344 35.265625 242.601562 34.890625 242.601562 Z M 342.347656 235.578125 C 342.050781 235.578125 341.824219 235.503906 341.527344 235.429688 C 339.957031 234.980469 339.0625 233.339844 339.511719 231.769531 L 339.585938 231.394531 C 340.03125 229.828125 341.675781 228.929688 343.246094 229.378906 C 344.816406 229.828125 345.710938 231.46875 345.261719 233.039062 L 345.1875 233.414062 C 344.738281 234.683594 343.621094 235.578125 342.347656 235.578125 Z M 30.707031 228.035156 C 29.363281 228.035156 28.167969 227.136719 27.867188 225.792969 L 27.792969 225.417969 C 27.421875 223.847656 28.390625 222.28125 29.960938 221.90625 C 31.53125 221.53125 33.097656 222.503906 33.472656 224.074219 L 33.546875 224.445312 C 33.921875 226.015625 32.949219 227.585938 31.378906 227.957031 C 31.15625 228.035156 30.933594 228.035156 30.707031 228.035156 Z M 345.859375 220.859375 C 345.710938 220.859375 345.488281 220.859375 345.261719 220.785156 C 343.695312 220.488281 342.648438 218.917969 342.945312 217.347656 L 343.023438 216.976562 C 343.320312 215.40625 344.890625 214.359375 346.457031 214.660156 C 348.027344 214.957031 349.074219 216.527344 348.773438 218.097656 L 348.699219 218.46875 C 348.476562 219.890625 347.207031 220.859375 345.859375 220.859375 Z M 27.867188 213.238281 C 26.449219 213.238281 25.179688 212.195312 24.957031 210.699219 L 24.878906 210.324219 C 24.65625 208.683594 25.777344 207.261719 27.421875 207.039062 C 29.066406 206.8125 30.484375 207.933594 30.707031 209.578125 L 30.78125 209.953125 C 31.007812 211.597656 29.886719 213.015625 28.316406 213.3125 C 28.167969 213.238281 28.019531 213.238281 27.867188 213.238281 Z M 347.953125 205.917969 C 347.878906 205.917969 347.730469 205.917969 347.652344 205.917969 C 346.011719 205.769531 344.816406 204.347656 345.039062 202.703125 L 345.039062 202.332031 C 345.1875 200.6875 346.609375 199.492188 348.25 199.714844 C 349.894531 199.867188 351.089844 201.285156 350.867188 202.929688 L 350.867188 203.300781 C 350.792969 204.796875 349.445312 205.917969 347.953125 205.917969 Z M 26.523438 198.222656 C 24.957031 198.222656 23.683594 197.027344 23.609375 195.382812 L 23.609375 195.007812 C 23.535156 193.363281 24.804688 192.019531 26.375 191.945312 C 28.019531 191.871094 29.363281 193.140625 29.4375 194.710938 L 29.4375 195.082031 C 29.511719 196.726562 28.242188 198.074219 26.671875 198.148438 C 26.597656 198.222656 26.523438 198.222656 26.523438 198.222656 Z M 348.699219 190.453125 C 347.054688 190.453125 345.636719 189.480469 345.636719 187.835938 L 345.636719 187.539062 C 345.636719 187.539062 345.636719 187.460938 345.636719 187.460938 L 345.636719 187.089844 C 345.636719 185.445312 346.980469 184.175781 348.625 184.175781 C 350.269531 184.175781 351.613281 185.519531 351.613281 187.089844 L 351.613281 187.386719 C 351.613281 187.386719 351.613281 187.460938 351.613281 187.460938 L 351.613281 187.835938 C 351.613281 189.480469 350.34375 190.453125 348.699219 190.453125 Z M 26.449219 183.054688 C 26.375 183.054688 26.375 183.054688 26.300781 183.054688 C 24.65625 182.980469 23.386719 181.636719 23.460938 179.992188 L 23.460938 179.617188 C 23.535156 177.972656 24.957031 176.777344 26.523438 176.851562 C 28.167969 176.925781 29.4375 178.273438 29.289062 179.917969 L 29.289062 180.289062 C 29.363281 181.859375 28.019531 183.054688 26.449219 183.054688 Z M 348.027344 175.359375 C 346.53125 175.359375 345.261719 174.238281 345.113281 172.667969 L 345.113281 172.296875 C 344.964844 170.652344 346.160156 169.230469 347.730469 169.082031 C 349.371094 168.933594 350.792969 170.128906 350.941406 171.699219 L 350.941406 172.070312 C 351.089844 173.714844 349.894531 175.132812 348.25 175.285156 C 348.175781 175.359375 348.101562 175.359375 348.027344 175.359375 Z M 27.867188 168.035156 C 27.71875 168.035156 27.570312 168.035156 27.496094 168.035156 C 25.851562 167.8125 24.730469 166.316406 24.957031 164.75 L 25.03125 164.375 C 25.253906 162.730469 26.75 161.609375 28.390625 161.910156 C 30.035156 162.132812 31.15625 163.628906 30.859375 165.273438 L 30.78125 165.644531 C 30.558594 166.992188 29.289062 168.035156 27.867188 168.035156 Z M 345.933594 160.414062 C 344.515625 160.414062 343.320312 159.445312 343.023438 158.023438 L 342.945312 157.652344 C 342.648438 156.082031 343.695312 154.511719 345.261719 154.214844 C 346.832031 153.914062 348.402344 154.960938 348.699219 156.53125 L 348.773438 156.902344 C 349.074219 158.472656 348.027344 160.042969 346.457031 160.339844 C 346.234375 160.414062 346.085938 160.414062 345.933594 160.414062 Z M 30.632812 153.167969 C 30.410156 153.167969 30.183594 153.167969 29.960938 153.09375 C 28.390625 152.71875 27.421875 151.152344 27.792969 149.582031 L 27.867188 149.207031 C 28.242188 147.640625 29.8125 146.667969 31.378906 147.042969 C 32.949219 147.414062 33.921875 148.984375 33.546875 150.554688 L 33.472656 150.925781 C 33.175781 152.269531 31.976562 153.167969 30.632812 153.167969 Z M 342.421875 145.695312 C 341.152344 145.695312 339.957031 144.875 339.585938 143.53125 L 339.511719 143.15625 C 339.0625 141.585938 339.957031 139.941406 341.527344 139.496094 C 343.097656 139.046875 344.738281 139.941406 345.1875 141.511719 L 345.261719 141.886719 C 345.710938 143.453125 344.816406 145.097656 343.246094 145.546875 C 342.945312 145.695312 342.648438 145.695312 342.421875 145.695312 Z M 34.816406 138.671875 C 34.519531 138.671875 34.21875 138.597656 33.847656 138.523438 C 32.277344 138 31.457031 136.355469 31.976562 134.789062 L 32.128906 134.488281 C 32.652344 132.917969 34.371094 132.097656 35.863281 132.621094 C 37.433594 133.144531 38.253906 134.789062 37.730469 136.355469 L 37.582031 136.730469 C 37.207031 137.925781 36.011719 138.671875 34.816406 138.671875 Z M 337.566406 131.425781 C 336.371094 131.425781 335.25 130.679688 334.800781 129.558594 L 334.652344 129.257812 C 334.054688 127.765625 334.800781 126.046875 336.296875 125.449219 C 337.792969 124.851562 339.511719 125.597656 340.109375 127.09375 L 340.257812 127.464844 C 340.855469 128.960938 340.109375 130.679688 338.613281 131.277344 C 338.238281 131.351562 337.941406 131.425781 337.566406 131.425781 Z M 40.347656 124.625 C 39.972656 124.625 39.523438 124.550781 39.152344 124.402344 C 37.65625 123.730469 36.984375 122.011719 37.65625 120.515625 L 37.804688 120.144531 C 38.480469 118.648438 40.195312 117.976562 41.691406 118.648438 C 43.1875 119.320312 43.859375 121.039062 43.1875 122.535156 L 43.035156 122.832031 C 42.511719 123.953125 41.46875 124.625 40.347656 124.625 Z M 331.367188 117.601562 C 330.320312 117.601562 329.273438 117.003906 328.75 115.960938 L 328.601562 115.660156 C 327.855469 114.242188 328.453125 112.449219 329.871094 111.699219 C 331.292969 110.953125 333.085938 111.550781 333.832031 112.96875 L 333.980469 113.269531 C 334.726562 114.6875 334.128906 116.480469 332.710938 117.230469 C 332.261719 117.527344 331.8125 117.601562 331.367188 117.601562 Z M 47.144531 111.101562 C 46.621094 111.101562 46.175781 110.953125 45.726562 110.730469 C 44.304688 109.90625 43.785156 108.113281 44.605469 106.695312 L 44.753906 106.394531 C 45.578125 104.976562 47.371094 104.527344 48.789062 105.273438 C 50.210938 106.097656 50.65625 107.890625 49.910156 109.308594 L 49.761719 109.609375 C 49.164062 110.578125 48.191406 111.101562 47.144531 111.101562 Z M 323.894531 104.453125 C 322.921875 104.453125 321.953125 103.929688 321.429688 103.109375 L 321.277344 102.808594 C 320.382812 101.464844 320.832031 99.597656 322.175781 98.773438 C 323.519531 97.878906 325.386719 98.328125 326.210938 99.671875 L 326.433594 99.96875 C 327.332031 101.316406 326.882812 103.183594 325.539062 104.003906 C 324.941406 104.378906 324.417969 104.453125 323.894531 104.453125 Z M 55.214844 98.328125 C 54.617188 98.328125 54.019531 98.175781 53.570312 97.804688 C 52.226562 96.90625 51.925781 95.039062 52.824219 93.695312 L 53.046875 93.394531 C 53.945312 92.050781 55.8125 91.75 57.15625 92.648438 C 58.503906 93.621094 58.800781 95.414062 57.90625 96.757812 L 57.679688 97.054688 C 57.082031 97.878906 56.113281 98.328125 55.214844 98.328125 Z M 315.226562 92.125 C 314.332031 92.125 313.433594 91.75 312.910156 91.003906 L 312.6875 90.707031 C 311.714844 89.433594 311.941406 87.566406 313.210938 86.597656 C 314.480469 85.625 316.347656 85.847656 317.320312 87.117188 L 317.542969 87.417969 C 318.515625 88.6875 318.289062 90.554688 317.019531 91.527344 C 316.496094 91.902344 315.898438 92.125 315.226562 92.125 Z M 64.40625 86.371094 C 63.734375 86.371094 63.058594 86.148438 62.539062 85.699219 C 61.265625 84.652344 61.117188 82.785156 62.164062 81.589844 L 62.386719 81.292969 C 63.433594 80.019531 65.300781 79.945312 66.570312 80.992188 C 67.84375 82.039062 67.917969 83.90625 66.871094 85.175781 L 66.648438 85.476562 C 66.125 86 65.226562 86.371094 64.40625 86.371094 Z M 305.4375 80.617188 C 304.617188 80.617188 303.871094 80.320312 303.273438 79.648438 L 303.046875 79.421875 C 301.925781 78.226562 302.003906 76.359375 303.199219 75.238281 C 304.394531 74.117188 306.261719 74.191406 307.382812 75.386719 L 307.679688 75.6875 C 308.800781 76.882812 308.726562 78.75 307.53125 79.871094 C 306.933594 80.320312 306.1875 80.617188 305.4375 80.617188 Z M 74.714844 75.3125 C 73.96875 75.3125 73.222656 75.015625 72.625 74.417969 C 71.503906 73.222656 71.503906 71.429688 72.699219 70.234375 L 72.996094 69.933594 C 74.191406 68.8125 76.0625 68.8125 77.183594 70.007812 C 78.300781 71.203125 78.300781 73.074219 77.105469 74.191406 L 76.882812 74.417969 C 76.210938 75.015625 75.464844 75.3125 74.714844 75.3125 Z M 294.679688 70.007812 C 294.007812 70.007812 293.261719 69.785156 292.738281 69.261719 L 292.511719 69.039062 C 291.316406 67.992188 291.167969 66.125 292.289062 64.855469 C 293.335938 63.65625 295.203125 63.507812 296.472656 64.628906 L 296.773438 64.855469 C 297.96875 65.972656 298.117188 67.765625 296.996094 69.039062 C 296.25 69.710938 295.503906 70.007812 294.679688 70.007812 Z M 86 65.226562 C 85.175781 65.226562 84.28125 64.855469 83.683594 64.105469 C 82.636719 62.835938 82.859375 60.96875 84.128906 59.996094 L 84.429688 59.773438 C 85.699219 58.726562 87.566406 58.949219 88.539062 60.222656 C 89.585938 61.492188 89.359375 63.359375 88.089844 64.332031 L 87.792969 64.554688 C 87.269531 65.003906 86.671875 65.226562 86 65.226562 Z M 282.949219 60.519531 C 282.351562 60.519531 281.753906 60.371094 281.230469 59.921875 L 280.933594 59.699219 C 279.585938 58.726562 279.363281 56.933594 280.261719 55.589844 C 281.230469 54.242188 283.097656 54.019531 284.371094 54.917969 L 284.667969 55.140625 C 286.011719 56.113281 286.238281 57.980469 285.265625 59.25 C 284.742188 60.070312 283.847656 60.519531 282.949219 60.519531 Z M 98.175781 56.261719 C 97.207031 56.261719 96.308594 55.8125 95.710938 54.917969 C 94.816406 53.570312 95.1875 51.703125 96.53125 50.808594 L 96.832031 50.582031 C 98.175781 49.6875 100.042969 50.058594 100.941406 51.40625 C 101.839844 52.75 101.464844 54.617188 100.121094 55.515625 L 99.820312 55.738281 C 99.296875 56.113281 98.699219 56.261719 98.175781 56.261719 Z M 270.324219 52.152344 C 269.800781 52.152344 269.277344 52.003906 268.828125 51.703125 L 268.53125 51.480469 C 267.109375 50.65625 266.660156 48.863281 267.484375 47.445312 C 268.304688 46.023438 270.097656 45.578125 271.519531 46.398438 L 271.816406 46.621094 C 273.238281 47.445312 273.683594 49.238281 272.863281 50.65625 C 272.339844 51.628906 271.367188 52.152344 270.324219 52.152344 Z M 111.101562 48.492188 C 110.058594 48.492188 109.011719 47.894531 108.488281 46.921875 C 107.742188 45.503906 108.261719 43.707031 109.683594 42.960938 L 109.980469 42.8125 C 111.402344 42.066406 113.195312 42.589844 113.941406 44.007812 C 114.6875 45.425781 114.167969 47.21875 112.746094 47.96875 L 112.449219 48.117188 C 112.074219 48.339844 111.550781 48.492188 111.101562 48.492188 Z M 257.023438 44.980469 C 256.574219 44.980469 256.203125 44.90625 255.753906 44.679688 L 255.453125 44.53125 C 253.960938 43.859375 253.363281 42.066406 254.035156 40.570312 C 254.707031 39.078125 256.5 38.480469 257.996094 39.152344 L 258.292969 39.300781 C 259.789062 39.972656 260.386719 41.765625 259.714844 43.261719 C 259.191406 44.382812 258.144531 44.980469 257.023438 44.980469 Z M 124.699219 41.914062 C 123.582031 41.914062 122.460938 41.242188 122.011719 40.121094 C 121.414062 38.628906 122.085938 36.910156 123.582031 36.238281 L 123.953125 36.085938 C 125.449219 35.488281 127.167969 36.164062 127.839844 37.65625 C 128.4375 39.152344 127.765625 40.871094 126.269531 41.542969 L 125.972656 41.691406 C 125.449219 41.839844 125.074219 41.914062 124.699219 41.914062 Z M 243.125 39.078125 C 242.828125 39.078125 242.453125 39 242.15625 38.925781 L 241.78125 38.777344 C 240.285156 38.253906 239.464844 36.535156 240.0625 34.96875 C 240.585938 33.472656 242.304688 32.652344 243.875 33.25 L 244.246094 33.398438 C 245.742188 33.921875 246.5625 35.640625 246.039062 37.207031 C 245.441406 38.328125 244.320312 39.078125 243.125 39.078125 Z M 138.898438 36.6875 C 137.628906 36.6875 136.507812 35.863281 136.058594 34.59375 C 135.535156 33.023438 136.429688 31.378906 138 30.933594 L 138.375 30.859375 C 139.941406 30.335938 141.585938 31.230469 142.035156 32.800781 C 142.558594 34.371094 141.660156 36.011719 140.09375 36.460938 L 139.71875 36.535156 C 139.496094 36.6875 139.195312 36.6875 138.898438 36.6875 Z M 228.707031 34.59375 C 228.480469 34.59375 228.183594 34.59375 227.957031 34.519531 L 227.585938 34.445312 C 226.015625 34.070312 225.042969 32.425781 225.492188 30.859375 C 225.867188 29.289062 227.511719 28.316406 229.078125 28.765625 L 229.453125 28.839844 C 231.023438 29.289062 231.992188 30.859375 231.546875 32.425781 C 231.171875 33.695312 229.976562 34.59375 228.707031 34.59375 Z M 153.46875 32.875 C 152.121094 32.875 150.925781 31.902344 150.628906 30.558594 C 150.253906 28.988281 151.300781 27.421875 152.867188 27.046875 L 153.167969 26.972656 C 154.738281 26.597656 156.378906 27.644531 156.679688 29.214844 C 157.054688 30.78125 156.007812 32.351562 154.4375 32.726562 L 154.066406 32.800781 C 153.914062 32.800781 153.691406 32.875 153.46875 32.875 Z M 213.914062 31.378906 C 213.761719 31.378906 213.613281 31.378906 213.464844 31.304688 L 213.089844 31.230469 C 211.519531 31.007812 210.402344 29.4375 210.625 27.867188 C 210.921875 26.300781 212.417969 25.179688 213.988281 25.402344 L 214.359375 25.476562 C 215.929688 25.777344 217.050781 27.269531 216.75 28.839844 C 216.601562 30.410156 215.332031 31.378906 213.914062 31.378906 Z M 168.410156 30.410156 C 166.914062 30.410156 165.644531 29.289062 165.496094 27.792969 C 165.273438 26.152344 166.46875 24.730469 168.109375 24.507812 L 168.484375 24.433594 C 170.128906 24.207031 171.546875 25.402344 171.773438 27.046875 C 171.996094 28.691406 170.800781 30.109375 169.15625 30.335938 L 168.785156 30.410156 C 168.632812 30.335938 168.484375 30.410156 168.410156 30.410156 Z M 198.894531 29.664062 C 198.820312 29.664062 198.746094 29.664062 198.671875 29.664062 L 198.296875 29.664062 C 196.652344 29.585938 195.457031 28.167969 195.53125 26.523438 C 195.605469 24.878906 197.027344 23.683594 198.671875 23.757812 L 199.042969 23.757812 C 200.6875 23.835938 201.882812 25.253906 201.808594 26.898438 C 201.734375 28.46875 200.464844 29.664062 198.894531 29.664062 Z M 183.429688 29.363281 C 181.859375 29.363281 180.515625 28.09375 180.515625 26.449219 C 180.4375 24.804688 181.785156 23.460938 183.351562 23.386719 L 183.726562 23.386719 C 185.296875 23.3125 186.714844 24.65625 186.714844 26.226562 C 186.789062 27.867188 185.445312 29.214844 183.875 29.289062 L 183.429688 29.363281 C 183.503906 29.363281 183.503906 29.363281 183.429688 29.363281 Z M 183.429688 29.363281 " fill-opacity="1" fill-rule="nonzero"/><g clip-path="url(#462726e5ad)"><path fill="#000000" d="M 290.03125 157.203125 C 287.902344 159.046875 279.003906 164.59375 267.382812 159.332031 C 253.019531 152.839844 253.171875 138.679688 253.679688 135.832031 C 253.984375 134.121094 256.109375 133.507812 257.121094 134.800781 C 258.917969 137.058594 261.023438 139.425781 263.523438 141.726562 C 267.445312 145.386719 272.378906 149.96875 280.316406 152.335938 C 283.472656 153.28125 286.480469 153.675781 289.089844 153.785156 C 290.820312 153.871094 291.390625 156.019531 290.03125 157.203125 Z M 278.191406 187.195312 C 274.859375 187.195312 272.160156 184.496094 272.160156 181.164062 C 272.160156 177.832031 278.191406 169.65625 278.191406 169.65625 C 278.191406 169.65625 284.21875 177.832031 284.21875 181.164062 C 284.21875 184.496094 281.523438 187.195312 278.191406 187.195312 Z M 298.078125 104.285156 C 283.472656 107.285156 264.09375 109.0625 241.949219 105.359375 C 223.835938 102.332031 208.816406 96.457031 197.304688 90.5625 C 186.914062 85.234375 174.304688 90.78125 171.414062 102.09375 C 169.890625 107.976562 168.625 114.488281 167.796875 121.492188 C 170.585938 120.433594 173.5 119.890625 176.503906 119.890625 C 187.546875 119.890625 197.320312 127.320312 200.265625 137.941406 C 200.574219 139.050781 200.859375 140.117188 201.117188 141.15625 C 201.613281 141.136719 202.105469 141.125 202.613281 141.089844 C 207.984375 140.785156 214.714844 140.390625 221.953125 136.574219 C 224.847656 135.042969 227.214844 133.289062 229.144531 131.597656 C 230.390625 130.480469 232.34375 131.46875 232.234375 133.132812 C 232.058594 135.742188 231.355469 139.074219 229.273438 142.320312 C 226.117188 147.230469 221.621094 149.113281 219.167969 150.144531 C 217.429688 150.890625 210.851562 153.640625 203.382812 151.777344 C 203.496094 152.410156 203.621094 153.023438 203.726562 153.664062 C 204.875 160.511719 205.554688 167.464844 205.746094 174.335938 C 205.957031 181.761719 205.808594 189.203125 205.359375 196.570312 C 212.296875 190.773438 219.578125 188.308594 223.726562 187.214844 C 233.351562 185.878906 240.785156 189.296875 243.636719 190.65625 C 245.34375 191.488281 254.949219 196.246094 260.585938 207.097656 C 263.742188 213.214844 265.757812 221.414062 263.699219 222.597656 C 262.207031 223.472656 259.445312 220.03125 254.402344 216.417969 C 254.402344 216.417969 245.476562 209.925781 232.082031 207.253906 C 220.777344 204.984375 210.925781 208.445312 204.039062 211.113281 C 203.730469 213.652344 203.402344 216.148438 203.035156 218.527344 C 201.671875 227.046875 199.832031 235.042969 197.597656 242.398438 C 205.503906 249.375 215.320312 254.195312 227.519531 255.851562 C 274.96875 262.277344 304.105469 203.085938 315.574219 156.941406 C 318.730469 144.203125 319.804688 132.324219 319.851562 121.976562 C 319.871094 110.488281 309.324219 101.984375 298.078125 104.285156 " fill-opacity="1" fill-rule="nonzero"/></g><g clip-path="url(#d1c8053848)"><path fill="#000000" d="M 69.367188 192.171875 C 70.136719 189.691406 71.605469 186.625 74.390625 183.972656 C 78.621094 179.9375 83.421875 179.148438 86.054688 178.730469 C 86.863281 178.605469 88.632812 178.316406 90.929688 178.316406 C 94.914062 178.316406 100.484375 179.179688 105.394531 183.226562 C 108.484375 185.792969 110.347656 188.792969 111.464844 191.269531 C 112.035156 192.558594 111.035156 193.875 109.75 193.875 C 109.546875 193.875 109.335938 193.84375 109.121094 193.769531 C 106.402344 192.847656 103.355469 192.039062 100 191.425781 C 96.820312 190.84375 93.152344 190.175781 89.007812 190.175781 C 86.265625 190.175781 83.316406 190.46875 80.15625 191.269531 C 76.976562 192.058594 74.257812 193.222656 72 194.40625 C 71.707031 194.5625 71.40625 194.632812 71.117188 194.632812 C 69.945312 194.632812 68.964844 193.472656 69.367188 192.171875 Z M 127.257812 239.535156 C 128.734375 239.535156 130.261719 239.484375 131.835938 239.367188 C 150.398438 237.996094 161.347656 223.292969 165.804688 223.292969 C 166.195312 223.292969 166.539062 223.40625 166.828125 223.652344 C 169.679688 226.082031 163.429688 237.550781 162.839844 238.644531 C 157.445312 248.511719 149.574219 253.902344 145.277344 256.421875 C 140.441406 258.527344 135.847656 259.105469 132.160156 259.105469 C 129.042969 259.105469 126.574219 258.691406 125.148438 258.441406 C 123.285156 258.113281 112.761719 256.09375 104.40625 247.152344 C 99.734375 242.109375 95.613281 234.742188 97.257812 233.03125 C 97.476562 232.8125 97.769531 232.714844 98.136719 232.714844 C 99.824219 232.714844 103.089844 234.757812 107.894531 236.519531 C 107.894531 236.519531 115.972656 239.535156 127.257812 239.535156 Z M 138.742188 188.355469 C 139.378906 185.617188 143.324219 175.902344 155.824219 173.316406 C 157.660156 172.933594 159.398438 172.761719 161.035156 172.761719 C 162.769531 172.761719 164.394531 172.957031 165.910156 173.296875 C 174.875 175.289062 179.765625 182.328125 180.730469 184.300781 C 181.394531 185.683594 180.390625 187.226562 179.050781 187.226562 C 178.882812 187.226562 178.710938 187.199219 178.539062 187.148438 C 175.773438 186.359375 172.683594 185.703125 169.285156 185.285156 C 168.691406 185.21875 168.058594 185.132812 167.421875 185.066406 C 165.449219 184.851562 163.316406 184.664062 161.03125 184.664062 C 157.523438 184.664062 153.660156 185.105469 149.464844 186.582031 C 146.351562 187.675781 143.699219 189.101562 141.503906 190.570312 C 141.179688 190.78125 140.84375 190.875 140.523438 190.875 C 139.398438 190.875 138.4375 189.734375 138.742188 188.355469 Z M 50.820312 196.621094 C 62.65625 239.632812 86.375 294.019531 132.414062 294.019531 C 135.152344 294.019531 137.96875 293.828125 140.871094 293.429688 C 166.960938 289.832031 182.394531 268.589844 190.773438 242.285156 C 193.292969 234.371094 195.179688 225.996094 196.539062 217.492188 C 197.128906 213.675781 197.613281 209.816406 198.007812 205.980469 C 199.125 195.21875 199.457031 184.476562 199.171875 174.523438 C 198.972656 167.507812 198.269531 160.910156 197.242188 154.75 C 196.714844 151.570312 196.101562 148.5 195.398438 145.585938 C 194.960938 143.570312 194.457031 141.59375 193.929688 139.710938 C 191.664062 131.546875 184.308594 126.46875 176.503906 126.46875 C 173.726562 126.46875 170.890625 127.109375 168.210938 128.484375 C 167.226562 128.992188 166.191406 129.496094 165.140625 130.019531 C 152.207031 136.289062 135.101562 142.386719 114.40625 144.578125 C 108.867188 145.164062 103.53125 145.417969 98.433594 145.417969 C 86.738281 145.417969 76.28125 144.070312 67.441406 142.253906 C 66.175781 141.996094 64.921875 141.871094 63.691406 141.871094 C 53.777344 141.867188 45.382812 149.921875 45.578125 160.316406 C 45.800781 171.058594 47.179688 183.402344 50.820312 196.621094 " fill-opacity="1" fill-rule="nonzero"/></g></svg>