<svg xmlns="http://www.w3.org/2000/svg" xmlns:xlink="http://www.w3.org/1999/xlink" width="500" zoomAndPan="magnify" viewBox="0 0 375 374.999991" height="500" preserveAspectRatio="xMidYMid meet" version="1.0"><defs><clipPath id="8eb84c3220"><path d="M 187.5 0 C 83.945312 0 0 83.945312 0 187.5 C 0 291.054688 83.945312 375 187.5 375 C 291.054688 375 375 291.054688 375 187.5 C 375 83.945312 291.054688 0 187.5 0 Z M 187.5 0 " clip-rule="nonzero"/></clipPath><linearGradient x1="-0" gradientTransform="matrix(1.464844, 0, 0, 1.464844, 0.0000045, 0)" y1="128" x2="255.999988" gradientUnits="userSpaceOnUse" y2="128" id="02e72e7407"><stop stop-opacity="1" stop-color="rgb(80.39856%, 100%, 84.698486%)" offset="0"/><stop stop-opacity="1" stop-color="rgb(80.311584%, 99.891663%, 84.757996%)" offset="0.0078125"/><stop stop-opacity="1" stop-color="rgb(80.136108%, 99.676514%, 84.87854%)" offset="0.015625"/><stop stop-opacity="1" stop-color="rgb(79.960632%, 99.461365%, 84.997559%)" offset="0.0234375"/><stop stop-opacity="1" stop-color="rgb(79.786682%, 99.246216%, 85.116577%)" offset="0.03125"/><stop stop-opacity="1" stop-color="rgb(79.611206%, 99.032593%, 85.237122%)" offset="0.0390625"/><stop stop-opacity="1" stop-color="rgb(79.43573%, 98.817444%, 85.35614%)" offset="0.046875"/><stop stop-opacity="1" stop-color="rgb(79.26178%, 98.602295%, 85.476685%)" offset="0.0546875"/><stop stop-opacity="1" stop-color="rgb(79.086304%, 98.387146%, 85.595703%)" offset="0.0625"/><stop stop-opacity="1" stop-color="rgb(78.910828%, 98.171997%, 85.714722%)" offset="0.0703125"/><stop stop-opacity="1" stop-color="rgb(78.736877%, 97.958374%, 85.835266%)" offset="0.078125"/><stop stop-opacity="1" stop-color="rgb(78.561401%, 97.743225%, 85.954285%)" offset="0.0859375"/><stop stop-opacity="1" stop-color="rgb(78.385925%, 97.528076%, 86.073303%)" offset="0.09375"/><stop stop-opacity="1" stop-color="rgb(78.211975%, 97.312927%, 86.193848%)" offset="0.101562"/><stop stop-opacity="1" stop-color="rgb(78.036499%, 97.097778%, 86.312866%)" offset="0.109375"/><stop stop-opacity="1" stop-color="rgb(77.861023%, 96.884155%, 86.431885%)" offset="0.117188"/><stop stop-opacity="1" stop-color="rgb(77.685547%, 96.669006%, 86.552429%)" offset="0.125"/><stop stop-opacity="1" stop-color="rgb(77.511597%, 96.453857%, 86.671448%)" offset="0.132812"/><stop stop-opacity="1" stop-color="rgb(77.336121%, 96.238708%, 86.790466%)" offset="0.140625"/><stop stop-opacity="1" stop-color="rgb(77.160645%, 96.02356%, 86.911011%)" offset="0.148438"/><stop stop-opacity="1" stop-color="rgb(76.986694%, 95.809937%, 87.030029%)" offset="0.15625"/><stop stop-opacity="1" stop-color="rgb(76.811218%, 95.594788%, 87.149048%)" offset="0.164062"/><stop stop-opacity="1" stop-color="rgb(76.635742%, 95.379639%, 87.269592%)" offset="0.171875"/><stop stop-opacity="1" stop-color="rgb(76.461792%, 95.16449%, 87.388611%)" offset="0.179688"/><stop stop-opacity="1" stop-color="rgb(76.286316%, 94.949341%, 87.507629%)" offset="0.1875"/><stop stop-opacity="1" stop-color="rgb(76.11084%, 94.735718%, 87.628174%)" offset="0.195312"/><stop stop-opacity="1" stop-color="rgb(75.93689%, 94.520569%, 87.747192%)" offset="0.203125"/><stop stop-opacity="1" stop-color="rgb(75.761414%, 94.30542%, 87.866211%)" offset="0.210938"/><stop stop-opacity="1" stop-color="rgb(75.585938%, 94.090271%, 87.986755%)" offset="0.21875"/><stop stop-opacity="1" stop-color="rgb(75.410461%, 93.875122%, 88.105774%)" offset="0.226562"/><stop stop-opacity="1" stop-color="rgb(75.236511%, 93.661499%, 88.224792%)" offset="0.234375"/><stop stop-opacity="1" stop-color="rgb(75.061035%, 93.44635%, 88.345337%)" offset="0.242188"/><stop stop-opacity="1" stop-color="rgb(74.885559%, 93.231201%, 88.464355%)" offset="0.25"/><stop stop-opacity="1" stop-color="rgb(74.711609%, 93.016052%, 88.583374%)" offset="0.257812"/><stop stop-opacity="1" stop-color="rgb(74.536133%, 92.800903%, 88.703918%)" offset="0.265625"/><stop stop-opacity="1" stop-color="rgb(74.360657%, 92.58728%, 88.822937%)" offset="0.273438"/><stop stop-opacity="1" stop-color="rgb(74.186707%, 92.372131%, 88.941956%)" offset="0.28125"/><stop stop-opacity="1" stop-color="rgb(74.01123%, 92.156982%, 89.0625%)" offset="0.289063"/><stop stop-opacity="1" stop-color="rgb(73.835754%, 91.941833%, 89.181519%)" offset="0.296875"/><stop stop-opacity="1" stop-color="rgb(73.661804%, 91.726685%, 89.300537%)" offset="0.304688"/><stop stop-opacity="1" stop-color="rgb(73.486328%, 91.513062%, 89.421082%)" offset="0.3125"/><stop stop-opacity="1" stop-color="rgb(73.310852%, 91.297913%, 89.5401%)" offset="0.320312"/><stop stop-opacity="1" stop-color="rgb(73.136902%, 91.082764%, 89.659119%)" offset="0.328125"/><stop stop-opacity="1" stop-color="rgb(72.961426%, 90.867615%, 89.779663%)" offset="0.335938"/><stop stop-opacity="1" stop-color="rgb(72.78595%, 90.652466%, 89.898682%)" offset="0.34375"/><stop stop-opacity="1" stop-color="rgb(72.610474%, 90.438843%, 90.0177%)" offset="0.351562"/><stop stop-opacity="1" stop-color="rgb(72.436523%, 90.223694%, 90.138245%)" offset="0.359375"/><stop stop-opacity="1" stop-color="rgb(72.261047%, 90.008545%, 90.257263%)" offset="0.367188"/><stop stop-opacity="1" stop-color="rgb(72.085571%, 89.793396%, 90.376282%)" offset="0.375"/><stop stop-opacity="1" stop-color="rgb(71.911621%, 89.578247%, 90.496826%)" offset="0.382812"/><stop stop-opacity="1" stop-color="rgb(71.736145%, 89.364624%, 90.615845%)" offset="0.390625"/><stop stop-opacity="1" stop-color="rgb(71.560669%, 89.149475%, 90.734863%)" offset="0.398438"/><stop stop-opacity="1" stop-color="rgb(71.386719%, 88.934326%, 90.855408%)" offset="0.40625"/><stop stop-opacity="1" stop-color="rgb(71.211243%, 88.719177%, 90.974426%)" offset="0.414062"/><stop stop-opacity="1" stop-color="rgb(71.035767%, 88.504028%, 91.093445%)" offset="0.421875"/><stop stop-opacity="1" stop-color="rgb(70.861816%, 88.290405%, 91.213989%)" offset="0.429688"/><stop stop-opacity="1" stop-color="rgb(70.68634%, 88.075256%, 91.333008%)" offset="0.4375"/><stop stop-opacity="1" stop-color="rgb(70.510864%, 87.860107%, 91.452026%)" offset="0.445312"/><stop stop-opacity="1" stop-color="rgb(70.336914%, 87.644958%, 91.572571%)" offset="0.453125"/><stop stop-opacity="1" stop-color="rgb(70.161438%, 87.42981%, 91.691589%)" offset="0.460938"/><stop stop-opacity="1" stop-color="rgb(69.985962%, 87.216187%, 91.810608%)" offset="0.46875"/><stop stop-opacity="1" stop-color="rgb(69.810486%, 87.001038%, 91.931152%)" offset="0.476562"/><stop stop-opacity="1" stop-color="rgb(69.636536%, 86.785889%, 92.050171%)" offset="0.484375"/><stop stop-opacity="1" stop-color="rgb(69.46106%, 86.57074%, 92.169189%)" offset="0.492188"/><stop stop-opacity="1" stop-color="rgb(69.285583%, 86.355591%, 92.289734%)" offset="0.5"/><stop stop-opacity="1" stop-color="rgb(69.111633%, 86.141968%, 92.408752%)" offset="0.507812"/><stop stop-opacity="1" stop-color="rgb(68.936157%, 85.926819%, 92.527771%)" offset="0.515625"/><stop stop-opacity="1" stop-color="rgb(68.760681%, 85.71167%, 92.648315%)" offset="0.523438"/><stop stop-opacity="1" stop-color="rgb(68.586731%, 85.496521%, 92.767334%)" offset="0.53125"/><stop stop-opacity="1" stop-color="rgb(68.411255%, 85.281372%, 92.886353%)" offset="0.539062"/><stop stop-opacity="1" stop-color="rgb(68.235779%, 85.067749%, 93.006897%)" offset="0.546875"/><stop stop-opacity="1" stop-color="rgb(68.061829%, 84.8526%, 93.125916%)" offset="0.554688"/><stop stop-opacity="1" stop-color="rgb(67.886353%, 84.637451%, 93.244934%)" offset="0.5625"/><stop stop-opacity="1" stop-color="rgb(67.710876%, 84.422302%, 93.365479%)" offset="0.570312"/><stop stop-opacity="1" stop-color="rgb(67.536926%, 84.207153%, 93.484497%)" offset="0.578125"/><stop stop-opacity="1" stop-color="rgb(67.36145%, 83.99353%, 93.603516%)" offset="0.585938"/><stop stop-opacity="1" stop-color="rgb(67.185974%, 83.778381%, 93.72406%)" offset="0.59375"/><stop stop-opacity="1" stop-color="rgb(67.010498%, 83.563232%, 93.843079%)" offset="0.601563"/><stop stop-opacity="1" stop-color="rgb(66.836548%, 83.348083%, 93.962097%)" offset="0.609375"/><stop stop-opacity="1" stop-color="rgb(66.661072%, 83.132935%, 94.082642%)" offset="0.617188"/><stop stop-opacity="1" stop-color="rgb(66.485596%, 82.919312%, 94.20166%)" offset="0.625"/><stop stop-opacity="1" stop-color="rgb(66.311646%, 82.704163%, 94.320679%)" offset="0.632812"/><stop stop-opacity="1" stop-color="rgb(66.136169%, 82.489014%, 94.441223%)" offset="0.640625"/><stop stop-opacity="1" stop-color="rgb(65.960693%, 82.273865%, 94.560242%)" offset="0.648438"/><stop stop-opacity="1" stop-color="rgb(65.786743%, 82.058716%, 94.67926%)" offset="0.65625"/><stop stop-opacity="1" stop-color="rgb(65.611267%, 81.845093%, 94.799805%)" offset="0.664063"/><stop stop-opacity="1" stop-color="rgb(65.435791%, 81.629944%, 94.918823%)" offset="0.671875"/><stop stop-opacity="1" stop-color="rgb(65.261841%, 81.414795%, 95.037842%)" offset="0.679688"/><stop stop-opacity="1" stop-color="rgb(65.086365%, 81.199646%, 95.158386%)" offset="0.6875"/><stop stop-opacity="1" stop-color="rgb(64.910889%, 80.984497%, 95.277405%)" offset="0.695313"/><stop stop-opacity="1" stop-color="rgb(64.736938%, 80.770874%, 95.396423%)" offset="0.703125"/><stop stop-opacity="1" stop-color="rgb(64.561462%, 80.555725%, 95.516968%)" offset="0.710938"/><stop stop-opacity="1" stop-color="rgb(64.385986%, 80.340576%, 95.635986%)" offset="0.71875"/><stop stop-opacity="1" stop-color="rgb(64.21051%, 80.125427%, 95.755005%)" offset="0.726562"/><stop stop-opacity="1" stop-color="rgb(64.03656%, 79.910278%, 95.875549%)" offset="0.734375"/><stop stop-opacity="1" stop-color="rgb(63.861084%, 79.696655%, 95.994568%)" offset="0.742188"/><stop stop-opacity="1" stop-color="rgb(63.685608%, 79.481506%, 96.113586%)" offset="0.75"/><stop stop-opacity="1" stop-color="rgb(63.511658%, 79.266357%, 96.234131%)" offset="0.757812"/><stop stop-opacity="1" stop-color="rgb(63.336182%, 79.051208%, 96.353149%)" offset="0.765625"/><stop stop-opacity="1" stop-color="rgb(63.160706%, 78.83606%, 96.472168%)" offset="0.773438"/><stop stop-opacity="1" stop-color="rgb(62.986755%, 78.622437%, 96.592712%)" offset="0.78125"/><stop stop-opacity="1" stop-color="rgb(62.811279%, 78.407288%, 96.711731%)" offset="0.789062"/><stop stop-opacity="1" stop-color="rgb(62.635803%, 78.192139%, 96.83075%)" offset="0.796875"/><stop stop-opacity="1" stop-color="rgb(62.461853%, 77.97699%, 96.951294%)" offset="0.804688"/><stop stop-opacity="1" stop-color="rgb(62.286377%, 77.761841%, 97.070312%)" offset="0.8125"/><stop stop-opacity="1" stop-color="rgb(62.110901%, 77.548218%, 97.189331%)" offset="0.820313"/><stop stop-opacity="1" stop-color="rgb(61.936951%, 77.333069%, 97.309875%)" offset="0.828125"/><stop stop-opacity="1" stop-color="rgb(61.761475%, 77.11792%, 97.428894%)" offset="0.835938"/><stop stop-opacity="1" stop-color="rgb(61.585999%, 76.902771%, 97.547913%)" offset="0.84375"/><stop stop-opacity="1" stop-color="rgb(61.410522%, 76.687622%, 97.668457%)" offset="0.851562"/><stop stop-opacity="1" stop-color="rgb(61.236572%, 76.473999%, 97.787476%)" offset="0.859375"/><stop stop-opacity="1" stop-color="rgb(61.061096%, 76.25885%, 97.906494%)" offset="0.867188"/><stop stop-opacity="1" stop-color="rgb(60.88562%, 76.043701%, 98.027039%)" offset="0.875"/><stop stop-opacity="1" stop-color="rgb(60.71167%, 75.828552%, 98.146057%)" offset="0.882812"/><stop stop-opacity="1" stop-color="rgb(60.536194%, 75.613403%, 98.265076%)" offset="0.890625"/><stop stop-opacity="1" stop-color="rgb(60.360718%, 75.39978%, 98.38562%)" offset="0.898438"/><stop stop-opacity="1" stop-color="rgb(60.186768%, 75.184631%, 98.504639%)" offset="0.90625"/><stop stop-opacity="1" stop-color="rgb(60.011292%, 74.969482%, 98.623657%)" offset="0.914062"/><stop stop-opacity="1" stop-color="rgb(59.835815%, 74.754333%, 98.744202%)" offset="0.921875"/><stop stop-opacity="1" stop-color="rgb(59.661865%, 74.539185%, 98.86322%)" offset="0.929688"/><stop stop-opacity="1" stop-color="rgb(59.486389%, 74.325562%, 98.982239%)" offset="0.9375"/><stop stop-opacity="1" stop-color="rgb(59.310913%, 74.110413%, 99.102783%)" offset="0.945312"/><stop stop-opacity="1" stop-color="rgb(59.136963%, 73.895264%, 99.221802%)" offset="0.953125"/><stop stop-opacity="1" stop-color="rgb(58.961487%, 73.680115%, 99.34082%)" offset="0.960938"/><stop stop-opacity="1" stop-color="rgb(58.786011%, 73.464966%, 99.461365%)" offset="0.96875"/><stop stop-opacity="1" stop-color="rgb(58.610535%, 73.251343%, 99.580383%)" offset="0.976562"/><stop stop-opacity="1" stop-color="rgb(58.436584%, 73.036194%, 99.699402%)" offset="0.984375"/><stop stop-opacity="1" stop-color="rgb(58.261108%, 72.821045%, 99.819946%)" offset="0.992188"/><stop stop-opacity="1" stop-color="rgb(58.085632%, 72.605896%, 99.938965%)" offset="1"/></linearGradient><clipPath id="d3d75264d5"><path d="M 64 78 L 295 78 L 295 290 L 64 290 Z M 64 78 " clip-rule="nonzero"/></clipPath><clipPath id="9dbdcc6729"><path d="M 100.152344 90.636719 L 127.195312 115.351562 L 121.980469 132.109375 L 103.65625 136.882812 L 76.609375 112.148438 L 64.382812 123.332031 L 95.453125 164.289062 L 132.101562 157.914062 L 260.714844 283.15625 C 280.414062 301.308594 306.980469 274.089844 288.550781 258.59375 L 151.132812 139.726562 L 159.5 105.828125 L 113.296875 78.59375 Z M 269.3125 266.171875 C 272.816406 262.964844 278.492188 262.964844 282 266.171875 C 285.503906 269.375 285.503906 274.566406 282 277.773438 C 278.492188 280.960938 272.816406 280.960938 269.3125 277.773438 C 265.804688 274.566406 265.804688 269.375 269.3125 266.171875 Z M 269.3125 266.171875 " clip-rule="nonzero"/></clipPath><clipPath id="762a5ad84d"><path d="M 69 76 L 310 76 L 310 286 L 69 286 Z M 69 76 " clip-rule="nonzero"/></clipPath><clipPath id="7e197e0b5b"><path d="M 169.808594 80.710938 L 171.394531 81.015625 C 189.84375 75.40625 231.246094 97.507812 222.023438 117.203125 C 219.6875 120.296875 220.082031 125.792969 222.898438 129.246094 L 171.125 176.617188 C 168.222656 173.964844 161.777344 174.023438 158.8125 176.617188 L 73.1875 251.78125 C 65.382812 258.632812 71.519531 264.453125 74.816406 267.527344 L 90.175781 281.574219 C 93.535156 284.625 102.402344 288.75 108.707031 282.640625 L 189.511719 204.75 C 192.328125 202.042969 192.347656 196.21875 189.511719 193.546875 C 189.511719 193.546875 189.53125 193.511719 189.511719 193.511719 L 241.492188 145.984375 C 246.980469 150.507812 252.164062 150.898438 257.082031 149.667969 C 266.578125 147.292969 271.871094 155.789062 277.554688 162 L 274.988281 164.308594 C 271.191406 167.820312 271.542969 173.738281 275.800781 177.628906 C 280.058594 181.523438 286.550781 181.847656 290.347656 178.375 L 307.335938 162.859375 C 311.132812 159.347656 310.777344 153.429688 306.5 149.554688 C 302.660156 146.023438 297.085938 145.566406 293.207031 148.085938 C 281.5625 136.136719 287.675781 134.34375 272.316406 118.789062 L 243.539062 91.894531 C 222.816406 73.308594 195.894531 73.324219 169.808594 80.710938 Z M 169.808594 80.710938 " clip-rule="nonzero"/></clipPath></defs><g clip-path="url(#8eb84c3220)"><rect x="-37.5" fill="url(#02e72e7407)" width="450" y="-37.499999" height="449.999989"/></g><path fill="#000000" d="M 187.539062 375 C 137.476562 375 90.332031 355.5 54.917969 320.082031 C 19.5 284.667969 0 237.597656 0 187.539062 C 0 137.476562 19.5 90.332031 54.917969 54.917969 C 90.332031 19.5 137.402344 0 187.539062 0 C 237.671875 0 284.667969 19.5 320.082031 54.917969 C 355.5 90.332031 375 137.402344 375 187.539062 C 375 237.671875 355.5 284.667969 320.082031 320.082031 C 284.667969 355.5 237.597656 375 187.539062 375 Z M 187.539062 11.207031 C 140.464844 11.207031 96.160156 29.511719 62.835938 62.835938 C 29.511719 96.160156 11.207031 140.390625 11.207031 187.539062 C 11.207031 234.683594 29.511719 278.914062 62.835938 312.238281 C 96.160156 345.5625 140.390625 363.867188 187.539062 363.867188 C 234.683594 363.867188 278.914062 345.5625 312.238281 312.238281 C 345.5625 278.914062 363.867188 234.683594 363.867188 187.539062 C 363.867188 140.390625 345.5625 96.160156 312.238281 62.835938 C 278.839844 29.511719 234.609375 11.207031 187.539062 11.207031 Z M 187.539062 11.207031 " fill-opacity="1" fill-rule="nonzero"/><path fill="#000000" d="M 183.800781 351.613281 L 183.351562 351.613281 C 181.710938 351.539062 180.4375 350.195312 180.515625 348.625 C 180.589844 347.054688 181.859375 345.785156 183.429688 345.785156 C 183.429688 345.785156 183.503906 345.785156 183.503906 345.785156 L 183.875 345.785156 C 185.519531 345.859375 186.789062 347.207031 186.714844 348.773438 C 186.714844 350.34375 185.445312 351.613281 183.800781 351.613281 Z M 198.59375 351.242188 C 197.027344 351.242188 195.757812 350.042969 195.679688 348.476562 C 195.605469 346.832031 196.800781 345.488281 198.445312 345.335938 L 198.746094 345.335938 C 200.386719 345.1875 201.808594 346.457031 201.882812 348.027344 C 202.03125 349.671875 200.761719 351.089844 199.191406 351.164062 L 198.820312 351.164062 C 198.671875 351.242188 198.59375 351.242188 198.59375 351.242188 Z M 168.785156 350.566406 C 168.707031 350.566406 168.558594 350.566406 168.410156 350.566406 L 168.035156 350.492188 C 166.394531 350.269531 165.273438 348.847656 165.496094 347.207031 C 165.71875 345.5625 167.140625 344.441406 168.785156 344.664062 L 169.15625 344.738281 C 170.800781 344.890625 171.921875 346.382812 171.773438 348.027344 C 171.472656 349.445312 170.203125 350.566406 168.785156 350.566406 Z M 213.539062 349.523438 C 212.117188 349.523438 210.847656 348.476562 210.625 347.054688 C 210.324219 345.488281 211.445312 343.917969 213.089844 343.695312 L 213.464844 343.621094 C 215.03125 343.394531 216.601562 344.441406 216.824219 346.085938 C 217.050781 347.730469 216.003906 349.222656 214.359375 349.445312 L 213.988281 349.523438 C 213.914062 349.523438 213.761719 349.523438 213.539062 349.523438 Z M 153.839844 348.101562 C 153.617188 348.101562 153.46875 348.101562 153.242188 348.027344 L 152.867188 347.953125 C 151.300781 347.578125 150.253906 346.011719 150.628906 344.441406 C 151 342.871094 152.570312 341.824219 154.140625 342.199219 L 154.511719 342.273438 C 156.082031 342.648438 157.128906 344.140625 156.753906 345.785156 C 156.457031 347.207031 155.183594 348.101562 153.839844 348.101562 Z M 228.332031 346.457031 C 226.988281 346.457031 225.792969 345.5625 225.492188 344.21875 C 225.121094 342.648438 226.015625 341.003906 227.660156 340.628906 L 227.957031 340.554688 C 229.527344 340.109375 231.171875 341.078125 231.546875 342.648438 C 231.992188 344.21875 231.023438 345.859375 229.453125 346.234375 L 229.078125 346.308594 C 228.855469 346.382812 228.554688 346.457031 228.332031 346.457031 Z M 139.269531 344.292969 C 138.972656 344.292969 138.671875 344.21875 138.375 344.140625 L 138.074219 344.066406 C 136.507812 343.542969 135.609375 341.902344 136.132812 340.332031 C 136.65625 338.761719 138.226562 337.941406 139.792969 338.390625 L 140.167969 338.464844 C 141.738281 338.910156 142.558594 340.628906 142.109375 342.125 C 141.660156 343.46875 140.464844 344.292969 139.269531 344.292969 Z M 242.753906 341.902344 C 241.558594 341.902344 240.4375 341.152344 239.988281 339.957031 C 239.464844 338.464844 240.210938 336.746094 241.78125 336.222656 L 242.078125 336.074219 C 243.574219 335.550781 245.292969 336.296875 245.890625 337.792969 C 246.414062 339.285156 245.667969 341.003906 244.171875 341.601562 L 243.796875 341.75 C 243.425781 341.902344 243.125 341.902344 242.753906 341.902344 Z M 125.074219 339.136719 C 124.699219 339.136719 124.328125 339.0625 123.953125 338.914062 L 123.582031 338.761719 C 122.085938 338.089844 121.414062 336.371094 122.011719 334.878906 C 122.683594 333.382812 124.402344 332.710938 125.898438 333.308594 L 126.195312 333.457031 C 127.691406 334.054688 128.4375 335.773438 127.765625 337.34375 C 127.316406 338.390625 126.195312 339.136719 125.074219 339.136719 Z M 256.722656 336.074219 C 255.605469 336.074219 254.558594 335.476562 254.109375 334.429688 C 253.4375 332.933594 254.035156 331.214844 255.453125 330.46875 L 255.828125 330.320312 C 257.320312 329.648438 259.039062 330.246094 259.789062 331.738281 C 260.460938 333.234375 259.863281 334.953125 258.367188 335.625 L 258.070312 335.773438 C 257.546875 336 257.097656 336.074219 256.722656 336.074219 Z M 111.402344 332.5625 C 110.953125 332.5625 110.429688 332.410156 109.980469 332.1875 L 109.683594 332.039062 C 108.261719 331.292969 107.742188 329.496094 108.488281 328.078125 C 109.234375 326.660156 111.027344 326.136719 112.449219 326.882812 L 112.746094 327.03125 C 114.167969 327.78125 114.6875 329.574219 113.941406 330.992188 C 113.492188 332.039062 112.449219 332.5625 111.402344 332.5625 Z M 270.023438 328.976562 C 269.050781 328.976562 268.082031 328.453125 267.484375 327.554688 C 266.660156 326.136719 267.109375 324.34375 268.453125 323.519531 L 268.753906 323.296875 C 270.171875 322.472656 271.964844 322.921875 272.789062 324.34375 C 273.609375 325.761719 273.160156 327.554688 271.742188 328.378906 L 271.445312 328.527344 C 271.070312 328.824219 270.546875 328.976562 270.023438 328.976562 Z M 98.402344 324.789062 C 97.878906 324.789062 97.28125 324.640625 96.757812 324.269531 L 96.457031 324.042969 C 95.113281 323.148438 94.738281 321.355469 95.636719 319.933594 C 96.53125 318.589844 98.328125 318.214844 99.746094 319.113281 L 100.042969 319.335938 C 101.390625 320.234375 101.761719 322.027344 100.867188 323.445312 C 100.34375 324.34375 99.371094 324.789062 98.402344 324.789062 Z M 282.652344 320.605469 C 281.753906 320.605469 280.859375 320.160156 280.261719 319.410156 C 279.289062 318.140625 279.585938 316.273438 280.859375 315.300781 L 281.15625 315.078125 C 282.5 314.105469 284.292969 314.40625 285.265625 315.675781 C 286.238281 317.019531 285.9375 318.8125 284.667969 319.785156 L 284.371094 320.007812 C 283.847656 320.457031 283.25 320.605469 282.652344 320.605469 Z M 86.222656 315.898438 C 85.550781 315.898438 84.878906 315.675781 84.355469 315.226562 L 84.054688 315.003906 C 82.785156 313.957031 82.5625 312.164062 83.605469 310.894531 C 84.652344 309.625 86.445312 309.398438 87.714844 310.445312 L 88.015625 310.667969 C 89.285156 311.714844 89.433594 313.582031 88.464844 314.777344 C 87.941406 315.527344 87.117188 315.898438 86.222656 315.898438 Z M 294.382812 311.117188 C 293.558594 311.117188 292.738281 310.820312 292.214844 310.144531 C 291.167969 308.949219 291.242188 307.082031 292.4375 306.035156 L 292.738281 305.8125 C 293.933594 304.691406 295.800781 304.839844 296.921875 306.035156 C 298.042969 307.234375 297.894531 309.101562 296.699219 310.222656 L 296.472656 310.445312 C 295.800781 310.894531 295.054688 311.117188 294.382812 311.117188 Z M 74.941406 305.8125 C 74.191406 305.8125 73.445312 305.515625 72.921875 304.992188 L 72.625 304.691406 C 71.429688 303.570312 71.429688 301.703125 72.625 300.507812 C 73.746094 299.3125 75.613281 299.3125 76.808594 300.507812 L 77.03125 300.730469 C 78.226562 301.851562 78.226562 303.722656 77.105469 304.917969 C 76.507812 305.589844 75.6875 305.8125 74.941406 305.8125 Z M 305.214844 300.582031 C 304.46875 300.582031 303.796875 300.359375 303.199219 299.761719 C 302.003906 298.640625 301.925781 296.773438 303.046875 295.578125 L 303.273438 295.277344 C 304.394531 294.082031 306.261719 294.007812 307.457031 295.128906 C 308.652344 296.25 308.726562 298.117188 307.605469 299.3125 L 307.382812 299.535156 C 306.785156 300.285156 305.960938 300.582031 305.214844 300.582031 Z M 64.628906 294.828125 C 63.808594 294.828125 62.984375 294.457031 62.386719 293.785156 L 62.164062 293.484375 C 61.117188 292.214844 61.265625 290.421875 62.539062 289.300781 C 63.808594 288.253906 65.601562 288.402344 66.722656 289.675781 L 66.945312 289.972656 C 67.992188 291.242188 67.84375 293.035156 66.570312 294.15625 C 65.972656 294.605469 65.300781 294.828125 64.628906 294.828125 Z M 315.003906 289.078125 C 314.40625 289.078125 313.734375 288.851562 313.210938 288.480469 C 311.941406 287.507812 311.640625 285.640625 312.6875 284.371094 L 312.910156 284.070312 C 313.882812 282.800781 315.75 282.578125 317.019531 283.546875 C 318.289062 284.519531 318.515625 286.386719 317.542969 287.65625 L 317.320312 287.957031 C 316.796875 288.703125 315.898438 289.078125 315.003906 289.078125 Z M 55.4375 282.875 C 54.542969 282.875 53.570312 282.425781 53.046875 281.605469 L 52.824219 281.304688 C 51.925781 279.960938 52.226562 278.167969 53.570312 277.195312 C 54.917969 276.300781 56.710938 276.597656 57.679688 277.945312 L 57.90625 278.242188 C 58.800781 279.585938 58.503906 281.378906 57.15625 282.351562 C 56.558594 282.652344 55.960938 282.875 55.4375 282.875 Z M 323.671875 276.75 C 323.148438 276.75 322.625 276.597656 322.101562 276.300781 C 320.757812 275.402344 320.308594 273.609375 321.203125 272.265625 L 321.429688 271.964844 C 322.324219 270.621094 324.117188 270.171875 325.464844 271.070312 C 326.808594 271.964844 327.257812 273.757812 326.359375 275.105469 L 326.136719 275.402344 C 325.613281 276.226562 324.640625 276.75 323.671875 276.75 Z M 47.296875 270.097656 C 46.25 270.097656 45.277344 269.574219 44.753906 268.605469 L 44.605469 268.304688 C 43.785156 266.886719 44.304688 265.09375 45.726562 264.269531 C 47.144531 263.449219 48.9375 263.972656 49.761719 265.390625 L 49.910156 265.691406 C 50.730469 267.109375 50.210938 268.902344 48.789062 269.726562 C 48.339844 269.949219 47.816406 270.097656 47.296875 270.097656 Z M 331.214844 263.597656 C 330.769531 263.597656 330.320312 263.523438 329.871094 263.300781 C 328.453125 262.550781 327.855469 260.757812 328.601562 259.339844 L 328.75 259.039062 C 329.496094 257.621094 331.292969 257.023438 332.710938 257.769531 C 334.128906 258.519531 334.726562 260.3125 333.980469 261.730469 L 333.832031 262.027344 C 333.308594 263 332.261719 263.597656 331.214844 263.597656 Z M 40.496094 256.648438 C 39.375 256.648438 38.328125 255.976562 37.804688 254.929688 L 37.65625 254.632812 C 36.984375 253.136719 37.65625 251.417969 39.152344 250.746094 C 40.644531 250.074219 42.363281 250.746094 43.035156 252.242188 L 43.1875 252.539062 C 43.859375 254.035156 43.1875 255.753906 41.691406 256.425781 C 41.316406 256.574219 40.871094 256.648438 40.496094 256.648438 Z M 337.417969 249.851562 C 337.042969 249.851562 336.671875 249.777344 336.371094 249.625 C 334.878906 249.027344 334.128906 247.308594 334.726562 245.816406 L 334.878906 245.441406 C 335.476562 243.949219 337.195312 243.199219 338.6875 243.796875 C 340.183594 244.394531 340.929688 246.113281 340.332031 247.609375 L 340.183594 247.984375 C 339.660156 249.101562 338.613281 249.851562 337.417969 249.851562 Z M 34.890625 242.601562 C 33.695312 242.601562 32.5 241.855469 32.128906 240.585938 L 31.976562 240.210938 C 31.457031 238.644531 32.277344 237 33.847656 236.476562 C 35.414062 235.953125 37.058594 236.773438 37.582031 238.34375 L 37.730469 238.71875 C 38.253906 240.285156 37.433594 241.929688 35.9375 242.453125 C 35.566406 242.527344 35.265625 242.601562 34.890625 242.601562 Z M 342.347656 235.578125 C 342.050781 235.578125 341.824219 235.503906 341.527344 235.429688 C 339.957031 234.980469 339.0625 233.339844 339.511719 231.769531 L 339.585938 231.394531 C 340.03125 229.828125 341.675781 228.929688 343.246094 229.378906 C 344.816406 229.828125 345.710938 231.46875 345.261719 233.039062 L 345.1875 233.414062 C 344.738281 234.683594 343.621094 235.578125 342.347656 235.578125 Z M 30.707031 228.035156 C 29.363281 228.035156 28.167969 227.136719 27.867188 225.792969 L 27.792969 225.417969 C 27.421875 223.847656 28.390625 222.28125 29.960938 221.90625 C 31.53125 221.53125 33.097656 222.503906 33.472656 224.074219 L 33.546875 224.445312 C 33.921875 226.015625 32.949219 227.585938 31.378906 227.957031 C 31.15625 228.035156 30.933594 228.035156 30.707031 228.035156 Z M 345.859375 220.859375 C 345.710938 220.859375 345.488281 220.859375 345.261719 220.785156 C 343.695312 220.488281 342.648438 218.917969 342.945312 217.347656 L 343.023438 216.976562 C 343.320312 215.40625 344.890625 214.359375 346.457031 214.660156 C 348.027344 214.957031 349.074219 216.527344 348.773438 218.097656 L 348.699219 218.46875 C 348.476562 219.890625 347.207031 220.859375 345.859375 220.859375 Z M 27.867188 213.238281 C 26.449219 213.238281 25.179688 212.195312 24.957031 210.699219 L 24.878906 210.324219 C 24.65625 208.683594 25.777344 207.261719 27.421875 207.039062 C 29.066406 206.8125 30.484375 207.933594 30.707031 209.578125 L 30.78125 209.953125 C 31.007812 211.597656 29.886719 213.015625 28.316406 213.3125 C 28.167969 213.238281 28.019531 213.238281 27.867188 213.238281 Z M 347.953125 205.917969 C 347.878906 205.917969 347.730469 205.917969 347.652344 205.917969 C 346.011719 205.769531 344.816406 204.347656 345.039062 202.703125 L 345.039062 202.332031 C 345.1875 200.6875 346.609375 199.492188 348.25 199.714844 C 349.894531 199.867188 351.089844 201.285156 350.867188 202.929688 L 350.867188 203.300781 C 350.792969 204.796875 349.445312 205.917969 347.953125 205.917969 Z M 26.523438 198.222656 C 24.957031 198.222656 23.683594 197.027344 23.609375 195.382812 L 23.609375 195.007812 C 23.535156 193.363281 24.804688 192.019531 26.375 191.945312 C 28.019531 191.871094 29.363281 193.140625 29.4375 194.710938 L 29.4375 195.082031 C 29.511719 196.726562 28.242188 198.074219 26.671875 198.148438 C 26.597656 198.222656 26.523438 198.222656 26.523438 198.222656 Z M 348.699219 190.453125 C 347.054688 190.453125 345.636719 189.480469 345.636719 187.835938 L 345.636719 187.539062 C 345.636719 187.539062 345.636719 187.460938 345.636719 187.460938 L 345.636719 187.089844 C 345.636719 185.445312 346.980469 184.175781 348.625 184.175781 C 350.269531 184.175781 351.613281 185.519531 351.613281 187.089844 L 351.613281 187.386719 C 351.613281 187.386719 351.613281 187.460938 351.613281 187.460938 L 351.613281 187.835938 C 351.613281 189.480469 350.34375 190.453125 348.699219 190.453125 Z M 26.449219 183.054688 C 26.375 183.054688 26.375 183.054688 26.300781 183.054688 C 24.65625 182.980469 23.386719 181.636719 23.460938 179.992188 L 23.460938 179.617188 C 23.535156 177.972656 24.957031 176.777344 26.523438 176.851562 C 28.167969 176.925781 29.4375 178.273438 29.289062 179.917969 L 29.289062 180.289062 C 29.363281 181.859375 28.019531 183.054688 26.449219 183.054688 Z M 348.027344 175.359375 C 346.53125 175.359375 345.261719 174.238281 345.113281 172.667969 L 345.113281 172.296875 C 344.964844 170.652344 346.160156 169.230469 347.730469 169.082031 C 349.371094 168.933594 350.792969 170.128906 350.941406 171.699219 L 350.941406 172.070312 C 351.089844 173.714844 349.894531 175.132812 348.25 175.285156 C 348.175781 175.359375 348.101562 175.359375 348.027344 175.359375 Z M 27.867188 168.035156 C 27.71875 168.035156 27.570312 168.035156 27.496094 168.035156 C 25.851562 167.8125 24.730469 166.316406 24.957031 164.75 L 25.03125 164.375 C 25.253906 162.730469 26.75 161.609375 28.390625 161.910156 C 30.035156 162.132812 31.15625 163.628906 30.859375 165.273438 L 30.78125 165.644531 C 30.558594 166.992188 29.289062 168.035156 27.867188 168.035156 Z M 345.933594 160.414062 C 344.515625 160.414062 343.320312 159.445312 343.023438 158.023438 L 342.945312 157.652344 C 342.648438 156.082031 343.695312 154.511719 345.261719 154.214844 C 346.832031 153.914062 348.402344 154.960938 348.699219 156.53125 L 348.773438 156.902344 C 349.074219 158.472656 348.027344 160.042969 346.457031 160.339844 C 346.234375 160.414062 346.085938 160.414062 345.933594 160.414062 Z M 30.632812 153.167969 C 30.410156 153.167969 30.183594 153.167969 29.960938 153.09375 C 28.390625 152.71875 27.421875 151.152344 27.792969 149.582031 L 27.867188 149.207031 C 28.242188 147.640625 29.8125 146.667969 31.378906 147.042969 C 32.949219 147.414062 33.921875 148.984375 33.546875 150.554688 L 33.472656 150.925781 C 33.175781 152.269531 31.976562 153.167969 30.632812 153.167969 Z M 342.421875 145.695312 C 341.152344 145.695312 339.957031 144.875 339.585938 143.53125 L 339.511719 143.15625 C 339.0625 141.585938 339.957031 139.941406 341.527344 139.496094 C 343.097656 139.046875 344.738281 139.941406 345.1875 141.511719 L 345.261719 141.886719 C 345.710938 143.453125 344.816406 145.097656 343.246094 145.546875 C 342.945312 145.695312 342.648438 145.695312 342.421875 145.695312 Z M 34.816406 138.671875 C 34.519531 138.671875 34.21875 138.597656 33.847656 138.523438 C 32.277344 138 31.457031 136.355469 31.976562 134.789062 L 32.128906 134.488281 C 32.652344 132.917969 34.371094 132.097656 35.863281 132.621094 C 37.433594 133.144531 38.253906 134.789062 37.730469 136.355469 L 37.582031 136.730469 C 37.207031 137.925781 36.011719 138.671875 34.816406 138.671875 Z M 337.566406 131.425781 C 336.371094 131.425781 335.25 130.679688 334.800781 129.558594 L 334.652344 129.257812 C 334.054688 127.765625 334.800781 126.046875 336.296875 125.449219 C 337.792969 124.851562 339.511719 125.597656 340.109375 127.09375 L 340.257812 127.464844 C 340.855469 128.960938 340.109375 130.679688 338.613281 131.277344 C 338.238281 131.351562 337.941406 131.425781 337.566406 131.425781 Z M 40.347656 124.625 C 39.972656 124.625 39.523438 124.550781 39.152344 124.402344 C 37.65625 123.730469 36.984375 122.011719 37.65625 120.515625 L 37.804688 120.144531 C 38.480469 118.648438 40.195312 117.976562 41.691406 118.648438 C 43.1875 119.320312 43.859375 121.039062 43.1875 122.535156 L 43.035156 122.832031 C 42.511719 123.953125 41.46875 124.625 40.347656 124.625 Z M 331.367188 117.601562 C 330.320312 117.601562 329.273438 117.003906 328.75 115.960938 L 328.601562 115.660156 C 327.855469 114.242188 328.453125 112.449219 329.871094 111.699219 C 331.292969 110.953125 333.085938 111.550781 333.832031 112.96875 L 333.980469 113.269531 C 334.726562 114.6875 334.128906 116.480469 332.710938 117.230469 C 332.261719 117.527344 331.8125 117.601562 331.367188 117.601562 Z M 47.144531 111.101562 C 46.621094 111.101562 46.175781 110.953125 45.726562 110.730469 C 44.304688 109.90625 43.785156 108.113281 44.605469 106.695312 L 44.753906 106.394531 C 45.578125 104.976562 47.371094 104.527344 48.789062 105.273438 C 50.210938 106.097656 50.65625 107.890625 49.910156 109.308594 L 49.761719 109.609375 C 49.164062 110.578125 48.191406 111.101562 47.144531 111.101562 Z M 323.894531 104.453125 C 322.921875 104.453125 321.953125 103.929688 321.429688 103.109375 L 321.277344 102.808594 C 320.382812 101.464844 320.832031 99.597656 322.175781 98.773438 C 323.519531 97.878906 325.386719 98.328125 326.210938 99.671875 L 326.433594 99.96875 C 327.332031 101.316406 326.882812 103.183594 325.539062 104.003906 C 324.941406 104.378906 324.417969 104.453125 323.894531 104.453125 Z M 55.214844 98.328125 C 54.617188 98.328125 54.019531 98.175781 53.570312 97.804688 C 52.226562 96.90625 51.925781 95.039062 52.824219 93.695312 L 53.046875 93.394531 C 53.945312 92.050781 55.8125 91.75 57.15625 92.648438 C 58.503906 93.621094 58.800781 95.414062 57.90625 96.757812 L 57.679688 97.054688 C 57.082031 97.878906 56.113281 98.328125 55.214844 98.328125 Z M 315.226562 92.125 C 314.332031 92.125 313.433594 91.75 312.910156 91.003906 L 312.6875 90.707031 C 311.714844 89.433594 311.941406 87.566406 313.210938 86.597656 C 314.480469 85.625 316.347656 85.847656 317.320312 87.117188 L 317.542969 87.417969 C 318.515625 88.6875 318.289062 90.554688 317.019531 91.527344 C 316.496094 91.902344 315.898438 92.125 315.226562 92.125 Z M 64.40625 86.371094 C 63.734375 86.371094 63.058594 86.148438 62.539062 85.699219 C 61.265625 84.652344 61.117188 82.785156 62.164062 81.589844 L 62.386719 81.292969 C 63.433594 80.019531 65.300781 79.945312 66.570312 80.992188 C 67.84375 82.039062 67.917969 83.90625 66.871094 85.175781 L 66.648438 85.476562 C 66.125 86 65.226562 86.371094 64.40625 86.371094 Z M 305.4375 80.617188 C 304.617188 80.617188 303.871094 80.320312 303.273438 79.648438 L 303.046875 79.421875 C 301.925781 78.226562 302.003906 76.359375 303.199219 75.238281 C 304.394531 74.117188 306.261719 74.191406 307.382812 75.386719 L 307.679688 75.6875 C 308.800781 76.882812 308.726562 78.75 307.53125 79.871094 C 306.933594 80.320312 306.1875 80.617188 305.4375 80.617188 Z M 74.714844 75.3125 C 73.96875 75.3125 73.222656 75.015625 72.625 74.417969 C 71.503906 73.222656 71.503906 71.429688 72.699219 70.234375 L 72.996094 69.933594 C 74.191406 68.8125 76.0625 68.8125 77.183594 70.007812 C 78.300781 71.203125 78.300781 73.074219 77.105469 74.191406 L 76.882812 74.417969 C 76.210938 75.015625 75.464844 75.3125 74.714844 75.3125 Z M 294.679688 70.007812 C 294.007812 70.007812 293.261719 69.785156 292.738281 69.261719 L 292.511719 69.039062 C 291.316406 67.992188 291.167969 66.125 292.289062 64.855469 C 293.335938 63.65625 295.203125 63.507812 296.472656 64.628906 L 296.773438 64.855469 C 297.96875 65.972656 298.117188 67.765625 296.996094 69.039062 C 296.25 69.710938 295.503906 70.007812 294.679688 70.007812 Z M 86 65.226562 C 85.175781 65.226562 84.28125 64.855469 83.683594 64.105469 C 82.636719 62.835938 82.859375 60.96875 84.128906 59.996094 L 84.429688 59.773438 C 85.699219 58.726562 87.566406 58.949219 88.539062 60.222656 C 89.585938 61.492188 89.359375 63.359375 88.089844 64.332031 L 87.792969 64.554688 C 87.269531 65.003906 86.671875 65.226562 86 65.226562 Z M 282.949219 60.519531 C 282.351562 60.519531 281.753906 60.371094 281.230469 59.921875 L 280.933594 59.699219 C 279.585938 58.726562 279.363281 56.933594 280.261719 55.589844 C 281.230469 54.242188 283.097656 54.019531 284.371094 54.917969 L 284.667969 55.140625 C 286.011719 56.113281 286.238281 57.980469 285.265625 59.25 C 284.742188 60.070312 283.847656 60.519531 282.949219 60.519531 Z M 98.175781 56.261719 C 97.207031 56.261719 96.308594 55.8125 95.710938 54.917969 C 94.816406 53.570312 95.1875 51.703125 96.53125 50.808594 L 96.832031 50.582031 C 98.175781 49.6875 100.042969 50.058594 100.941406 51.40625 C 101.839844 52.75 101.464844 54.617188 100.121094 55.515625 L 99.820312 55.738281 C 99.296875 56.113281 98.699219 56.261719 98.175781 56.261719 Z M 270.324219 52.152344 C 269.800781 52.152344 269.277344 52.003906 268.828125 51.703125 L 268.53125 51.480469 C 267.109375 50.65625 266.660156 48.863281 267.484375 47.445312 C 268.304688 46.023438 270.097656 45.578125 271.519531 46.398438 L 271.816406 46.621094 C 273.238281 47.445312 273.683594 49.238281 272.863281 50.65625 C 272.339844 51.628906 271.367188 52.152344 270.324219 52.152344 Z M 111.101562 48.492188 C 110.058594 48.492188 109.011719 47.894531 108.488281 46.921875 C 107.742188 45.503906 108.261719 43.707031 109.683594 42.960938 L 109.980469 42.8125 C 111.402344 42.066406 113.195312 42.589844 113.941406 44.007812 C 114.6875 45.425781 114.167969 47.21875 112.746094 47.96875 L 112.449219 48.117188 C 112.074219 48.339844 111.550781 48.492188 111.101562 48.492188 Z M 257.023438 44.980469 C 256.574219 44.980469 256.203125 44.90625 255.753906 44.679688 L 255.453125 44.53125 C 253.960938 43.859375 253.363281 42.066406 254.035156 40.570312 C 254.707031 39.078125 256.5 38.480469 257.996094 39.152344 L 258.292969 39.300781 C 259.789062 39.972656 260.386719 41.765625 259.714844 43.261719 C 259.191406 44.382812 258.144531 44.980469 257.023438 44.980469 Z M 124.699219 41.914062 C 123.582031 41.914062 122.460938 41.242188 122.011719 40.121094 C 121.414062 38.628906 122.085938 36.910156 123.582031 36.238281 L 123.953125 36.085938 C 125.449219 35.488281 127.167969 36.164062 127.839844 37.65625 C 128.4375 39.152344 127.765625 40.871094 126.269531 41.542969 L 125.972656 41.691406 C 125.449219 41.839844 125.074219 41.914062 124.699219 41.914062 Z M 243.125 39.078125 C 242.828125 39.078125 242.453125 39 242.15625 38.925781 L 241.78125 38.777344 C 240.285156 38.253906 239.464844 36.535156 240.0625 34.96875 C 240.585938 33.472656 242.304688 32.652344 243.875 33.25 L 244.246094 33.398438 C 245.742188 33.921875 246.5625 35.640625 246.039062 37.207031 C 245.441406 38.328125 244.320312 39.078125 243.125 39.078125 Z M 138.898438 36.6875 C 137.628906 36.6875 136.507812 35.863281 136.058594 34.59375 C 135.535156 33.023438 136.429688 31.378906 138 30.933594 L 138.375 30.859375 C 139.941406 30.335938 141.585938 31.230469 142.035156 32.800781 C 142.558594 34.371094 141.660156 36.011719 140.09375 36.460938 L 139.71875 36.535156 C 139.496094 36.6875 139.195312 36.6875 138.898438 36.6875 Z M 228.707031 34.59375 C 228.480469 34.59375 228.183594 34.59375 227.957031 34.519531 L 227.585938 34.445312 C 226.015625 34.070312 225.042969 32.425781 225.492188 30.859375 C 225.867188 29.289062 227.511719 28.316406 229.078125 28.765625 L 229.453125 28.839844 C 231.023438 29.289062 231.992188 30.859375 231.546875 32.425781 C 231.171875 33.695312 229.976562 34.59375 228.707031 34.59375 Z M 153.46875 32.875 C 152.121094 32.875 150.925781 31.902344 150.628906 30.558594 C 150.253906 28.988281 151.300781 27.421875 152.867188 27.046875 L 153.167969 26.972656 C 154.738281 26.597656 156.378906 27.644531 156.679688 29.214844 C 157.054688 30.78125 156.007812 32.351562 154.4375 32.726562 L 154.066406 32.800781 C 153.914062 32.800781 153.691406 32.875 153.46875 32.875 Z M 213.914062 31.378906 C 213.761719 31.378906 213.613281 31.378906 213.464844 31.304688 L 213.089844 31.230469 C 211.519531 31.007812 210.402344 29.4375 210.625 27.867188 C 210.921875 26.300781 212.417969 25.179688 213.988281 25.402344 L 214.359375 25.476562 C 215.929688 25.777344 217.050781 27.269531 216.75 28.839844 C 216.601562 30.410156 215.332031 31.378906 213.914062 31.378906 Z M 168.410156 30.410156 C 166.914062 30.410156 165.644531 29.289062 165.496094 27.792969 C 165.273438 26.152344 166.46875 24.730469 168.109375 24.507812 L 168.484375 24.433594 C 170.128906 24.207031 171.546875 25.402344 171.773438 27.046875 C 171.996094 28.691406 170.800781 30.109375 169.15625 30.335938 L 168.785156 30.410156 C 168.632812 30.335938 168.484375 30.410156 168.410156 30.410156 Z M 198.894531 29.664062 C 198.820312 29.664062 198.746094 29.664062 198.671875 29.664062 L 198.296875 29.664062 C 196.652344 29.585938 195.457031 28.167969 195.53125 26.523438 C 195.605469 24.878906 197.027344 23.683594 198.671875 23.757812 L 199.042969 23.757812 C 200.6875 23.835938 201.882812 25.253906 201.808594 26.898438 C 201.734375 28.46875 200.464844 29.664062 198.894531 29.664062 Z M 183.429688 29.363281 C 181.859375 29.363281 180.515625 28.09375 180.515625 26.449219 C 180.4375 24.804688 181.785156 23.460938 183.351562 23.386719 L 183.726562 23.386719 C 185.296875 23.3125 186.714844 24.65625 186.714844 26.226562 C 186.789062 27.867188 185.445312 29.214844 183.875 29.289062 L 183.429688 29.363281 C 183.503906 29.363281 183.503906 29.363281 183.429688 29.363281 Z M 183.429688 29.363281 " fill-opacity="1" fill-rule="nonzero"/><path fill="#000000" d="M 100.152344 90.636719 L 127.195312 115.351562 L 121.980469 132.109375 L 103.65625 136.882812 L 76.609375 112.148438 L 64.382812 123.332031 L 95.453125 164.289062 L 132.101562 157.914062 L 260.714844 283.15625 C 280.414062 301.308594 306.980469 274.089844 288.550781 258.59375 L 151.132812 139.726562 L 159.5 105.828125 L 113.296875 78.59375 Z M 269.3125 266.171875 C 272.816406 262.964844 278.492188 262.964844 282 266.171875 C 285.503906 269.375 285.503906 274.566406 282 277.773438 C 278.492188 280.960938 272.816406 280.960938 269.3125 277.773438 C 265.804688 274.566406 265.804688 269.375 269.3125 266.171875 Z M 269.3125 266.171875 " fill-opacity="1" fill-rule="nonzero"/><path fill="#000000" d="M 100.152344 90.636719 L 127.195312 115.351562 L 121.980469 132.109375 L 103.65625 136.882812 L 76.609375 112.148438 L 64.382812 123.332031 L 95.453125 164.289062 L 132.101562 157.914062 L 260.714844 283.15625 C 280.414062 301.308594 306.980469 274.089844 288.550781 258.59375 L 151.132812 139.726562 L 159.5 105.828125 L 113.296875 78.59375 Z M 269.3125 266.171875 C 272.816406 262.964844 278.492188 262.964844 282 266.171875 C 285.503906 269.375 285.503906 274.566406 282 277.773438 C 278.492188 280.960938 272.816406 280.960938 269.3125 277.773438 C 265.804688 274.566406 265.804688 269.375 269.3125 266.171875 Z M 269.3125 266.171875 " fill-opacity="1" fill-rule="nonzero"/><path fill="#000000" d="M 100.152344 90.636719 L 127.195312 115.351562 L 121.980469 132.109375 L 103.65625 136.882812 L 76.609375 112.148438 L 64.382812 123.332031 L 95.453125 164.289062 L 132.101562 157.914062 L 260.714844 283.15625 C 280.414062 301.308594 306.980469 274.089844 288.550781 258.59375 L 151.132812 139.726562 L 159.5 105.828125 L 113.296875 78.59375 Z M 269.3125 266.171875 C 272.816406 262.964844 278.492188 262.964844 282 266.171875 C 285.503906 269.375 285.503906 274.566406 282 277.773438 C 278.492188 280.960938 272.816406 280.960938 269.3125 277.773438 C 265.804688 274.566406 265.804688 269.375 269.3125 266.171875 Z M 269.3125 266.171875 " fill-opacity="1" fill-rule="nonzero"/><g clip-path="url(#d3d75264d5)"><g clip-path="url(#9dbdcc6729)"><path fill="#000000" d="M 100.152344 90.636719 L 127.195312 115.351562 L 121.980469 132.109375 L 103.65625 136.882812 L 76.609375 112.148438 L 64.382812 123.332031 L 95.453125 164.289062 L 132.101562 157.914062 L 260.714844 283.15625 C 280.414062 301.308594 306.980469 274.089844 288.550781 258.59375 L 151.132812 139.726562 L 159.5 105.828125 L 113.296875 78.59375 Z M 269.3125 266.171875 C 272.816406 262.964844 278.492188 262.964844 282 266.171875 C 285.503906 269.375 285.503906 274.566406 282 277.773438 C 278.492188 280.960938 272.816406 280.960938 269.3125 277.773438 C 265.804688 274.566406 265.804688 269.375 269.3125 266.171875 Z M 269.3125 266.171875 " fill-opacity="1" fill-rule="nonzero"/></g></g><path fill="#000000" d="M 104.136719 87.199219 L 132.207031 112.738281 L 125.257812 135.050781 L 102.40625 141.292969 L 74.089844 115.066406 L 64.214844 123.734375 L 93.847656 161.789062 L 133.289062 153.886719 L 263.71875 280.546875 C 279.371094 296.390625 305.875 275.453125 286.964844 258.410156 L 147.355469 137.972656 L 155.410156 105.203125 L 113.757812 78.425781 L 104.136719 87.203125 Z M 271.019531 265.273438 C 274.507812 262.085938 280.683594 261.457031 284.167969 264.703125 C 287.714844 267.890625 290.554688 273.539062 285.523438 279.664062 C 281.351562 283.484375 274.671875 283.332031 270.5 279.207031 C 266.996094 276 267.472656 268.519531 271.023438 265.273438 Z M 271.019531 265.273438 " fill-opacity="1" fill-rule="nonzero"/><path fill="#000000" d="M 103.859375 87.242188 L 152.835938 132.382812 L 159.558594 105.910156 L 113.4375 78.425781 Z M 103.859375 87.242188 " fill-opacity="1" fill-rule="nonzero"/><path fill="#000000" d="M 200.984375 182.863281 L 210.648438 191.03125 C 211.441406 199.277344 209.125 201.757812 194.308594 213.246094 L 176.363281 195.648438 L 200.964844 182.863281 Z M 200.984375 182.863281 " fill-opacity="1" fill-rule="nonzero"/><path fill="#000000" d="M 169.808594 80.710938 L 171.394531 81.015625 C 189.84375 75.40625 231.246094 97.507812 222.023438 117.203125 C 219.6875 120.296875 220.082031 125.792969 222.898438 129.246094 L 171.125 176.617188 C 168.222656 173.964844 161.777344 174.023438 158.8125 176.617188 L 73.1875 251.78125 C 65.382812 258.632812 71.519531 264.453125 74.816406 267.527344 L 90.175781 281.574219 C 93.535156 284.625 102.402344 288.75 108.707031 282.640625 L 189.511719 204.75 C 192.328125 202.042969 192.347656 196.21875 189.511719 193.546875 C 189.511719 193.546875 189.53125 193.511719 189.511719 193.511719 L 241.492188 145.984375 C 246.980469 150.507812 252.164062 150.898438 257.082031 149.667969 C 266.578125 147.292969 271.871094 155.789062 277.554688 162 L 274.988281 164.308594 C 271.191406 167.820312 271.542969 173.738281 275.800781 177.628906 C 280.058594 181.523438 286.550781 181.847656 290.347656 178.375 L 307.335938 162.859375 C 311.132812 159.347656 310.777344 153.429688 306.5 149.554688 C 302.660156 146.023438 297.085938 145.566406 293.207031 148.085938 C 281.5625 136.136719 287.675781 134.34375 272.316406 118.789062 L 243.539062 91.898438 C 222.816406 73.308594 195.894531 73.324219 169.808594 80.710938 Z M 169.808594 80.710938 " fill-opacity="1" fill-rule="nonzero"/><path fill="#000000" d="M 169.808594 80.710938 L 171.394531 81.015625 C 189.84375 75.40625 231.246094 97.507812 222.023438 117.203125 C 219.6875 120.296875 220.082031 125.792969 222.898438 129.246094 L 171.125 176.617188 C 168.222656 173.964844 161.777344 174.023438 158.8125 176.617188 L 73.1875 251.78125 C 65.382812 258.632812 71.519531 264.453125 74.816406 267.527344 L 90.175781 281.574219 C 93.535156 284.625 102.402344 288.75 108.707031 282.640625 L 189.511719 204.75 C 192.328125 202.042969 192.347656 196.21875 189.511719 193.546875 C 189.511719 193.546875 189.53125 193.511719 189.511719 193.511719 L 241.492188 145.984375 C 246.980469 150.507812 252.164062 150.898438 257.082031 149.667969 C 266.578125 147.292969 271.871094 155.789062 277.554688 162 L 274.988281 164.308594 C 271.191406 167.820312 271.542969 173.738281 275.800781 177.628906 C 280.058594 181.523438 286.550781 181.847656 290.347656 178.375 L 307.335938 162.859375 C 311.132812 159.347656 310.777344 153.429688 306.5 149.554688 C 302.660156 146.023438 297.085938 145.566406 293.207031 148.085938 C 281.5625 136.136719 287.675781 134.34375 272.316406 118.789062 L 243.539062 91.898438 C 222.816406 73.308594 195.894531 73.324219 169.808594 80.710938 Z M 169.808594 80.710938 " fill-opacity="1" fill-rule="nonzero"/><path fill="#000000" d="M 226.40625 126.039062 L 164.949219 182.246094 L 183.375 199.101562 L 244.832031 142.910156 Z M 226.40625 126.039062 " fill-opacity="1" fill-rule="nonzero"/><path fill="#000000" d="M 238.945312 137.515625 L 177.488281 193.703125 L 183.375 199.105469 L 244.832031 142.914062 Z M 238.945312 137.515625 " fill-opacity="1" fill-rule="nonzero"/><path fill="#000000" d="M 233.792969 128.5 L 172.585938 184.480469 L 180.496094 191.714844 L 240.136719 134.300781 Z M 233.792969 128.5 " fill-opacity="1" fill-rule="nonzero"/><path fill="#000000" d="M 169.8125 80.714844 L 171.398438 81.019531 C 189.84375 75.410156 231.246094 97.511719 222.023438 117.207031 C 219.6875 120.300781 220.082031 125.796875 222.902344 129.253906 L 241.496094 145.992188 C 246.984375 150.515625 252.15625 150.894531 257.082031 149.675781 C 266.578125 147.328125 271.855469 155.78125 277.554688 162.003906 L 274.988281 164.3125 C 271.191406 167.824219 271.542969 173.742188 275.800781 177.636719 C 280.058594 181.53125 286.546875 181.855469 290.347656 178.378906 L 307.332031 162.863281 C 311.132812 159.351562 310.777344 153.433594 306.5 149.558594 C 302.660156 146.03125 297.085938 145.570312 293.207031 148.089844 C 281.5625 136.144531 287.675781 134.347656 272.316406 118.792969 L 243.539062 91.902344 C 222.816406 73.308594 195.898438 73.328125 169.8125 80.714844 Z M 169.8125 80.714844 " fill-opacity="1" fill-rule="nonzero"/><path fill="#000000" d="M 293.199219 148.082031 C 281.554688 136.132812 287.667969 134.339844 272.308594 118.785156 L 243.53125 91.890625 C 231.660156 81.242188 217.738281 76.699219 203.128906 76.128906 L 288.960938 155.394531 L 295.167969 150.183594 L 293.195312 148.082031 Z M 293.199219 148.082031 " fill-opacity="1" fill-rule="nonzero"/><path fill="#000000" d="M 223.339844 111.253906 C 223.445312 113.160156 222.964844 115.070312 221.984375 117.207031 C 219.6875 120.300781 220.082031 125.796875 222.902344 129.25 L 241.496094 145.988281 C 246.984375 150.511719 252.15625 150.894531 257.082031 149.671875 C 259.335938 149.042969 261.382812 149.160156 263.300781 149.671875 C 269.144531 151.144531 223.316406 110.453125 223.339844 111.0625 Z M 223.339844 111.253906 " fill-opacity="1" fill-rule="nonzero"/><path fill="#000000" d="M 171.125 176.621094 C 168.226562 173.96875 161.777344 174.023438 158.8125 176.621094 L 73.195312 251.78125 C 65.390625 258.632812 71.484375 264.457031 74.820312 267.527344 L 90.179688 281.574219 C 93.539062 284.628906 102.410156 288.753906 108.710938 282.644531 L 189.515625 204.753906 C 192.332031 202.042969 192.351562 196.222656 189.515625 193.550781 C 189.515625 193.550781 189.535156 193.511719 189.515625 193.511719 L 171.128906 176.621094 Z M 171.125 176.621094 " fill-opacity="1" fill-rule="nonzero"/><path fill="#000000" d="M 74.792969 267.507812 L 90.152344 281.574219 C 93.511719 284.628906 102.109375 289 108.414062 282.929688 L 189.527344 204.734375 C 192.347656 202.003906 192.429688 196.144531 189.527344 193.511719 L 171.101562 176.640625 L 74.792969 267.511719 Z M 74.792969 267.507812 " fill-opacity="1" fill-rule="nonzero"/><path fill="#000000" d="M 160.210938 183.207031 L 79.074219 255.808594 C 75.691406 258.789062 76.839844 262.96875 79.28125 265.144531 L 87.898438 272.722656 L 176.316406 189.503906 L 168.136719 182.480469 C 166.382812 180.953125 162.292969 181.394531 160.207031 183.207031 Z M 160.210938 183.207031 " fill-opacity="1" fill-rule="nonzero"/><g clip-path="url(#762a5ad84d)"><g clip-path="url(#7e197e0b5b)"><path fill="#000000" d="M 169.808594 80.710938 L 171.394531 81.015625 C 189.84375 75.40625 231.246094 97.507812 222.023438 117.203125 C 219.6875 120.296875 220.082031 125.792969 222.898438 129.246094 L 171.125 176.617188 C 168.222656 173.964844 161.777344 174.023438 158.8125 176.617188 L 73.1875 251.78125 C 65.382812 258.632812 71.519531 264.453125 74.816406 267.527344 L 90.175781 281.574219 C 93.535156 284.625 102.402344 288.75 108.707031 282.640625 L 189.511719 204.75 C 192.328125 202.042969 192.347656 196.21875 189.511719 193.546875 C 189.511719 193.546875 189.53125 193.511719 189.511719 193.511719 L 241.492188 145.984375 C 246.980469 150.507812 252.164062 150.898438 257.082031 149.667969 C 266.578125 147.292969 271.871094 155.789062 277.554688 162 L 274.988281 164.308594 C 271.191406 167.820312 271.542969 173.738281 275.800781 177.628906 C 280.058594 181.523438 286.550781 181.847656 290.347656 178.375 L 307.335938 162.859375 C 311.132812 159.347656 310.777344 153.429688 306.5 149.554688 C 302.660156 146.023438 297.085938 145.566406 293.207031 148.085938 C 281.5625 136.136719 287.675781 134.34375 272.316406 118.789062 L 243.539062 91.898438 C 222.816406 73.308594 195.894531 73.324219 169.808594 80.710938 Z M 169.808594 80.710938 " fill-opacity="1" fill-rule="nonzero"/></g></g><path fill="#000000" d="M 304.722656 151.828125 C 307.871094 154.578125 308.476562 158.394531 304.136719 162.058594 L 296.0625 168.988281 C 291.71875 172.710938 280.367188 162.785156 284.6875 159.082031 L 292.785156 152.152344 C 297.105469 148.433594 301.570312 149.082031 304.722656 151.828125 Z M 304.722656 151.828125 " fill-opacity="1" fill-rule="nonzero"/></svg>