<svg xmlns="http://www.w3.org/2000/svg" xmlns:xlink="http://www.w3.org/1999/xlink" width="500" zoomAndPan="magnify" viewBox="0 0 375 374.999991" height="500" preserveAspectRatio="xMidYMid meet" version="1.0"><defs><clipPath id="46e4dcf356"><path d="M 187.5 0 C 83.945312 0 0 83.945312 0 187.5 C 0 291.054688 83.945312 375 187.5 375 C 291.054688 375 375 291.054688 375 187.5 C 375 83.945312 291.054688 0 187.5 0 Z M 187.5 0 " clip-rule="nonzero"/></clipPath><clipPath id="817b502094"><path d="M 58.871094 69.726562 L 316.121094 69.726562 L 316.121094 318.726562 L 58.871094 318.726562 Z M 58.871094 69.726562 " clip-rule="nonzero"/></clipPath></defs><g clip-path="url(#46e4dcf356)"><rect x="-37.5" width="450" fill="#ffbd59" y="-37.499999" height="449.999989" fill-opacity="1"/></g><path fill="#000000" d="M 187.539062 375 C 137.476562 375 90.332031 355.5 54.917969 320.082031 C 19.5 284.667969 0 237.597656 0 187.539062 C 0 137.476562 19.5 90.332031 54.917969 54.917969 C 90.332031 19.5 137.402344 0 187.539062 0 C 237.671875 0 284.667969 19.5 320.082031 54.917969 C 355.5 90.332031 375 137.402344 375 187.539062 C 375 237.671875 355.5 284.667969 320.082031 320.082031 C 284.667969 355.5 237.597656 375 187.539062 375 Z M 187.539062 11.207031 C 140.464844 11.207031 96.160156 29.511719 62.835938 62.835938 C 29.511719 96.160156 11.207031 140.390625 11.207031 187.539062 C 11.207031 234.683594 29.511719 278.914062 62.835938 312.238281 C 96.160156 345.5625 140.390625 363.867188 187.539062 363.867188 C 234.683594 363.867188 278.914062 345.5625 312.238281 312.238281 C 345.5625 278.914062 363.867188 234.683594 363.867188 187.539062 C 363.867188 140.390625 345.5625 96.160156 312.238281 62.835938 C 278.839844 29.511719 234.609375 11.207031 187.539062 11.207031 Z M 187.539062 11.207031 " fill-opacity="1" fill-rule="nonzero"/><path fill="#000000" d="M 183.800781 351.613281 L 183.351562 351.613281 C 181.710938 351.539062 180.4375 350.195312 180.515625 348.625 C 180.589844 347.054688 181.859375 345.785156 183.429688 345.785156 C 183.429688 345.785156 183.503906 345.785156 183.503906 345.785156 L 183.875 345.785156 C 185.519531 345.859375 186.789062 347.207031 186.714844 348.773438 C 186.714844 350.34375 185.445312 351.613281 183.800781 351.613281 Z M 198.59375 351.242188 C 197.027344 351.242188 195.757812 350.042969 195.679688 348.476562 C 195.605469 346.832031 196.800781 345.488281 198.445312 345.335938 L 198.746094 345.335938 C 200.386719 345.1875 201.808594 346.457031 201.882812 348.027344 C 202.03125 349.671875 200.761719 351.089844 199.191406 351.164062 L 198.820312 351.164062 C 198.671875 351.242188 198.59375 351.242188 198.59375 351.242188 Z M 168.785156 350.566406 C 168.707031 350.566406 168.558594 350.566406 168.410156 350.566406 L 168.035156 350.492188 C 166.394531 350.269531 165.273438 348.847656 165.496094 347.207031 C 165.71875 345.5625 167.140625 344.441406 168.785156 344.664062 L 169.15625 344.738281 C 170.800781 344.890625 171.921875 346.382812 171.773438 348.027344 C 171.472656 349.445312 170.203125 350.566406 168.785156 350.566406 Z M 213.539062 349.523438 C 212.117188 349.523438 210.847656 348.476562 210.625 347.054688 C 210.324219 345.488281 211.445312 343.917969 213.089844 343.695312 L 213.464844 343.621094 C 215.03125 343.394531 216.601562 344.441406 216.824219 346.085938 C 217.050781 347.730469 216.003906 349.222656 214.359375 349.445312 L 213.988281 349.523438 C 213.914062 349.523438 213.761719 349.523438 213.539062 349.523438 Z M 153.839844 348.101562 C 153.617188 348.101562 153.46875 348.101562 153.242188 348.027344 L 152.867188 347.953125 C 151.300781 347.578125 150.253906 346.011719 150.628906 344.441406 C 151 342.871094 152.570312 341.824219 154.140625 342.199219 L 154.511719 342.273438 C 156.082031 342.648438 157.128906 344.140625 156.753906 345.785156 C 156.457031 347.207031 155.183594 348.101562 153.839844 348.101562 Z M 228.332031 346.457031 C 226.988281 346.457031 225.792969 345.5625 225.492188 344.21875 C 225.121094 342.648438 226.015625 341.003906 227.660156 340.628906 L 227.957031 340.554688 C 229.527344 340.109375 231.171875 341.078125 231.546875 342.648438 C 231.992188 344.21875 231.023438 345.859375 229.453125 346.234375 L 229.078125 346.308594 C 228.855469 346.382812 228.554688 346.457031 228.332031 346.457031 Z M 139.269531 344.292969 C 138.972656 344.292969 138.671875 344.21875 138.375 344.140625 L 138.074219 344.066406 C 136.507812 343.542969 135.609375 341.902344 136.132812 340.332031 C 136.65625 338.761719 138.226562 337.941406 139.792969 338.390625 L 140.167969 338.464844 C 141.738281 338.910156 142.558594 340.628906 142.109375 342.125 C 141.660156 343.46875 140.464844 344.292969 139.269531 344.292969 Z M 242.753906 341.902344 C 241.558594 341.902344 240.4375 341.152344 239.988281 339.957031 C 239.464844 338.464844 240.210938 336.746094 241.78125 336.222656 L 242.078125 336.074219 C 243.574219 335.550781 245.292969 336.296875 245.890625 337.792969 C 246.414062 339.285156 245.667969 341.003906 244.171875 341.601562 L 243.796875 341.75 C 243.425781 341.902344 243.125 341.902344 242.753906 341.902344 Z M 125.074219 339.136719 C 124.699219 339.136719 124.328125 339.0625 123.953125 338.914062 L 123.582031 338.761719 C 122.085938 338.089844 121.414062 336.371094 122.011719 334.878906 C 122.683594 333.382812 124.402344 332.710938 125.898438 333.308594 L 126.195312 333.457031 C 127.691406 334.054688 128.4375 335.773438 127.765625 337.34375 C 127.316406 338.390625 126.195312 339.136719 125.074219 339.136719 Z M 256.722656 336.074219 C 255.605469 336.074219 254.558594 335.476562 254.109375 334.429688 C 253.4375 332.933594 254.035156 331.214844 255.453125 330.46875 L 255.828125 330.320312 C 257.320312 329.648438 259.039062 330.246094 259.789062 331.738281 C 260.460938 333.234375 259.863281 334.953125 258.367188 335.625 L 258.070312 335.773438 C 257.546875 336 257.097656 336.074219 256.722656 336.074219 Z M 111.402344 332.5625 C 110.953125 332.5625 110.429688 332.410156 109.980469 332.1875 L 109.683594 332.039062 C 108.261719 331.292969 107.742188 329.496094 108.488281 328.078125 C 109.234375 326.660156 111.027344 326.136719 112.449219 326.882812 L 112.746094 327.03125 C 114.167969 327.78125 114.6875 329.574219 113.941406 330.992188 C 113.492188 332.039062 112.449219 332.5625 111.402344 332.5625 Z M 270.023438 328.976562 C 269.050781 328.976562 268.082031 328.453125 267.484375 327.554688 C 266.660156 326.136719 267.109375 324.34375 268.453125 323.519531 L 268.753906 323.296875 C 270.171875 322.472656 271.964844 322.921875 272.789062 324.34375 C 273.609375 325.761719 273.160156 327.554688 271.742188 328.378906 L 271.445312 328.527344 C 271.070312 328.824219 270.546875 328.976562 270.023438 328.976562 Z M 98.402344 324.789062 C 97.878906 324.789062 97.28125 324.640625 96.757812 324.269531 L 96.457031 324.042969 C 95.113281 323.148438 94.738281 321.355469 95.636719 319.933594 C 96.53125 318.589844 98.328125 318.214844 99.746094 319.113281 L 100.042969 319.335938 C 101.390625 320.234375 101.761719 322.027344 100.867188 323.445312 C 100.34375 324.34375 99.371094 324.789062 98.402344 324.789062 Z M 282.652344 320.605469 C 281.753906 320.605469 280.859375 320.160156 280.261719 319.410156 C 279.289062 318.140625 279.585938 316.273438 280.859375 315.300781 L 281.15625 315.078125 C 282.5 314.105469 284.292969 314.40625 285.265625 315.675781 C 286.238281 317.019531 285.9375 318.8125 284.667969 319.785156 L 284.371094 320.007812 C 283.847656 320.457031 283.25 320.605469 282.652344 320.605469 Z M 86.222656 315.898438 C 85.550781 315.898438 84.878906 315.675781 84.355469 315.226562 L 84.054688 315.003906 C 82.785156 313.957031 82.5625 312.164062 83.605469 310.894531 C 84.652344 309.625 86.445312 309.398438 87.714844 310.445312 L 88.015625 310.667969 C 89.285156 311.714844 89.433594 313.582031 88.464844 314.777344 C 87.941406 315.527344 87.117188 315.898438 86.222656 315.898438 Z M 294.382812 311.117188 C 293.558594 311.117188 292.738281 310.820312 292.214844 310.144531 C 291.167969 308.949219 291.242188 307.082031 292.4375 306.035156 L 292.738281 305.8125 C 293.933594 304.691406 295.800781 304.839844 296.921875 306.035156 C 298.042969 307.234375 297.894531 309.101562 296.699219 310.222656 L 296.472656 310.445312 C 295.800781 310.894531 295.054688 311.117188 294.382812 311.117188 Z M 74.941406 305.8125 C 74.191406 305.8125 73.445312 305.515625 72.921875 304.992188 L 72.625 304.691406 C 71.429688 303.570312 71.429688 301.703125 72.625 300.507812 C 73.746094 299.3125 75.613281 299.3125 76.808594 300.507812 L 77.03125 300.730469 C 78.226562 301.851562 78.226562 303.722656 77.105469 304.917969 C 76.507812 305.589844 75.6875 305.8125 74.941406 305.8125 Z M 305.214844 300.582031 C 304.46875 300.582031 303.796875 300.359375 303.199219 299.761719 C 302.003906 298.640625 301.925781 296.773438 303.046875 295.578125 L 303.273438 295.277344 C 304.394531 294.082031 306.261719 294.007812 307.457031 295.128906 C 308.652344 296.25 308.726562 298.117188 307.605469 299.3125 L 307.382812 299.535156 C 306.785156 300.285156 305.960938 300.582031 305.214844 300.582031 Z M 64.628906 294.828125 C 63.808594 294.828125 62.984375 294.457031 62.386719 293.785156 L 62.164062 293.484375 C 61.117188 292.214844 61.265625 290.421875 62.539062 289.300781 C 63.808594 288.253906 65.601562 288.402344 66.722656 289.675781 L 66.945312 289.972656 C 67.992188 291.242188 67.84375 293.035156 66.570312 294.15625 C 65.972656 294.605469 65.300781 294.828125 64.628906 294.828125 Z M 315.003906 289.078125 C 314.40625 289.078125 313.734375 288.851562 313.210938 288.480469 C 311.941406 287.507812 311.640625 285.640625 312.6875 284.371094 L 312.910156 284.070312 C 313.882812 282.800781 315.75 282.578125 317.019531 283.546875 C 318.289062 284.519531 318.515625 286.386719 317.542969 287.65625 L 317.320312 287.957031 C 316.796875 288.703125 315.898438 289.078125 315.003906 289.078125 Z M 55.4375 282.875 C 54.542969 282.875 53.570312 282.425781 53.046875 281.605469 L 52.824219 281.304688 C 51.925781 279.960938 52.226562 278.167969 53.570312 277.195312 C 54.917969 276.300781 56.710938 276.597656 57.679688 277.945312 L 57.90625 278.242188 C 58.800781 279.585938 58.503906 281.378906 57.15625 282.351562 C 56.558594 282.652344 55.960938 282.875 55.4375 282.875 Z M 323.671875 276.75 C 323.148438 276.75 322.625 276.597656 322.101562 276.300781 C 320.757812 275.402344 320.308594 273.609375 321.203125 272.265625 L 321.429688 271.964844 C 322.324219 270.621094 324.117188 270.171875 325.464844 271.070312 C 326.808594 271.964844 327.257812 273.757812 326.359375 275.105469 L 326.136719 275.402344 C 325.613281 276.226562 324.640625 276.75 323.671875 276.75 Z M 47.296875 270.097656 C 46.25 270.097656 45.277344 269.574219 44.753906 268.605469 L 44.605469 268.304688 C 43.785156 266.886719 44.304688 265.09375 45.726562 264.269531 C 47.144531 263.449219 48.9375 263.972656 49.761719 265.390625 L 49.910156 265.691406 C 50.730469 267.109375 50.210938 268.902344 48.789062 269.726562 C 48.339844 269.949219 47.816406 270.097656 47.296875 270.097656 Z M 331.214844 263.597656 C 330.769531 263.597656 330.320312 263.523438 329.871094 263.300781 C 328.453125 262.550781 327.855469 260.757812 328.601562 259.339844 L 328.75 259.039062 C 329.496094 257.621094 331.292969 257.023438 332.710938 257.769531 C 334.128906 258.519531 334.726562 260.3125 333.980469 261.730469 L 333.832031 262.027344 C 333.308594 263 332.261719 263.597656 331.214844 263.597656 Z M 40.496094 256.648438 C 39.375 256.648438 38.328125 255.976562 37.804688 254.929688 L 37.65625 254.632812 C 36.984375 253.136719 37.65625 251.417969 39.152344 250.746094 C 40.644531 250.074219 42.363281 250.746094 43.035156 252.242188 L 43.1875 252.539062 C 43.859375 254.035156 43.1875 255.753906 41.691406 256.425781 C 41.316406 256.574219 40.871094 256.648438 40.496094 256.648438 Z M 337.417969 249.851562 C 337.042969 249.851562 336.671875 249.777344 336.371094 249.625 C 334.878906 249.027344 334.128906 247.308594 334.726562 245.816406 L 334.878906 245.441406 C 335.476562 243.949219 337.195312 243.199219 338.6875 243.796875 C 340.183594 244.394531 340.929688 246.113281 340.332031 247.609375 L 340.183594 247.984375 C 339.660156 249.101562 338.613281 249.851562 337.417969 249.851562 Z M 34.890625 242.601562 C 33.695312 242.601562 32.5 241.855469 32.128906 240.585938 L 31.976562 240.210938 C 31.457031 238.644531 32.277344 237 33.847656 236.476562 C 35.414062 235.953125 37.058594 236.773438 37.582031 238.34375 L 37.730469 238.71875 C 38.253906 240.285156 37.433594 241.929688 35.9375 242.453125 C 35.566406 242.527344 35.265625 242.601562 34.890625 242.601562 Z M 342.347656 235.578125 C 342.050781 235.578125 341.824219 235.503906 341.527344 235.429688 C 339.957031 234.980469 339.0625 233.339844 339.511719 231.769531 L 339.585938 231.394531 C 340.03125 229.828125 341.675781 228.929688 343.246094 229.378906 C 344.816406 229.828125 345.710938 231.46875 345.261719 233.039062 L 345.1875 233.414062 C 344.738281 234.683594 343.621094 235.578125 342.347656 235.578125 Z M 30.707031 228.035156 C 29.363281 228.035156 28.167969 227.136719 27.867188 225.792969 L 27.792969 225.417969 C 27.421875 223.847656 28.390625 222.28125 29.960938 221.90625 C 31.53125 221.53125 33.097656 222.503906 33.472656 224.074219 L 33.546875 224.445312 C 33.921875 226.015625 32.949219 227.585938 31.378906 227.957031 C 31.15625 228.035156 30.933594 228.035156 30.707031 228.035156 Z M 345.859375 220.859375 C 345.710938 220.859375 345.488281 220.859375 345.261719 220.785156 C 343.695312 220.488281 342.648438 218.917969 342.945312 217.347656 L 343.023438 216.976562 C 343.320312 215.40625 344.890625 214.359375 346.457031 214.660156 C 348.027344 214.957031 349.074219 216.527344 348.773438 218.097656 L 348.699219 218.46875 C 348.476562 219.890625 347.207031 220.859375 345.859375 220.859375 Z M 27.867188 213.238281 C 26.449219 213.238281 25.179688 212.195312 24.957031 210.699219 L 24.878906 210.324219 C 24.65625 208.683594 25.777344 207.261719 27.421875 207.039062 C 29.066406 206.8125 30.484375 207.933594 30.707031 209.578125 L 30.78125 209.953125 C 31.007812 211.597656 29.886719 213.015625 28.316406 213.3125 C 28.167969 213.238281 28.019531 213.238281 27.867188 213.238281 Z M 347.953125 205.917969 C 347.878906 205.917969 347.730469 205.917969 347.652344 205.917969 C 346.011719 205.769531 344.816406 204.347656 345.039062 202.703125 L 345.039062 202.332031 C 345.1875 200.6875 346.609375 199.492188 348.25 199.714844 C 349.894531 199.867188 351.089844 201.285156 350.867188 202.929688 L 350.867188 203.300781 C 350.792969 204.796875 349.445312 205.917969 347.953125 205.917969 Z M 26.523438 198.222656 C 24.957031 198.222656 23.683594 197.027344 23.609375 195.382812 L 23.609375 195.007812 C 23.535156 193.363281 24.804688 192.019531 26.375 191.945312 C 28.019531 191.871094 29.363281 193.140625 29.4375 194.710938 L 29.4375 195.082031 C 29.511719 196.726562 28.242188 198.074219 26.671875 198.148438 C 26.597656 198.222656 26.523438 198.222656 26.523438 198.222656 Z M 348.699219 190.453125 C 347.054688 190.453125 345.636719 189.480469 345.636719 187.835938 L 345.636719 187.539062 C 345.636719 187.539062 345.636719 187.460938 345.636719 187.460938 L 345.636719 187.089844 C 345.636719 185.445312 346.980469 184.175781 348.625 184.175781 C 350.269531 184.175781 351.613281 185.519531 351.613281 187.089844 L 351.613281 187.386719 C 351.613281 187.386719 351.613281 187.460938 351.613281 187.460938 L 351.613281 187.835938 C 351.613281 189.480469 350.34375 190.453125 348.699219 190.453125 Z M 26.449219 183.054688 C 26.375 183.054688 26.375 183.054688 26.300781 183.054688 C 24.65625 182.980469 23.386719 181.636719 23.460938 179.992188 L 23.460938 179.617188 C 23.535156 177.972656 24.957031 176.777344 26.523438 176.851562 C 28.167969 176.925781 29.4375 178.273438 29.289062 179.917969 L 29.289062 180.289062 C 29.363281 181.859375 28.019531 183.054688 26.449219 183.054688 Z M 348.027344 175.359375 C 346.53125 175.359375 345.261719 174.238281 345.113281 172.667969 L 345.113281 172.296875 C 344.964844 170.652344 346.160156 169.230469 347.730469 169.082031 C 349.371094 168.933594 350.792969 170.128906 350.941406 171.699219 L 350.941406 172.070312 C 351.089844 173.714844 349.894531 175.132812 348.25 175.285156 C 348.175781 175.359375 348.101562 175.359375 348.027344 175.359375 Z M 27.867188 168.035156 C 27.71875 168.035156 27.570312 168.035156 27.496094 168.035156 C 25.851562 167.8125 24.730469 166.316406 24.957031 164.75 L 25.03125 164.375 C 25.253906 162.730469 26.75 161.609375 28.390625 161.910156 C 30.035156 162.132812 31.15625 163.628906 30.859375 165.273438 L 30.78125 165.644531 C 30.558594 166.992188 29.289062 168.035156 27.867188 168.035156 Z M 345.933594 160.414062 C 344.515625 160.414062 343.320312 159.445312 343.023438 158.023438 L 342.945312 157.652344 C 342.648438 156.082031 343.695312 154.511719 345.261719 154.214844 C 346.832031 153.914062 348.402344 154.960938 348.699219 156.53125 L 348.773438 156.902344 C 349.074219 158.472656 348.027344 160.042969 346.457031 160.339844 C 346.234375 160.414062 346.085938 160.414062 345.933594 160.414062 Z M 30.632812 153.167969 C 30.410156 153.167969 30.183594 153.167969 29.960938 153.09375 C 28.390625 152.71875 27.421875 151.152344 27.792969 149.582031 L 27.867188 149.207031 C 28.242188 147.640625 29.8125 146.667969 31.378906 147.042969 C 32.949219 147.414062 33.921875 148.984375 33.546875 150.554688 L 33.472656 150.925781 C 33.175781 152.269531 31.976562 153.167969 30.632812 153.167969 Z M 342.421875 145.695312 C 341.152344 145.695312 339.957031 144.875 339.585938 143.53125 L 339.511719 143.15625 C 339.0625 141.585938 339.957031 139.941406 341.527344 139.496094 C 343.097656 139.046875 344.738281 139.941406 345.1875 141.511719 L 345.261719 141.886719 C 345.710938 143.453125 344.816406 145.097656 343.246094 145.546875 C 342.945312 145.695312 342.648438 145.695312 342.421875 145.695312 Z M 34.816406 138.671875 C 34.519531 138.671875 34.21875 138.597656 33.847656 138.523438 C 32.277344 138 31.457031 136.355469 31.976562 134.789062 L 32.128906 134.488281 C 32.652344 132.917969 34.371094 132.097656 35.863281 132.621094 C 37.433594 133.144531 38.253906 134.789062 37.730469 136.355469 L 37.582031 136.730469 C 37.207031 137.925781 36.011719 138.671875 34.816406 138.671875 Z M 337.566406 131.425781 C 336.371094 131.425781 335.25 130.679688 334.800781 129.558594 L 334.652344 129.257812 C 334.054688 127.765625 334.800781 126.046875 336.296875 125.449219 C 337.792969 124.851562 339.511719 125.597656 340.109375 127.09375 L 340.257812 127.464844 C 340.855469 128.960938 340.109375 130.679688 338.613281 131.277344 C 338.238281 131.351562 337.941406 131.425781 337.566406 131.425781 Z M 40.347656 124.625 C 39.972656 124.625 39.523438 124.550781 39.152344 124.402344 C 37.65625 123.730469 36.984375 122.011719 37.65625 120.515625 L 37.804688 120.144531 C 38.480469 118.648438 40.195312 117.976562 41.691406 118.648438 C 43.1875 119.320312 43.859375 121.039062 43.1875 122.535156 L 43.035156 122.832031 C 42.511719 123.953125 41.46875 124.625 40.347656 124.625 Z M 331.367188 117.601562 C 330.320312 117.601562 329.273438 117.003906 328.75 115.960938 L 328.601562 115.660156 C 327.855469 114.242188 328.453125 112.449219 329.871094 111.699219 C 331.292969 110.953125 333.085938 111.550781 333.832031 112.96875 L 333.980469 113.269531 C 334.726562 114.6875 334.128906 116.480469 332.710938 117.230469 C 332.261719 117.527344 331.8125 117.601562 331.367188 117.601562 Z M 47.144531 111.101562 C 46.621094 111.101562 46.175781 110.953125 45.726562 110.730469 C 44.304688 109.90625 43.785156 108.113281 44.605469 106.695312 L 44.753906 106.394531 C 45.578125 104.976562 47.371094 104.527344 48.789062 105.273438 C 50.210938 106.097656 50.65625 107.890625 49.910156 109.308594 L 49.761719 109.609375 C 49.164062 110.578125 48.191406 111.101562 47.144531 111.101562 Z M 323.894531 104.453125 C 322.921875 104.453125 321.953125 103.929688 321.429688 103.109375 L 321.277344 102.808594 C 320.382812 101.464844 320.832031 99.597656 322.175781 98.773438 C 323.519531 97.878906 325.386719 98.328125 326.210938 99.671875 L 326.433594 99.96875 C 327.332031 101.316406 326.882812 103.183594 325.539062 104.003906 C 324.941406 104.378906 324.417969 104.453125 323.894531 104.453125 Z M 55.214844 98.328125 C 54.617188 98.328125 54.019531 98.175781 53.570312 97.804688 C 52.226562 96.90625 51.925781 95.039062 52.824219 93.695312 L 53.046875 93.394531 C 53.945312 92.050781 55.8125 91.75 57.15625 92.648438 C 58.503906 93.621094 58.800781 95.414062 57.90625 96.757812 L 57.679688 97.054688 C 57.082031 97.878906 56.113281 98.328125 55.214844 98.328125 Z M 315.226562 92.125 C 314.332031 92.125 313.433594 91.75 312.910156 91.003906 L 312.6875 90.707031 C 311.714844 89.433594 311.941406 87.566406 313.210938 86.597656 C 314.480469 85.625 316.347656 85.847656 317.320312 87.117188 L 317.542969 87.417969 C 318.515625 88.6875 318.289062 90.554688 317.019531 91.527344 C 316.496094 91.902344 315.898438 92.125 315.226562 92.125 Z M 64.40625 86.371094 C 63.734375 86.371094 63.058594 86.148438 62.539062 85.699219 C 61.265625 84.652344 61.117188 82.785156 62.164062 81.589844 L 62.386719 81.292969 C 63.433594 80.019531 65.300781 79.945312 66.570312 80.992188 C 67.84375 82.039062 67.917969 83.90625 66.871094 85.175781 L 66.648438 85.476562 C 66.125 86 65.226562 86.371094 64.40625 86.371094 Z M 305.4375 80.617188 C 304.617188 80.617188 303.871094 80.320312 303.273438 79.648438 L 303.046875 79.421875 C 301.925781 78.226562 302.003906 76.359375 303.199219 75.238281 C 304.394531 74.117188 306.261719 74.191406 307.382812 75.386719 L 307.679688 75.6875 C 308.800781 76.882812 308.726562 78.75 307.53125 79.871094 C 306.933594 80.320312 306.1875 80.617188 305.4375 80.617188 Z M 74.714844 75.3125 C 73.96875 75.3125 73.222656 75.015625 72.625 74.417969 C 71.503906 73.222656 71.503906 71.429688 72.699219 70.234375 L 72.996094 69.933594 C 74.191406 68.8125 76.0625 68.8125 77.183594 70.007812 C 78.300781 71.203125 78.300781 73.074219 77.105469 74.191406 L 76.882812 74.417969 C 76.210938 75.015625 75.464844 75.3125 74.714844 75.3125 Z M 294.679688 70.007812 C 294.007812 70.007812 293.261719 69.785156 292.738281 69.261719 L 292.511719 69.039062 C 291.316406 67.992188 291.167969 66.125 292.289062 64.855469 C 293.335938 63.65625 295.203125 63.507812 296.472656 64.628906 L 296.773438 64.855469 C 297.96875 65.972656 298.117188 67.765625 296.996094 69.039062 C 296.25 69.710938 295.503906 70.007812 294.679688 70.007812 Z M 86 65.226562 C 85.175781 65.226562 84.28125 64.855469 83.683594 64.105469 C 82.636719 62.835938 82.859375 60.96875 84.128906 59.996094 L 84.429688 59.773438 C 85.699219 58.726562 87.566406 58.949219 88.539062 60.222656 C 89.585938 61.492188 89.359375 63.359375 88.089844 64.332031 L 87.792969 64.554688 C 87.269531 65.003906 86.671875 65.226562 86 65.226562 Z M 282.949219 60.519531 C 282.351562 60.519531 281.753906 60.371094 281.230469 59.921875 L 280.933594 59.699219 C 279.585938 58.726562 279.363281 56.933594 280.261719 55.589844 C 281.230469 54.242188 283.097656 54.019531 284.371094 54.917969 L 284.667969 55.140625 C 286.011719 56.113281 286.238281 57.980469 285.265625 59.25 C 284.742188 60.070312 283.847656 60.519531 282.949219 60.519531 Z M 98.175781 56.261719 C 97.207031 56.261719 96.308594 55.8125 95.710938 54.917969 C 94.816406 53.570312 95.1875 51.703125 96.53125 50.808594 L 96.832031 50.582031 C 98.175781 49.6875 100.042969 50.058594 100.941406 51.40625 C 101.839844 52.75 101.464844 54.617188 100.121094 55.515625 L 99.820312 55.738281 C 99.296875 56.113281 98.699219 56.261719 98.175781 56.261719 Z M 270.324219 52.152344 C 269.800781 52.152344 269.277344 52.003906 268.828125 51.703125 L 268.53125 51.480469 C 267.109375 50.65625 266.660156 48.863281 267.484375 47.445312 C 268.304688 46.023438 270.097656 45.578125 271.519531 46.398438 L 271.816406 46.621094 C 273.238281 47.445312 273.683594 49.238281 272.863281 50.65625 C 272.339844 51.628906 271.367188 52.152344 270.324219 52.152344 Z M 111.101562 48.492188 C 110.058594 48.492188 109.011719 47.894531 108.488281 46.921875 C 107.742188 45.503906 108.261719 43.707031 109.683594 42.960938 L 109.980469 42.8125 C 111.402344 42.066406 113.195312 42.589844 113.941406 44.007812 C 114.6875 45.425781 114.167969 47.21875 112.746094 47.96875 L 112.449219 48.117188 C 112.074219 48.339844 111.550781 48.492188 111.101562 48.492188 Z M 257.023438 44.980469 C 256.574219 44.980469 256.203125 44.90625 255.753906 44.679688 L 255.453125 44.53125 C 253.960938 43.859375 253.363281 42.066406 254.035156 40.570312 C 254.707031 39.078125 256.5 38.480469 257.996094 39.152344 L 258.292969 39.300781 C 259.789062 39.972656 260.386719 41.765625 259.714844 43.261719 C 259.191406 44.382812 258.144531 44.980469 257.023438 44.980469 Z M 124.699219 41.914062 C 123.582031 41.914062 122.460938 41.242188 122.011719 40.121094 C 121.414062 38.628906 122.085938 36.910156 123.582031 36.238281 L 123.953125 36.085938 C 125.449219 35.488281 127.167969 36.164062 127.839844 37.65625 C 128.4375 39.152344 127.765625 40.871094 126.269531 41.542969 L 125.972656 41.691406 C 125.449219 41.839844 125.074219 41.914062 124.699219 41.914062 Z M 243.125 39.078125 C 242.828125 39.078125 242.453125 39 242.15625 38.925781 L 241.78125 38.777344 C 240.285156 38.253906 239.464844 36.535156 240.0625 34.96875 C 240.585938 33.472656 242.304688 32.652344 243.875 33.25 L 244.246094 33.398438 C 245.742188 33.921875 246.5625 35.640625 246.039062 37.207031 C 245.441406 38.328125 244.320312 39.078125 243.125 39.078125 Z M 138.898438 36.6875 C 137.628906 36.6875 136.507812 35.863281 136.058594 34.59375 C 135.535156 33.023438 136.429688 31.378906 138 30.933594 L 138.375 30.859375 C 139.941406 30.335938 141.585938 31.230469 142.035156 32.800781 C 142.558594 34.371094 141.660156 36.011719 140.09375 36.460938 L 139.71875 36.535156 C 139.496094 36.6875 139.195312 36.6875 138.898438 36.6875 Z M 228.707031 34.59375 C 228.480469 34.59375 228.183594 34.59375 227.957031 34.519531 L 227.585938 34.445312 C 226.015625 34.070312 225.042969 32.425781 225.492188 30.859375 C 225.867188 29.289062 227.511719 28.316406 229.078125 28.765625 L 229.453125 28.839844 C 231.023438 29.289062 231.992188 30.859375 231.546875 32.425781 C 231.171875 33.695312 229.976562 34.59375 228.707031 34.59375 Z M 153.46875 32.875 C 152.121094 32.875 150.925781 31.902344 150.628906 30.558594 C 150.253906 28.988281 151.300781 27.421875 152.867188 27.046875 L 153.167969 26.972656 C 154.738281 26.597656 156.378906 27.644531 156.679688 29.214844 C 157.054688 30.78125 156.007812 32.351562 154.4375 32.726562 L 154.066406 32.800781 C 153.914062 32.800781 153.691406 32.875 153.46875 32.875 Z M 213.914062 31.378906 C 213.761719 31.378906 213.613281 31.378906 213.464844 31.304688 L 213.089844 31.230469 C 211.519531 31.007812 210.402344 29.4375 210.625 27.867188 C 210.921875 26.300781 212.417969 25.179688 213.988281 25.402344 L 214.359375 25.476562 C 215.929688 25.777344 217.050781 27.269531 216.75 28.839844 C 216.601562 30.410156 215.332031 31.378906 213.914062 31.378906 Z M 168.410156 30.410156 C 166.914062 30.410156 165.644531 29.289062 165.496094 27.792969 C 165.273438 26.152344 166.46875 24.730469 168.109375 24.507812 L 168.484375 24.433594 C 170.128906 24.207031 171.546875 25.402344 171.773438 27.046875 C 171.996094 28.691406 170.800781 30.109375 169.15625 30.335938 L 168.785156 30.410156 C 168.632812 30.335938 168.484375 30.410156 168.410156 30.410156 Z M 198.894531 29.664062 C 198.820312 29.664062 198.746094 29.664062 198.671875 29.664062 L 198.296875 29.664062 C 196.652344 29.585938 195.457031 28.167969 195.53125 26.523438 C 195.605469 24.878906 197.027344 23.683594 198.671875 23.757812 L 199.042969 23.757812 C 200.6875 23.835938 201.882812 25.253906 201.808594 26.898438 C 201.734375 28.46875 200.464844 29.664062 198.894531 29.664062 Z M 183.429688 29.363281 C 181.859375 29.363281 180.515625 28.09375 180.515625 26.449219 C 180.4375 24.804688 181.785156 23.460938 183.351562 23.386719 L 183.726562 23.386719 C 185.296875 23.3125 186.714844 24.65625 186.714844 26.226562 C 186.789062 27.867188 185.445312 29.214844 183.875 29.289062 L 183.429688 29.363281 C 183.503906 29.363281 183.503906 29.363281 183.429688 29.363281 Z M 183.429688 29.363281 " fill-opacity="1" fill-rule="nonzero"/><g clip-path="url(#817b502094)"><path fill="#000000" d="M 211.058594 188.300781 C 212.296875 184.144531 234.53125 166.757812 238.699219 166.769531 C 238.121094 167.285156 234.105469 169.554688 232.882812 170.316406 C 230.078125 172.074219 226.523438 174.601562 223.957031 176.691406 C 221.703125 178.527344 219.453125 180.390625 217.25 182.320312 L 211.039062 188.300781 Z M 146.949219 179.894531 C 139.667969 173.667969 134.101562 170.367188 125.054688 166.839844 C 125.769531 166.195312 133.121094 169.464844 133.65625 169.714844 C 138.378906 171.925781 144.03125 175.472656 147.523438 179.320312 C 148.667969 180.578125 152.515625 184.394531 152.664062 185.921875 C 150.828125 183.867188 149.0625 181.675781 146.960938 179.882812 Z M 127.695312 81.820312 C 128.191406 82.632812 128.359375 83.523438 128.128906 84.507812 C 127.367188 84.011719 127.8125 83.949219 127.613281 82.324219 L 127.644531 81.910156 C 127.644531 81.859375 127.683594 81.851562 127.703125 81.820312 Z M 243.894531 86.4375 C 242.894531 86.171875 241.265625 83.179688 244.195312 81.234375 C 246.078125 79.984375 249.066406 80.453125 251.15625 80.96875 C 252.746094 81.363281 262.476562 84.316406 263.320312 84.992188 C 262.972656 85.179688 262.011719 84.792969 261.226562 84.554688 C 260.988281 84.488281 260.878906 84.4375 260.554688 84.335938 C 256.328125 83.097656 253.132812 82.363281 248.65625 81.96875 C 247.40625 81.859375 246.695312 81.652344 245.433594 82.019531 C 244.667969 82.246094 243.679688 82.652344 243.378906 83.523438 C 242.84375 85.109375 243.886719 85.398438 243.90625 86.417969 Z M 105.085938 86.886719 C 105.292969 86.359375 104.976562 86.796875 105.539062 86.449219 C 106.492188 85.863281 108.773438 85.238281 109.824219 84.933594 C 111.601562 84.417969 121.898438 81.285156 122.910156 81.234375 C 124.003906 81.175781 125.023438 80.976562 125.589844 81.828125 C 124.570312 81.828125 123.367188 81.699219 122.445312 81.957031 C 119.925781 82.644531 105.988281 86.875 105.085938 86.886719 Z M 128.40625 115.996094 C 128.289062 114.660156 128.597656 113.300781 128.695312 111.972656 C 129.410156 102.972656 132.632812 93.894531 138.578125 86.953125 C 141.34375 83.722656 145.847656 78.203125 150.640625 79.074219 C 156.859375 80.203125 158.019531 88.988281 159.460938 90.15625 C 159.925781 89.144531 159.746094 87.0625 159.636719 85.972656 C 159.261719 82.445312 157.980469 79.441406 155.34375 76.902344 C 153.855469 75.476562 151.574219 74.296875 149.597656 73.730469 C 148.109375 73.316406 146.265625 73.246094 145.996094 72.890625 C 145.441406 72.164062 145.414062 70.332031 144.777344 69.738281 C 144.074219 69.824219 142.40625 71.640625 141.820312 72.234375 C 137.445312 76.664062 135.261719 76.496094 130.042969 76.507812 C 123.476562 76.515625 116.960938 77.308594 110.53125 78.539062 C 105.191406 79.558594 99.003906 81.335938 94.0625 83.613281 C 91.699219 84.703125 89.191406 85.816406 87.085938 87.339844 C 85.90625 88.195312 81.800781 91.1875 81.441406 92.398438 C 82.039062 92.347656 82.601562 91.742188 83.179688 91.453125 C 86.105469 89.976562 88.855469 88.539062 92.058594 87.707031 L 96.15625 86.757812 C 95.988281 87.589844 94.339844 88.242188 93.605469 88.660156 C 90.9375 90.15625 88.25 92.050781 85.558594 93.535156 C 79.371094 96.964844 70.976562 103.527344 65.957031 108.542969 C 64.152344 110.347656 58.972656 116.285156 58.863281 118.675781 C 59.914062 118.296875 62.363281 115.511719 63.464844 114.667969 C 65.09375 113.421875 66.492188 111.84375 68.425781 111.023438 C 70.628906 110.070312 73.011719 110.675781 74.320312 112.738281 C 75.488281 114.582031 74.21875 117.871094 73.84375 119.855469 C 73.417969 122.09375 72.652344 124.503906 72.117188 126.742188 L 67.175781 147.042969 C 67.710938 146.886719 67.34375 147.164062 67.652344 146.480469 L 68.636719 144.785156 C 71.621094 139.519531 74.914062 134.433594 78.109375 129.300781 C 81.453125 123.917969 86.503906 118.160156 90.816406 113.488281 C 95.035156 108.929688 100.730469 103.359375 105.757812 99.761719 C 110.242188 96.550781 118.089844 90.136719 123.199219 88.679688 C 122.246094 89.867188 118.804688 91.554688 117.328125 92.605469 C 111.722656 96.589844 105.777344 100.523438 100.847656 105.390625 C 97.355469 108.832031 94.558594 111.796875 91.375 115.53125 C 88.488281 118.921875 85.640625 123.046875 83.097656 126.722656 C 77.800781 134.386719 72.949219 144.011719 70.222656 152.910156 C 67.949219 160.347656 65.925781 170.851562 67.148438 178.683594 C 67.265625 179.425781 68.40625 186.753906 68.84375 186.722656 C 69.65625 183.261719 68.238281 174.519531 69.597656 168.921875 C 70.6875 164.429688 72.277344 159.871094 75.191406 156.09375 C 77.980469 152.476562 82.96875 147.875 85.101562 154.964844 C 86.3125 158.96875 86.144531 163.070312 86.710938 167.175781 C 86.847656 168.175781 86.570312 170.527344 87.085938 171.398438 C 87.175781 171.238281 87.117188 171.410156 87.214844 171.082031 C 87.214844 171.070312 87.304688 170.734375 87.304688 170.722656 C 87.375 170.398438 87.367188 170.25 87.414062 169.941406 C 87.753906 167.421875 88.617188 162.746094 89.359375 160.296875 L 90.898438 155.152344 C 91.402344 153.488281 92.039062 151.851562 92.632812 150.207031 C 93.644531 147.378906 95.261719 143.496094 96.652344 140.859375 C 97.007812 140.175781 100.898438 131.878906 101.175781 132.136719 L 98.566406 139.957031 C 95.898438 148.171875 93.8125 156.699219 92.839844 165.273438 C 92.464844 168.582031 92.175781 171.488281 91.988281 174.816406 C 91.671875 180.429688 91.699219 189.042969 92.703125 194.445312 C 92.820312 195.097656 93.992188 203.246094 94.339844 203.128906 C 94.746094 202.820312 94.507812 197.863281 94.507812 197.089844 C 94.507812 191.363281 94.160156 185.898438 95.558594 180.320312 C 96.117188 178.117188 97.582031 173.628906 99.140625 172.023438 C 101.710938 169.375 104.953125 170.683594 107.542969 172.480469 C 110.472656 174.492188 111.464844 175.441406 113.683594 178.21875 C 115.410156 180.371094 117.199219 182.808594 118.636719 185.148438 C 121.679688 190.09375 123.40625 194.730469 124.140625 200.433594 C 124.269531 201.414062 124.09375 202.296875 124.371094 203.175781 C 124.667969 202.949219 126.054688 199.660156 126.402344 198.976562 C 129.371094 193.039062 131.691406 192.285156 137.84375 195.21875 C 147.664062 199.886719 148.726562 204.824219 151.117188 206.597656 C 151.898438 204.941406 149.441406 197.476562 148.617188 195.734375 L 144.429688 186.40625 C 145.074219 186.863281 147.652344 191.582031 148.121094 192.523438 C 150.441406 197.171875 152.128906 201.71875 153.566406 206.675781 C 154.320312 209.265625 154.648438 212.148438 155.273438 214.765625 C 156.453125 214.238281 157.585938 213.851562 158.714844 213.308594 C 167.683594 208.945312 170.285156 201.078125 170.285156 191.3125 C 170.671875 191.589844 171.613281 195.167969 171.621094 195.761719 C 173.28125 195.734375 175.738281 192.511719 176.296875 191.074219 C 176.921875 189.480469 176.820312 188.875 176.820312 187 C 176.820312 184.660156 176.375 183.996094 176.375 182.847656 C 176.910156 182.984375 176.773438 183.15625 177.117188 183.730469 C 178.816406 186.523438 178.925781 189.191406 177.160156 192.09375 C 176.515625 193.15625 175.195312 194.773438 174.242188 195.566406 C 168.398438 200.453125 170.601562 202.40625 167.773438 207.964844 C 166.363281 210.742188 164.203125 212.84375 161.40625 214.230469 C 157.851562 215.996094 156.265625 215.398438 153.476562 218.929688 C 151.691406 221.1875 150.453125 224.589844 149.121094 227.195312 C 144.628906 236.007812 140.53125 232.777344 142.050781 238.070312 C 142.296875 238.933594 142.902344 242.320312 144.003906 242.132812 C 144.09375 241.90625 144.011719 238.882812 144.171875 238.148438 C 144.3125 237.503906 144.789062 235.125 145.679688 235.375 C 145.621094 236.15625 145.371094 237.1875 145.292969 238.078125 C 145.09375 240.339844 144.855469 244.800781 145.867188 246.722656 C 146.871094 248.636719 150.492188 252.867188 152.941406 252.09375 C 152.941406 251.539062 150.023438 248.21875 149.699219 246.910156 C 149.550781 246.304688 149.5 244.890625 149.757812 244.324219 C 150.472656 244.828125 149.886719 246.265625 151.710938 247.121094 C 153.359375 247.894531 156.59375 249.488281 158.28125 249.765625 C 159.203125 249.914062 161.523438 249.796875 161.792969 248.773438 L 161.285156 248.546875 C 161.058594 248.46875 160.96875 248.46875 160.710938 248.378906 C 157.960938 247.445312 155.542969 244.632812 156.253906 242.796875 C 156.769531 242.640625 158.21875 243.414062 158.753906 243.640625 C 159.578125 243.976562 160.351562 244.511719 161.117188 244.847656 C 162.246094 245.355469 166.125 246.167969 166.542969 244.464844 L 165.691406 243.988281 C 165.394531 243.828125 165.132812 243.679688 164.816406 243.519531 C 164.242188 243.234375 163.695312 242.964844 163.128906 242.679688 C 162.128906 242.171875 160.691406 241.636719 159.898438 240.863281 C 160.003906 239.984375 160.332031 239.84375 160.035156 238.792969 C 159.46875 236.769531 158.289062 236.027344 157.1875 234.363281 C 157.515625 233.699219 160.453125 229.949219 160.9375 229.644531 L 161.007812 230.257812 C 161.007812 230.617188 160.9375 230.328125 161.058594 230.785156 C 161.167969 231.179688 161.382812 231.527344 161.59375 231.882812 C 161.96875 232.519531 162.40625 233.164062 162.851562 233.746094 C 163.707031 234.878906 164.679688 236.136719 165.691406 237.148438 C 170.441406 241.886719 174.113281 244.9375 180.375 247.722656 C 181.859375 248.386719 183.28125 248.941406 184.828125 249.507812 L 189.511719 250.636719 C 189.539062 250.628906 189.597656 250.636719 189.621094 250.597656 C 189.640625 250.558594 189.6875 250.570312 189.726562 250.550781 C 189.480469 250.191406 183.863281 246.40625 183.011719 245.820312 C 180.789062 244.304688 178.714844 242.460938 176.582031 240.804688 C 174.917969 239.515625 172.117188 236.710938 170.9375 235.007812 C 167.4375 229.949219 168.875 228.710938 165.800781 228.710938 C 166.019531 227.800781 168.03125 226.679688 168.734375 226.074219 C 167.417969 225.125 162.683594 228.425781 161.640625 228.710938 C 162.136719 227.949219 163.171875 227.015625 163.429688 226.332031 C 162.207031 226.332031 161.007812 226.757812 159.855469 226.480469 C 160.660156 225.253906 164.867188 224.550781 166.394531 224.558594 C 167.664062 224.570312 168.953125 224.25 170.253906 224.261719 C 171.40625 224.261719 173.023438 223.667969 173.714844 223.777344 C 173.992188 224.539062 173.585938 225.222656 173.160156 225.835938 C 172.722656 226.472656 172.167969 226.582031 171.730469 227.234375 C 177.675781 226.738281 186.324219 218.246094 190.613281 217.878906 C 190.503906 219.105469 187.960938 223.003906 187.933594 224.410156 C 191.027344 222.875 194.144531 218.738281 195.542969 215.675781 C 197.488281 211.425781 197.921875 207.082031 198.371094 202.316406 C 199.035156 203.089844 199.253906 204.574219 199.550781 205.675781 C 199.886719 206.90625 199.828125 208.234375 200.613281 209.222656 C 201.175781 208.234375 200.859375 202.1875 200.71875 201.394531 C 200.601562 200.738281 200.589844 200.195312 200.492188 199.539062 C 200.394531 198.90625 200.226562 198.429688 200.136719 197.816406 C 199.816406 195.695312 198.984375 193.445312 198.140625 191.492188 C 197.097656 189.0625 195.871094 186.882812 194.640625 184.59375 C 194.382812 184.117188 194.261719 183.75 194.023438 183.273438 C 195.570312 183.691406 197.792969 187.328125 198.539062 188.714844 C 200.878906 193.085938 202.683594 200.003906 202.011719 205.0625 C 201.910156 205.835938 201.167969 212.574219 200.007812 212.78125 C 199.429688 211.988281 199.71875 209.847656 198.796875 209.09375 C 198.480469 209.589844 198.527344 210.382812 198.390625 210.9375 C 196.902344 216.828125 194.203125 221.804688 188.855469 225.023438 C 187.347656 225.9375 184.339844 227.1875 182.585938 227.226562 C 183.269531 225.855469 185.9375 224.609375 187.039062 222.765625 C 187.226562 222.449219 187.4375 222.140625 187.585938 221.8125 C 187.585938 221.8125 187.785156 221.308594 187.785156 221.296875 C 187.882812 220.882812 187.953125 220.78125 187.296875 221.078125 L 185.71875 221.902344 C 182.128906 223.578125 178.605469 225.511719 175.054688 227.285156 C 174.300781 227.660156 173.65625 228 172.902344 228.394531 C 170.800781 229.496094 170.671875 228.96875 171.296875 230.644531 C 171.433594 231.011719 171.582031 231.339844 171.742188 231.6875 C 172.070312 232.398438 172.417969 233.003906 172.84375 233.707031 L 174.808594 236.503906 C 175.96875 237.851562 177.386719 239.089844 178.855469 240.179688 L 181.78125 241.855469 C 182.25 242.074219 182.386719 242.253906 182.773438 242.125 C 182.921875 241.726562 182.585938 239.476562 182.585938 238.8125 C 183.191406 239.121094 182.960938 239.039062 183.359375 239.675781 L 187.804688 245.929688 C 187.824219 245.949219 187.851562 245.980469 187.875 246.007812 C 187.894531 246.027344 187.921875 246.058594 187.953125 246.078125 C 189.46875 247.527344 194.429688 250.777344 194.925781 251.738281 C 193.628906 253.652344 188.886719 255.386719 186.652344 255.953125 C 185.035156 256.359375 183.519531 256.398438 181.414062 256.960938 C 179.90625 257.359375 177.695312 257.121094 176.59375 258.378906 C 175.441406 259.699219 176.304688 261.105469 174.003906 262.027344 C 172.527344 262.621094 171.515625 263.683594 170.898438 265.160156 C 170.351562 266.488281 169.5 268.628906 169.488281 269.996094 C 169.488281 270.988281 170.066406 274.179688 171.433594 274.308594 C 171.433594 272.4375 171.296875 270.136719 172.238281 268.578125 C 173.03125 267.269531 175.125 266.476562 176.644531 266.4375 C 176.632812 267.015625 175.679688 268.808594 175.433594 269.53125 C 174.003906 273.714844 176.554688 278.859375 177.832031 279.207031 C 177.832031 277.222656 177.148438 275.351562 177.851562 273.425781 C 178.171875 272.542969 179.847656 270.214844 180.660156 269.996094 C 180.660156 272.375 180.71875 275.242188 181.632812 277.34375 C 182.386719 279.058594 184.660156 281.011719 186.355469 280.59375 C 186.464844 280.136719 185.949219 279.820312 185.582031 279.335938 C 185.253906 278.898438 185.007812 278.511719 184.726562 278.105469 C 184.171875 277.28125 183.527344 275.925781 183.675781 274.964844 C 183.886719 273.617188 184.816406 272.824219 185.054688 272.019531 C 185.195312 271.535156 185.117188 270.9375 185.3125 270.195312 C 185.460938 269.660156 185.523438 269.054688 185.859375 268.660156 C 186.515625 269.394531 186.859375 270.613281 187.238281 271.582031 C 187.675781 272.703125 187.832031 273.476562 188.476562 274.644531 C 189.511719 276.519531 192.140625 278.074219 193.726562 277.53125 C 193.261719 276.925781 192.863281 276.835938 192.425781 276.339844 C 191.761719 275.566406 191.058594 273.953125 190.75 272.960938 C 190.480469 272.117188 190.433594 272.109375 190.847656 271.285156 C 191.515625 269.988281 191.523438 268.570312 190.75 267.332031 C 189.460938 265.277344 189.023438 265.992188 188.953125 264.199219 C 189.363281 263.863281 189.230469 263.871094 189.71875 263.605469 C 190.621094 264.128906 190.351562 264.792969 190.898438 265.398438 C 190.988281 265.25 190.910156 265.457031 191.039062 265.089844 C 191.742188 263.128906 191.167969 262.394531 194.015625 262.277344 C 197.644531 262.117188 201.355469 260.828125 205.007812 260.789062 C 208.480469 260.75 210.414062 260.609375 209.640625 256.316406 C 209.125 253.472656 209.757812 250.6875 210.273438 247.941406 C 211.1875 243.054688 210.699219 241.71875 208.429688 238.226562 C 210.074219 238.367188 214.460938 241.230469 215.980469 242.261719 C 218.140625 243.738281 220.34375 245.632812 222.210938 247.464844 C 233.738281 258.777344 237.269531 274.933594 229.796875 289.425781 C 229.09375 290.792969 226.128906 295.324219 224.917969 295.988281 C 225.214844 294.976562 228.5 291.339844 231.117188 282.289062 C 232.597656 277.175781 232.398438 269.867188 230.929688 264.734375 C 229.621094 260.164062 226.941406 255.425781 224.171875 251.589844 C 222.179688 248.835938 216.753906 242.835938 213.171875 242.828125 C 212.675781 244.910156 211.5625 247.226562 211.871094 249.46875 L 213.023438 256.1875 C 213.460938 256.03125 213.410156 256.148438 213.65625 255.039062 L 214.511719 250.847656 C 215.859375 251.519531 217.316406 253.414062 217.617188 254.871094 C 218.332031 258.320312 217.339844 259.074219 217.328125 261.097656 C 218.519531 260.769531 221.109375 256.199219 222.230469 255.457031 C 223.984375 258.875 223.667969 262.234375 222.148438 265.617188 C 220.988281 268.191406 216.625 272.515625 216.585938 272.671875 C 217.476562 272.671875 219.648438 271.761719 220.503906 271.386719 C 221.347656 271.019531 223.378906 270.265625 224.015625 269.847656 C 224.015625 272.265625 220.808594 276.480469 218.933594 277.6875 C 217.664062 278.511719 215.980469 279.214844 214.628906 279.769531 C 213.726562 280.148438 210.691406 281.058594 210.175781 281.703125 C 210.652344 282.167969 212.515625 282.449219 213.160156 282.46875 C 214.273438 282.496094 215.285156 282.554688 216.414062 282.449219 C 217.46875 282.339844 221.882812 281.347656 222.488281 281.753906 C 222.347656 282.019531 219.511719 284.964844 219.074219 285.402344 C 217.921875 286.550781 216.734375 287.890625 215.273438 288.582031 C 212.683594 289.820312 208.984375 290.238281 206.117188 289.800781 L 202.914062 289.59375 C 203.0625 291.238281 206.066406 292.03125 207.457031 292.328125 C 208.242188 292.5 208.765625 292.359375 209.601562 292.558594 C 209.3125 293.113281 209.351562 292.972656 208.738281 293.332031 C 206.238281 294.796875 203.507812 295.472656 200.660156 295.949219 L 189.707031 297.277344 C 190.613281 297.601562 196.820312 298.457031 197.140625 299.386719 C 197.140625 299.398438 197.128906 299.488281 197.140625 299.46875 C 197.140625 299.445312 197.140625 299.527344 197.128906 299.546875 C 196.882812 300.042969 197.058594 299.753906 196.296875 299.902344 L 193.398438 300.28125 C 192.65625 300.320312 192.1875 300.429688 191.316406 300.429688 C 189.164062 300.417969 186.941406 300.527344 184.796875 300.410156 C 184.183594 300.378906 181.683594 300.0625 181.097656 300.457031 C 182.121094 301.339844 185.460938 301.546875 185.332031 302.917969 C 183.757812 304.046875 173.546875 302.660156 170.957031 302.660156 C 171.257812 303.757812 174.054688 304.007812 174.082031 305.484375 C 173.359375 305.820312 172.058594 305.277344 171.117188 305.175781 C 168.121094 304.859375 165.242188 303.847656 162.1875 303.847656 C 162.328125 304.363281 162.804688 304.710938 163.210938 305.046875 L 163.796875 305.523438 C 164.203125 305.929688 164.121094 305.742188 164.015625 306.109375 C 163.199219 306.265625 160.433594 305.226562 159.53125 304.871094 C 156.941406 303.828125 154.3125 302.488281 152.039062 300.773438 C 150.671875 299.746094 149.796875 299.328125 148.367188 298.652344 C 148.65625 299.832031 150.867188 302.125 150.492188 303.15625 C 149.042969 303.679688 142.972656 299.347656 141.226562 298.953125 L 140.886719 299.496094 C 140.75 299.664062 140.671875 299.714844 140.5 299.851562 C 139.46875 299.726562 138.675781 298.554688 137.992188 297.871094 C 136.78125 296.660156 131.890625 292.210938 130.96875 291.972656 C 130.96875 293.636719 131.382812 294.5 129.757812 293.183594 C 129.441406 292.925781 129.0625 292.65625 128.773438 292.378906 L 123.039062 287.246094 C 122.683594 288.027344 122.84375 288.007812 121.859375 286.820312 C 118.921875 283.300781 116.355469 279.144531 114.925781 274.746094 C 113.199219 269.460938 112.691406 265.953125 112.691406 260.492188 C 112.691406 258.796875 112.992188 257.21875 112.992188 255.515625 C 111.007812 258.359375 111.34375 268.191406 111.929688 271.652344 C 112.753906 276.53125 114.203125 280.613281 116.652344 284.90625 C 120.90625 292.359375 127.722656 298.1875 134.847656 302.816406 C 142.714844 307.933594 151.78125 311.113281 160.976562 312.789062 C 170.808594 314.582031 182.078125 315 192.078125 313.214844 C 192.765625 313.097656 193.398438 312.917969 193.855469 313.375 C 193.21875 313.871094 189.023438 315.257812 187.953125 315.644531 C 186.921875 316.019531 185.917969 316.378906 184.886719 316.746094 C 184.042969 317.042969 182.683594 317.257812 182.25 318.113281 C 184.46875 318.765625 189.253906 318.378906 191.542969 317.894531 C 193.765625 317.429688 196.820312 316.179688 198.785156 315.039062 C 201.367188 313.53125 209.578125 307.59375 212.160156 308.40625 C 213.003906 309.398438 211.574219 310.777344 210.808594 311.460938 C 209.015625 313.085938 206.84375 314.464844 204.601562 315.347656 C 203.996094 315.585938 201.195312 316.457031 200.980469 316.785156 C 201.761719 317.675781 207.832031 316.765625 209.214844 316.398438 C 211.324219 315.832031 214.363281 315.007812 216.265625 313.9375 C 223.09375 310.101562 226.652344 306.960938 231.496094 300.796875 C 231.84375 300.359375 233.449219 298.703125 233.867188 298.417969 C 234.730469 297.832031 236.851562 297.089844 237.070312 298.664062 C 237.855469 304.460938 230.273438 308.914062 229.796875 310.242188 C 233.140625 310.339844 239.402344 304.996094 241.457031 302.441406 C 246.523438 296.117188 248.171875 289.773438 250.125 282.148438 C 250.472656 280.78125 252.171875 275.597656 254.390625 277.214844 C 255.871094 278.292969 255.949219 283.519531 255.535156 285.171875 C 255.1875 286.582031 254.75 287.433594 254.195312 288.730469 C 253.765625 289.714844 252.902344 291.140625 252.835938 292.132812 C 254.175781 291.765625 257.210938 287.472656 257.875 286.183594 C 258.578125 284.804688 258.894531 283.605469 259.253906 282.070312 C 259.628906 280.453125 259.414062 278.5625 259.371094 276.984375 C 259.324219 275.429688 258.894531 274.042969 258.230469 272.632812 C 255.632812 267.09375 251.703125 265.050781 252.984375 262.136719 C 254.492188 261.78125 255.039062 262.40625 256.226562 263.207031 C 258.550781 264.773438 260.015625 267.152344 261.347656 269.53125 C 261.644531 270.066406 261.722656 270.722656 262.199219 270.898438 C 262.199219 268.976562 261.457031 265.695312 260.800781 263.980469 C 259.480469 260.5625 256.824219 256.507812 254.214844 253.929688 C 253.519531 253.234375 252.835938 252.460938 252.300781 251.679688 C 251.714844 250.816406 250.820312 250.0625 251.347656 248.914062 C 252.46875 248.386719 254.550781 249.371094 255.523438 249.945312 C 259.511719 252.324219 261.117188 258.183594 262.496094 259.164062 C 263.101562 256.636719 262.050781 252.996094 260.890625 250.828125 C 259.621094 248.449219 258.183594 247.019531 256.289062 245.175781 C 254.414062 243.351562 244.074219 238.316406 244.660156 236.304688 C 245.253906 234.253906 251.980469 235.472656 253.46875 235.96875 C 257.804688 237.414062 258.648438 238.910156 259.988281 239.535156 C 260.363281 239.714844 260.382812 239.566406 260.125 239.128906 L 259.105469 237.753906 C 258.53125 237.097656 258.203125 236.722656 257.558594 236.175781 C 253.617188 232.804688 249.886719 231.476562 244.929688 230.078125 C 243.3125 229.625 241.296875 229.425781 239.847656 228.921875 C 238.636719 228.492188 236.523438 226.730469 237.695312 225.5 C 238.796875 224.351562 244.253906 224.429688 246.128906 224.578125 C 246.773438 224.628906 248.3125 225.015625 248.777344 224.679688 C 247.476562 223.429688 235.144531 221.535156 230.960938 219.839844 C 225.207031 217.511719 226.703125 214.804688 228.796875 214.21875 C 230.195312 213.832031 232.457031 214.070312 233.894531 214.378906 C 234.828125 214.578125 237.824219 215.398438 238.558594 215.0625 C 237.101562 213.058594 224.234375 209.441406 221.207031 211.097656 C 218.707031 212.464844 218.210938 216.3125 217.792969 218.820312 C 217.179688 222.476562 217.726562 223.816406 217.902344 226.789062 C 217.964844 227.730469 218.339844 228.136719 218.140625 229.109375 C 217.339844 228.414062 216.714844 224.828125 216.523438 223.566406 C 216.15625 221.179688 216.265625 219.117188 216.265625 216.699219 C 216.265625 207.964844 220.027344 196.476562 224.34375 188.835938 C 224.539062 188.488281 227.128906 184.492188 227.238281 184.5625 C 227.425781 184.800781 226.355469 186.820312 226.199219 187.269531 C 225.878906 188.121094 225.601562 189.023438 225.253906 189.894531 L 223.371094 195.140625 C 222.714844 196.832031 220.105469 204.59375 219.988281 206.011719 C 220.851562 205.921875 222.527344 203.84375 223.222656 203.15625 C 225.832031 200.550781 230.078125 196.714844 233.28125 194.941406 C 236.039062 193.402344 240.027344 192.699219 242.546875 195.058594 C 244.898438 197.261719 246.464844 202.175781 247.042969 202.601562 C 247.753906 199.382812 248.3125 196.121094 249.480469 193.015625 C 250.574219 190.132812 251.902344 187.535156 253.300781 184.808594 C 255.335938 180.875 260.640625 174.066406 264.570312 172.011719 C 267.863281 170.296875 270.316406 169.800781 273.410156 172.242188 C 277.578125 175.523438 278.769531 185.78125 278.984375 190.71875 C 279.195312 195.316406 278.441406 199.191406 278.539062 202.15625 C 278.558594 202.128906 278.570312 202.078125 278.578125 202.046875 C 278.589844 202.019531 278.609375 201.96875 278.617188 201.9375 L 278.726562 201.601562 C 278.816406 201.332031 278.796875 201.421875 278.898438 201.175781 C 279.253906 200.351562 279.480469 198.757812 279.582031 197.855469 C 279.738281 196.398438 280.085938 194.839844 280.277344 193.355469 C 281.476562 183.867188 281.457031 173.550781 279.789062 164.082031 C 278.769531 158.273438 277.605469 152.625 275.980469 146.953125 C 274.847656 142.988281 273.511719 139.085938 272.152344 135.199219 C 271.902344 134.484375 270.730469 132.15625 271.011719 131.589844 C 271.375 131.988281 273.101562 135.1875 273.511719 135.921875 C 275.949219 140.433594 278.253906 144.941406 280.257812 149.671875 C 282.585938 155.171875 283.777344 159.878906 285 165.578125 C 285.226562 166.671875 285.59375 171.140625 285.832031 171.578125 C 286.695312 166.441406 286.644531 160.734375 287.867188 155.785156 C 288.359375 153.753906 289.503906 150.789062 292.171875 151.285156 C 294.3125 151.683594 295.902344 153.574219 297.320312 155.0625 C 300.097656 157.976562 302.191406 163.132812 303.191406 167.007812 C 303.945312 169.921875 303.925781 172.050781 304.324219 174.777344 C 304.542969 176.246094 304.035156 182.699219 304.460938 183.253906 C 305 182.53125 305.742188 172.132812 305.753906 170.101562 C 305.761719 168.523438 305.734375 166.929688 305.734375 165.34375 C 305.742188 151.355469 297.082031 135.328125 289.183594 124.253906 C 279.878906 111.210938 267.894531 100.050781 253.894531 92.097656 C 253.421875 91.832031 247.625 88.757812 247.875 88.609375 C 259.09375 93.089844 274.003906 103.933594 282.152344 112.875 C 284.480469 115.433594 287.003906 117.800781 289.222656 120.507812 C 291.425781 123.195312 293.660156 125.78125 295.671875 128.617188 C 299.265625 133.683594 302.796875 138.886719 305.464844 144.527344 C 305.800781 145.230469 306.1875 146.480469 306.625 146.925781 L 306.714844 146.707031 C 306.714844 146.695312 306.855469 146.566406 306.714844 145.953125 L 301.160156 122.53125 C 300.582031 119.726562 298.789062 114.074219 300.773438 111.984375 C 302.667969 109.992188 304.878906 110.773438 307.042969 111.746094 C 312.410156 114.152344 315.21875 119.417969 316.121094 119.746094 C 316.039062 118.546875 313.886719 114.957031 313.125 113.835938 C 307.953125 106.265625 296.574219 98.335938 288.789062 93.605469 L 277.488281 87.082031 C 283.410156 87.082031 291.496094 92.199219 292.5 92.277344 C 291.308594 90.75 287.835938 88.324219 286.148438 87.183594 C 279.679688 82.800781 268.746094 79.539062 261.1875 78.269531 C 259.5625 77.992188 257.816406 77.753906 256.226562 77.4375 C 253.679688 76.941406 248.421875 76.535156 245.839844 76.535156 C 240.683594 76.527344 235.421875 77.179688 230.730469 74.703125 C 228.28125 73.414062 225.421875 70.003906 224.195312 70.042969 C 223.785156 70.550781 222.835938 72.878906 222.40625 73.15625 C 222.347656 73.195312 218.6875 73.839844 216.613281 74.941406 C 213.320312 76.714844 211.066406 79.648438 209.789062 83.117188 C 209.351562 84.296875 208.835938 88.710938 209.628906 89.691406 C 210.59375 89.324219 212.347656 81.699219 217.167969 79.5 C 221.535156 77.507812 225.988281 81.949219 228.667969 84.914062 C 235.601562 92.613281 238.828125 98.144531 240.722656 108.503906 C 242.449219 117.921875 241.546875 130.636719 237.6875 139.492188 C 234.996094 145.644531 231.328125 150.492188 226.84375 155.378906 C 225.820312 156.488281 223.300781 159.078125 222.964844 160.40625 C 224.898438 160.761719 228.71875 159.433594 230.574219 158.652344 C 236.742188 156.042969 242.785156 151.59375 246.078125 145.625 C 247.300781 143.425781 248.242188 141.375 248.875 138.914062 C 250.742188 131.71875 249.453125 120.558594 247.636719 113.320312 C 249.660156 114.738281 251.238281 128.03125 251.199219 131.292969 C 251.078125 141.414062 247.914062 148.9375 239.402344 155.140625 C 228.28125 163.25 219.363281 160.722656 205.144531 170.8125 C 204.410156 171.328125 201.820312 173.699219 201.265625 173.765625 C 201.941406 172.300781 206.761719 168.472656 208.230469 167.363281 C 210.78125 165.429688 213.738281 163.816406 216.425781 162.03125 C 221.316406 158.78125 227.191406 153.792969 230.574219 148.988281 C 234.691406 143.136719 237.644531 137.546875 239.273438 130.5 C 240.613281 124.691406 241.296875 118 240.136719 112.0625 C 239.539062 109.007812 237.902344 103.351562 238.628906 110.148438 C 238.757812 111.347656 238.71875 112.417969 238.71875 113.617188 C 238.71875 119.746094 238.054688 125.632812 235.574219 131.410156 C 229.898438 144.636719 223.449219 155.339844 209.648438 161.644531 C 204.511719 163.992188 199.023438 165.054688 193.609375 166.550781 C 192.683594 166.808594 188.636719 167.523438 188.359375 168.285156 C 189.171875 169 190.523438 169.328125 192.238281 171.050781 C 193.21875 172.03125 194.867188 173.894531 193.796875 175.355469 C 193.082031 175.375 192.914062 175.007812 192.199219 174.945312 C 192.792969 177.15625 201.117188 182.828125 201.117188 188.902344 C 200.78125 188.664062 200.195312 186.921875 199.996094 186.464844 C 198.359375 182.777344 194.667969 179.714844 191.871094 176.917969 C 191.394531 176.445312 188.636719 173.976562 188.746094 173.230469 L 190.570312 173.023438 C 190.394531 172.308594 189.46875 171.65625 188.855469 171.179688 C 187.21875 169.910156 185.136719 167.542969 183.4375 166.046875 C 184.402344 166.066406 185.203125 166.988281 186.246094 166.601562 C 184.886719 164.71875 181.464844 162.46875 179.539062 160.882812 C 178.996094 160.433594 177.566406 159.535156 177.496094 158.917969 C 178.5 159.582031 180.511719 159.890625 181.652344 159.363281 C 181.277344 158.789062 180.203125 158.164062 179.621094 157.691406 C 178.191406 156.519531 175.007812 153.496094 174.964844 151.644531 C 176.027344 151.929688 178.160156 153.714844 179.421875 154.023438 C 178.527344 152.109375 177.226562 150.742188 176.40625 148.421875 C 175.550781 146.023438 175.75 142.316406 177.636719 142.148438 C 177.644531 142.554688 178.863281 147.25 179.015625 147.449219 C 179.410156 146.992188 179.640625 145.121094 179.808594 144.308594 C 179.917969 143.773438 179.976562 143.019531 180.085938 142.503906 C 180.324219 141.441406 181.652344 134.710938 181.542969 134.375 C 180.988281 133.234375 178.527344 133.253906 177.535156 133.710938 C 176.582031 134.148438 175.570312 135.484375 174.964844 136.339844 C 171.5625 141.15625 170.164062 146.984375 171.128906 152.804688 C 171.683594 156.164062 173.746094 160.1875 173.785156 160.542969 C 172.902344 160.199219 171.910156 157.957031 171.484375 157.054688 C 170.144531 154.210938 169.707031 150.402344 170.046875 147.300781 C 170.234375 145.585938 170.324219 144.070312 170.800781 142.40625 C 171.949219 138.300781 174.183594 134.582031 177.566406 131.9375 C 178.238281 131.410156 180.589844 130.0625 180.789062 129.488281 C 180.542969 129.179688 178.984375 128.449219 178.457031 128.101562 C 178.082031 127.851562 177.664062 127.695312 177.296875 127.488281 C 176.503906 127.03125 176.484375 127.257812 176.464844 126.535156 C 177.296875 126.535156 177.972656 126.335938 178.804688 126.425781 C 179.164062 126.464844 178.996094 126.457031 179.371094 126.476562 L 179.578125 126.476562 C 179.609375 126.476562 179.660156 126.476562 179.6875 126.484375 C 181.367188 126.574219 183.011719 125.96875 183.449219 124.164062 C 183.210938 123.828125 181.773438 122.917969 181.324219 122.578125 C 178.804688 120.6875 178.734375 118.675781 175.820312 117.238281 C 174.0625 116.363281 172.585938 115.769531 170.710938 115.066406 C 169.777344 114.71875 165.542969 113.789062 164.597656 114.402344 C 165.671875 115.332031 171.792969 115.878906 171.851562 119.277344 C 170.214844 119.140625 165.640625 118.179688 163.617188 117.851562 C 162.167969 117.613281 156.136719 116.941406 155.195312 118.25 C 155.78125 118.574219 157.554688 118.703125 158.417969 118.890625 C 159.597656 119.140625 160.3125 119.191406 161.472656 119.707031 C 163.21875 120.476562 164.855469 121.925781 164.699219 124.007812 C 163.378906 124.898438 160.988281 124.570312 159.371094 124.621094 C 158.765625 124.640625 158.605469 124.75 158.042969 124.78125 C 157.566406 124.808594 157.039062 124.75 156.5625 124.789062 C 153.972656 125 151.078125 124.820312 148.539062 125.386719 C 147.566406 125.601562 144.796875 126.136719 144.371094 127.011719 C 145.996094 127.019531 147.953125 126.703125 149.636719 126.953125 C 151.535156 127.230469 154.855469 126.972656 156.433594 128.179688 C 156.890625 128.527344 157.527344 129.082031 157.644531 129.648438 C 157.863281 130.707031 156.167969 132.066406 155.351562 132.492188 C 153.152344 133.652344 149.976562 134.445312 148.160156 136 C 146.253906 137.625 144.0625 139.855469 144.082031 142.613281 C 144.816406 142.097656 146.34375 139.609375 147.863281 138.519531 C 150.027344 136.972656 151.285156 136.597656 153.746094 137.269531 C 153.367188 138.867188 150.601562 142.117188 149.25 143.476562 C 148.953125 143.773438 148.597656 144.148438 148.386719 144.398438 C 146.988281 146.09375 145.847656 147.886719 145.125 149.898438 C 144.292969 152.1875 144.230469 153.527344 144.230469 155.984375 C 144.765625 155.847656 144.6875 155.746094 144.789062 155.0625 L 145.691406 151.949219 C 146.472656 150.015625 148.707031 146.390625 151.15625 146.578125 C 152.675781 146.695312 153.289062 148.300781 153.429688 149.621094 C 153.765625 152.78125 150.324219 158.828125 150.3125 162.964844 C 150.3125 163.964844 150.472656 166.839844 151.503906 167.125 C 151.503906 166.035156 151.394531 164.539062 151.839844 163.597656 C 153.011719 161.160156 158.605469 160.355469 156.253906 170.089844 C 155.699219 172.378906 155.285156 178.425781 157.109375 179.554688 C 157.625 179.039062 158.488281 177.394531 158.964844 176.652344 C 160.027344 174.996094 159.25 174.839844 158.84375 173.292969 C 158.566406 172.210938 158.765625 170 160.113281 169.929688 C 163.230469 169.761719 163.824219 176.988281 164.828125 179.191406 C 165.5625 180.816406 168.757812 183.480469 167.089844 185.394531 C 166.832031 184.929688 167.019531 184.226562 166.484375 183.332031 C 165.214844 181.222656 164.519531 181.746094 163.566406 178.226562 C 163.199219 176.871094 163.042969 175.15625 162.546875 173.894531 C 162.160156 172.90625 161.515625 170.882812 160.214844 171.515625 C 159.570312 173.441406 161.214844 174.203125 159.570312 177.851562 C 157.972656 181.410156 159.371094 182.253906 159.371094 184.035156 C 158.417969 182.996094 156.085938 180.011719 155.5625 178.785156 C 154.480469 176.234375 154.90625 173.660156 155.234375 170.992188 C 155.34375 170.101562 155.867188 167.789062 155.78125 166.996094 C 155.652344 165.796875 154.617188 164.71875 153.367188 165.410156 C 151.664062 166.351562 152.226562 171.0625 150.898438 172.003906 C 150.480469 170.367188 150.195312 168.761719 149.847656 167.117188 C 149.320312 164.65625 149.90625 164.3125 147.585938 163.578125 C 146.363281 163.191406 144.410156 162.476562 143.25 161.972656 C 141.910156 161.386719 140.371094 161.011719 139.011719 160.414062 C 133.816406 158.164062 128.644531 155.46875 124.855469 151.097656 C 119.957031 145.457031 119.320312 141.125 118.527344 133.960938 C 118.058594 129.804688 119.417969 122.539062 120.550781 118.367188 C 120.757812 117.613281 121.761719 114.261719 121.769531 113.796875 C 122.136719 114.371094 121.324219 117.109375 121.207031 117.832031 C 120.472656 122.222656 119.855469 126.386719 119.847656 130.875 C 119.835938 135.742188 121.027344 142.058594 123.585938 146.289062 C 126.355469 150.859375 128.707031 153.109375 133.101562 156.082031 C 136.015625 158.066406 143.128906 161.734375 146.59375 161.753906 C 146.484375 161.050781 145.363281 160.347656 144.855469 159.78125 C 142.417969 157.054688 143.667969 156.757812 142.457031 154.753906 C 142.019531 154.042969 141.363281 153.316406 140.769531 152.734375 C 132.496094 144.527344 128.320312 132.632812 128.320312 121.0625 L 128.46875 121.0625 C 128.46875 121.519531 128.429688 122.125 128.457031 122.550781 C 128.515625 123.433594 128.675781 122.964844 128.753906 123.738281 C 128.816406 124.234375 128.726562 124.613281 128.816406 125.167969 C 130.152344 133.304688 132.40625 139.5 137.136719 146.398438 C 137.84375 147.421875 141.722656 152.011719 142.574219 152.246094 L 142.742188 151.8125 C 143.011719 150.878906 142.824219 149.96875 142.683594 149.015625 C 142.523438 147.886719 142.296875 147.222656 141.792969 146.199219 C 140.957031 144.546875 139.808594 143.285156 138.835938 141.730469 C 136.792969 138.460938 135.164062 135.527344 133.765625 131.945312 C 132.664062 129.140625 131.960938 126.058594 131.492188 123.085938 C 131.136719 120.816406 131.1875 118.515625 130.878906 116.277344 C 130.738281 115.285156 130.839844 113.667969 130.839844 112.609375 C 130.839844 111.390625 130.988281 106.164062 130.757812 105.410156 C 129.9375 106.292969 129.390625 109.257812 129.210938 110.527344 C 129.082031 111.457031 128.753906 112.609375 128.765625 113.488281 C 128.765625 114.867188 128.46875 114.511719 128.46875 116.613281 L 128.320312 116.027344 Z M 128.40625 115.996094 " fill-opacity="1" fill-rule="evenodd"/></g><path fill="#000000" d="M 199.152344 116.710938 C 199.71875 116.148438 203.132812 118.375 203.152344 120.113281 C 201.335938 120.25 200.136719 119.933594 199.351562 118.167969 C 199.191406 117.800781 198.933594 116.929688 199.152344 116.710938 Z M 186.046875 113.640625 C 184.511719 114.96875 180.292969 111.972656 178.648438 111.824219 L 183.734375 117.902344 C 184.332031 118.773438 183.347656 118.335938 182.894531 118.140625 C 182.457031 117.949219 182.367188 117.863281 181.941406 117.59375 C 181.296875 117.1875 180.660156 116.820312 180.046875 116.375 C 179.351562 115.867188 177.109375 114.015625 176.414062 113.917969 C 176.710938 115.246094 179.113281 117.722656 180.09375 118.703125 C 180.699219 119.308594 181.710938 120.023438 182.445312 120.507812 C 183.011719 120.875 184.957031 121.765625 185.183594 122.085938 C 184.410156 122.273438 184.082031 122.234375 183.25 122.234375 C 183.816406 123.09375 183.945312 122.917969 184.996094 123.757812 C 185.53125 124.195312 186.433594 124.660156 186.832031 125.1875 C 186.335938 125.621094 186.007812 125.59375 185.375 125.832031 C 184.769531 126.058594 180.917969 127.417969 180.582031 127.722656 C 180.78125 128.449219 183.972656 129.132812 185.035156 129.507812 C 186.40625 129.984375 188.390625 130.507812 189.640625 131.144531 C 189.550781 132.097656 188.300781 132.511719 188.300781 135.742188 C 188.777344 135.613281 189.074219 135 189.578125 134.496094 C 189.597656 134.476562 189.628906 134.445312 189.660156 134.425781 C 190.472656 133.640625 191.375 132.976562 192.507812 132.808594 C 194.957031 132.441406 197.734375 134.832031 199.421875 136.527344 C 203.707031 140.828125 199.648438 141.085938 199.460938 143.316406 C 200.699219 143.207031 199.945312 142.265625 206.445312 142.277344 C 208.261719 142.277344 211.632812 141.96875 212.683594 140.492188 C 211.921875 140.144531 210.722656 140.34375 209.859375 140.34375 C 209.859375 139.351562 209.96875 138.984375 209.558594 138.113281 C 209.09375 138.242188 208.578125 139.042969 208.191406 139.421875 C 207.378906 140.214844 207.179688 139.90625 206.304688 139.558594 C 206.671875 138.785156 207.070312 137.171875 206.296875 136.625 C 206.039062 136.695312 205.105469 137.65625 204.996094 137.777344 C 203.46875 136.25 205.074219 135.257812 204.382812 133.640625 C 204.292969 133.425781 204.300781 133.484375 204.203125 133.355469 C 203.597656 133.710938 203.4375 134.246094 202.863281 134.414062 C 202.121094 133.851562 202.335938 133.890625 202.417969 133.058594 C 202.488281 132.382812 202.398438 131.699219 202.128906 131.132812 C 201.316406 131.539062 201.632812 131.71875 200.9375 132.175781 C 200.542969 132.066406 200.253906 131.777344 199.957031 131.519531 C 198.675781 130.390625 200.671875 129.667969 199.253906 127.894531 C 198.113281 129.480469 197.664062 130.171875 196.34375 126.367188 C 196.117188 125.691406 195.613281 123.214844 195.730469 122.667969 C 196.425781 122.726562 198.429688 123.660156 199.164062 123.988281 C 199.816406 124.285156 200.074219 124.511719 200.679688 124.851562 C 201.226562 125.15625 202.148438 125.363281 202.378906 125.523438 L 202.359375 127.011719 C 203.546875 127.398438 203.757812 125.027344 205.441406 125.582031 C 206.019531 126.734375 205.421875 126.921875 205.640625 127.617188 C 206.453125 127.695312 207.128906 126.257812 207.773438 126.078125 C 209.28125 126.1875 208.667969 128.28125 208.765625 129.25 C 209.519531 129.4375 209.777344 128.191406 210.679688 128.359375 C 211.851562 128.578125 211.496094 129.765625 211.496094 130.835938 C 212.167969 130.777344 212.855469 130.113281 213.179688 129.546875 L 213.578125 128.902344 C 215.203125 128.933594 214.710938 130.382812 214.621094 131.429688 C 215.421875 131.234375 215.550781 130.835938 216.109375 130.6875 L 216.761719 131.808594 C 217.339844 132.917969 216.832031 132.691406 217.445312 132.917969 C 218.261719 132.292969 218.480469 129.222656 218.480469 128.160156 C 218.480469 126.464844 218.171875 124.78125 217.457031 123.242188 C 215.523438 119.0625 211.773438 123.371094 208.648438 120.765625 C 207.585938 119.882812 208.222656 118.398438 206.78125 116.839844 C 206.246094 116.253906 205.699219 116.027344 205.085938 115.5625 C 204.421875 115.066406 204.125 114.699219 203.578125 114.09375 C 202.585938 112.984375 198.4375 108.671875 197.226562 108.554688 C 197.335938 109.457031 198.636719 110.980469 198.46875 111.734375 C 196.316406 112.082031 191.425781 109.40625 189.421875 107.898438 C 184.082031 103.90625 180.910156 97.453125 180.09375 90.929688 C 179.789062 88.472656 179.699219 84.464844 180.253906 82.085938 C 180.414062 81.414062 180.859375 79.777344 180.582031 79.300781 C 180.363281 79.539062 180.511719 79.351562 180.34375 79.667969 C 180.285156 79.777344 180.175781 80.027344 180.105469 80.175781 L 178.726562 83.246094 C 177.398438 86.824219 177.011719 89.5625 177.011719 93.269531 C 177.011719 98.898438 179.191406 106.660156 183.0625 110.675781 C 183.585938 111.21875 185.917969 113.230469 186.039062 113.640625 Z M 186.046875 113.640625 " fill-opacity="1" fill-rule="evenodd"/><path fill="#000000" d="M 153.128906 92.792969 L 157.316406 94.25 C 163.964844 96.6875 169.015625 101.894531 172.644531 107.890625 C 173.300781 108.980469 174.332031 110.179688 175.195312 111.132812 C 175.640625 111.605469 176.136719 112.082031 176.601562 112.546875 C 176.851562 112.796875 177.097656 113.042969 177.347656 113.292969 C 178.648438 114.640625 177.921875 113.191406 177.636719 112.410156 C 177.238281 111.320312 175.867188 108.453125 175.828125 107.980469 L 179.6875 109.910156 C 179.300781 108.496094 169.429688 100.992188 167.714844 99.75 C 163.796875 96.917969 158.816406 94.003906 154.082031 92.714844 C 153.914062 92.664062 153.714844 92.632812 153.546875 92.644531 L 153.121094 92.804688 Z M 153.128906 92.792969 " fill-opacity="1" fill-rule="evenodd"/><path fill="#000000" d="M 194.707031 109.160156 C 194.550781 108.503906 194.144531 107.949219 193.875 107.316406 C 193.160156 105.589844 193.023438 105.09375 192.585938 103.261719 C 191.921875 100.484375 191.890625 96.035156 192.507812 93.445312 C 192.644531 92.871094 192.921875 91.625 192.921875 91.039062 C 192.050781 91.386719 190.671875 94.804688 190.433594 95.527344 C 189.421875 98.601562 187.914062 104.203125 189.828125 107.058594 C 190.761719 108.433594 193.121094 109.160156 194.707031 109.160156 Z M 194.707031 109.160156 " fill-opacity="1" fill-rule="evenodd"/><path fill="#000000" d="M 184.125 138.519531 C 184.460938 138.054688 184.242188 138.5 184.273438 138.003906 L 184.261719 137.449219 C 184.320312 136.210938 184.628906 134.78125 185.652344 133.949219 C 186.117188 133.574219 189.957031 132.441406 185.710938 131.519531 C 184.867188 131.332031 184.035156 130.796875 183.46875 131.3125 C 182.972656 131.769531 182.355469 134.148438 182.625 135.1875 C 182.953125 136.457031 183.023438 137.347656 184.132812 138.507812 Z M 184.125 138.519531 " fill-opacity="1" fill-rule="evenodd"/></svg>